999
dxflib 3.3.4.0
  0
SECTION
  2
HEADER
  9
$ACADVER
  1
AC1015
  9
$HANDSEED
  5
FFFF
  9
$ANGBASE
 50
0.0
  9
$ATTMODE
 70
1
  9
$AUNITS
 70
0
  9
$AUPREC
 70
0
  9
$CELTSCALE
 40
1.0
  9
$CHAMFERA
 40
0.5
  9
$CHAMFERB
 40
0.5
  9
$CHAMFERC
 40
0.0
  9
$CHAMFERD
 40
0.0
  9
$CMLJUST
 70
0
  9
$CMLSCALE
 40
1.0
  9
$DIMADEC
 70
0
  9
$DIMALTD
 70
2
  9
$DIMALTF
 40
0.0393701
  9
$DIMALTRND
 40
0.0
  9
$DIMALTTD
 70
2
  9
$DIMALTTZ
 70
0
  9
$DIMALTU
 70
2
  9
$DIMALTZ
 70
0
  9
$DIMAPOST
  1
"
  9
$DIMASZ
 40
3.5
  9
$DIMATFIT
 70
3
  9
$DIMAUNIT
 70
0
  9
$DIMAZIN
 70
0
  9
$DIMCEN
 40
0.0
  9
$DIMDEC
 70
4
  9
$DIMDLE
 40
0.0
  9
$DIMDLI
 40
10.0
  9
$DIMDSEP
 70
46
  9
$DIMEXE
 40
1.0
  9
$DIMEXO
 40
1.0
  9
$DIMFRAC
 70
0
  9
$DIMGAP
 40
1.5
  9
$DIMJUST
 70
0
  9
$DIMLFAC
 40
1.0
  9
$DIMLUNIT
 70
2
  9
$DIMLWD
 70
-2
  9
$DIMLWE
 70
-2
  9
$DIMPOST
  1

  9
$DIMRND
 40
0.0
  9
$DIMSCALE
 40
1.0
  9
$DIMTAD
 70
1
  9
$DIMTDEC
 70
4
  9
$DIMTFAC
 40
0.71
  9
$DIMTM
 40
0.1
  9
$DIMTOLJ
 70
1
  9
$DIMTP
 40
0.1
  9
$DIMTSZ
 40
0.0
  9
$DIMTVP
 40
0.0
  9
$DIMTXT
 40
3.5
  9
$DIMTZIN
 70
0
  9
$DIMZIN
 70
8
  9
$DWGCODEPAGE
  3
ANSI_1252
  9
$ELEVATION
 40
0.0
  9
$EXTMAX
 10
370.0
 20
370.0
 30
0.0
  9
$EXTMIN
 10
0.0
 20
0.0
 30
0.0
  9
$FILLETRAD
 40
0.5
  9
$INSBASE
 10
0.0
 20
0.0
 30
0.0
  9
$INSUNITS
 70
0
  9
$LIMMAX
 10
12.0
 20
9.0
  9
$LIMMIN
 10
0.0
 20
0.0
  9
$LTSCALE
 40
1.0
  9
$LUNITS
 70
2
  9
$LUPREC
 70
4
  9
$MAXACTVP
 70
64
  9
$PDMODE
 70
0
  9
$PDSIZE
 40
0.0
  9
$PELEVATION
 40
0.0
  9
$PEXTMAX
 10
-100000000000000000000.0
 20
-100000000000000000000.0
 30
-100000000000000000000.0
  9
$PEXTMIN
 10
100000000000000000000.0
 20
100000000000000000000.0
 30
100000000000000000000.0
  9
$PINSBASE
 10
0.0
 20
0.0
 30
0.0
  9
$PLIMMAX
 10
277.0
 20
202.5
  9
$PLIMMIN
 10
-20.0
 20
-7.5
  9
$PLINEWID
 40
0.0
  9
$PROXYGRAPHICS
 70
1
  9
$PUCSORG
 10
0.0
 20
0.0
 30
0.0
  9
$PUCSXDIR
 10
1.0
 20
0.0
 30
0.0
  9
$PUCSYDIR
 10
0.0
 20
1.0
 30
0.0
  9
$SHADEDGE
 70
3
  9
$SHADEDIF
 70
70
  9
$SKETCHINC
 40
0.1
  9
$SPLINESEGS
 70
8
  9
$SPLINETYPE
 70
6
  9
$SURFTAB1
 70
6
  9
$SURFTAB2
 70
6
  9
$SURFTYPE
 70
6
  9
$SURFU
 70
6
  9
$SURFV
 70
6
  9
$TEXTSIZE
 40
2.5
  9
$THICKNESS
 40
0.0
  9
$TRACEWID
 40
0.05
  9
$TREEDEPTH
 70
3020
  9
$UCSORG
 10
0.0
 20
0.0
 30
0.0
  9
$UCSXDIR
 10
1.0
 20
0.0
 30
0.0
  9
$UCSYDIR
 10
0.0
 20
1.0
 30
0.0
  9
$UNITMODE
 70
0
  9
$USERI1
 70
0
  9
$USERI2
 70
0
  9
$USERI3
 70
0
  9
$USERI4
 70
0
  9
$USERI5
 70
0
  9
$USERR1
 40
0.0
  9
$USERR2
 40
0.0
  9
$USERR3
 40
0.0
  9
$USERR4
 40
0.0
  9
$USERR5
 40
0.0
  0
ENDSEC
  0
SECTION
  2
TABLES
  0
TABLE
  2
VPORT
  5
8
100
AcDbSymbolTable
 70
1
  0
VPORT
  5
30
100
AcDbSymbolTableRecord
100
AcDbViewportTableRecord
  2
*Active
 70
0
 10
0.0
 20
0.0
 11
1.0
 21
1.0
 12
286.3055555555554861
 22
148.5
 13
0.0
 23
0.0
 14
10.0
 24
10.0
 15
10.0
 25
10.0
 16
0.0
 26
0.0
 36
1.0
 17
0.0
 27
0.0
 37
0.0
 40
297.0
 41
1.92798353909465
 42
50.0
 43
0.0
 44
0.0
 50
0.0
 51
0.0
 71
0
 72
100
 73
1
 74
3
 75
1
 76
1
 77
0
 78
0
281
0
 65
1
110
0.0
120
0.0
130
0.0
111
1.0
121
0.0
131
0.0
112
0.0
122
1.0
132
0.0
 79
0
146
0.0
  0
ENDTAB
  0
TABLE
  2
LTYPE
  5
5
100
AcDbSymbolTable
 70
21
  0
LTYPE
  5
16
100
AcDbSymbolTableRecord
100
AcDbLinetypeTableRecord
  2
CONTINUOUS
 70
0
  3
Solid line
 72
65
 73
0
 40
0.0
  0
LTYPE
  5
31
100
AcDbSymbolTableRecord
100
AcDbLinetypeTableRecord
  2
CENTER2
 70
0
  3
Center (.5x) ___ _ ___ _ ___ _ ___ _ ___ _ ___
 72
65
 73
4
 40
28.5749999999999993
 49
19.0500000000000007
 74
0
 49
-3.1749999999999998
 74
0
 49
3.1749999999999998
 74
0
 49
-3.1749999999999998
 74
0
  0
LTYPE
  5
32
100
AcDbSymbolTableRecord
100
AcDbLinetypeTableRecord
  2
DIVIDEX2
 70
0
  3
Divide (2x) ________  .  .  ________  .  .  _
 72
65
 73
6
 40
63.5
 49
25.3999999999999986
 74
0
 49
-12.6999999999999993
 74
0
 49
0.0
 74
0
 49
-12.6999999999999993
 74
0
 49
0.0
 74
0
 49
-12.6999999999999993
 74
0
  0
LTYPE
  5
33
100
AcDbSymbolTableRecord
100
AcDbLinetypeTableRecord
  2
DOT2
 70
0
  3
Dot (.5x) .....................................
 72
65
 73
2
 40
3.1749999999999998
 49
0.0
 74
0
 49
-3.1749999999999998
 74
0
  0
LTYPE
  5
34
100
AcDbSymbolTableRecord
100
AcDbLinetypeTableRecord
  2
DASHDOT2
 70
0
  3
Dash dot (.5x) _._._._._._._._._._._._._._._.
 72
65
 73
4
 40
12.6999999999999993
 49
6.3499999999999996
 74
0
 49
-3.1749999999999998
 74
0
 49
0.0
 74
0
 49
-3.1749999999999998
 74
0
  0
LTYPE
  5
35
100
AcDbSymbolTableRecord
100
AcDbLinetypeTableRecord
  2
DIVIDE
 70
0
  3
Divide ____ . . ____ . . ____ . . ____ . . ____
 72
65
 73
6
 40
31.75
 49
12.6999999999999993
 74
0
 49
-6.3499999999999996
 74
0
 49
0.0
 74
0
 49
-6.3499999999999996
 74
0
 49
0.0
 74
0
 49
-6.3499999999999996
 74
0
  0
LTYPE
  5
36
100
AcDbSymbolTableRecord
100
AcDbLinetypeTableRecord
  2
DASHDOT
 70
0
  3
Dash dot __ . __ . __ . __ . __ . __ . __ . __
 72
65
 73
4
 40
25.3999999999999986
 49
12.6999999999999993
 74
0
 49
-6.3499999999999996
 74
0
 49
0.0
 74
0
 49
-6.3499999999999996
 74
0
  0
LTYPE
  5
37
100
AcDbSymbolTableRecord
100
AcDbLinetypeTableRecord
  2
BORDER
 70
0
  3
Border __ __ . __ __ . __ __ . __ __ . __ __ .
 72
65
 73
6
 40
44.4500000000000028
 49
12.6999999999999993
 74
0
 49
-6.3499999999999996
 74
0
 49
12.6999999999999993
 74
0
 49
-6.3499999999999996
 74
0
 49
0.0
 74
0
 49
-6.3499999999999996
 74
0
  0
LTYPE
  5
38
100
AcDbSymbolTableRecord
100
AcDbLinetypeTableRecord
  2
DASHDOTX2
 70
0
  3
Dash dot (2x) ____  .  ____  .  ____  .  ___
 72
65
 73
4
 40
50.7999999999999972
 49
25.3999999999999986
 74
0
 49
-12.6999999999999993
 74
0
 49
0.0
 74
0
 49
-12.6999999999999993
 74
0
  0
LTYPE
  5
39
100
AcDbSymbolTableRecord
100
AcDbLinetypeTableRecord
  2
CENTERX2
 70
0
  3
Center (2x) ________  __  ________  __  _____
 72
65
 73
4
 40
101.5999999999999943
 49
63.5
 74
0
 49
-12.6999999999999993
 74
0
 49
12.6999999999999993
 74
0
 49
-12.6999999999999993
 74
0
  0
LTYPE
  5
3A
100
AcDbSymbolTableRecord
100
AcDbLinetypeTableRecord
  2
BORDER2
 70
0
  3
Border (.5x) __.__.__.__.__.__.__.__.__.__.__.
 72
65
 73
6
 40
22.2250000000000014
 49
6.3499999999999996
 74
0
 49
-3.1749999999999998
 74
0
 49
6.3499999999999996
 74
0
 49
-3.1749999999999998
 74
0
 49
0.0
 74
0
 49
-3.1749999999999998
 74
0
  0
LTYPE
  5
3B
100
AcDbSymbolTableRecord
100
AcDbLinetypeTableRecord
  2
BORDERX2
 70
0
  3
Border (2x) ____  ____  .  ____  ____  .  ___
 72
65
 73
6
 40
88.9000000000000057
 49
25.3999999999999986
 74
0
 49
-12.6999999999999993
 74
0
 49
25.3999999999999986
 74
0
 49
-12.6999999999999993
 74
0
 49
0.0
 74
0
 49
-12.6999999999999993
 74
0
  0
LTYPE
  5
14
100
AcDbSymbolTableRecord
100
AcDbLinetypeTableRecord
  2
BYBLOCK
 70
0
  3

 72
65
 73
0
 40
0.0
  0
LTYPE
  5
15
100
AcDbSymbolTableRecord
100
AcDbLinetypeTableRecord
  2
BYLAYER
 70
0
  3

 72
65
 73
0
 40
0.0
  0
LTYPE
  5
3C
100
AcDbSymbolTableRecord
100
AcDbLinetypeTableRecord
  2
DASHED2
 70
0
  3
Dashed (.5x) _ _ _ _ _ _ _ _ _ _ _ _ _ _ _ _ _
 72
65
 73
2
 40
9.5250000000000004
 49
6.3499999999999996
 74
0
 49
-3.1749999999999998
 74
0
  0
LTYPE
  5
3D
100
AcDbSymbolTableRecord
100
AcDbLinetypeTableRecord
  2
CENTER
 70
0
  3
Center ____ _ ____ _ ____ _ ____ _ ____ _ ____
 72
65
 73
4
 40
50.7999999999999972
 49
31.75
 74
0
 49
-6.3499999999999996
 74
0
 49
6.3499999999999996
 74
0
 49
-6.3499999999999996
 74
0
  0
LTYPE
  5
3E
100
AcDbSymbolTableRecord
100
AcDbLinetypeTableRecord
  2
DIVIDE2
 70
0
  3
Divide (.5x) __..__..__..__..__..__..__..__.._
 72
65
 73
6
 40
15.875
 49
6.3499999999999996
 74
0
 49
-3.1749999999999998
 74
0
 49
0.0
 74
0
 49
-3.1749999999999998
 74
0
 49
0.0
 74
0
 49
-3.1749999999999998
 74
0
  0
LTYPE
  5
3F
100
AcDbSymbolTableRecord
100
AcDbLinetypeTableRecord
  2
DASHED
 70
0
  3
Dashed __ __ __ __ __ __ __ __ __ __ __ __ __ _
 72
65
 73
2
 40
19.0500000000000007
 49
12.6999999999999993
 74
0
 49
-6.3499999999999996
 74
0
  0
LTYPE
  5
40
100
AcDbSymbolTableRecord
100
AcDbLinetypeTableRecord
  2
DOTX2
 70
0
  3
Dot (2x) .  .  .  .  .  .  .  .  .  .  .  .  .
 72
65
 73
2
 40
12.6999999999999993
 49
0.0
 74
0
 49
-12.6999999999999993
 74
0
  0
LTYPE
  5
41
100
AcDbSymbolTableRecord
100
AcDbLinetypeTableRecord
  2
DASHEDX2
 70
0
  3
Dashed (2x) ____  ____  ____  ____  ____  ___
 72
65
 73
2
 40
38.1000000000000014
 49
25.3999999999999986
 74
0
 49
-12.6999999999999993
 74
0
  0
LTYPE
  5
42
100
AcDbSymbolTableRecord
100
AcDbLinetypeTableRecord
  2
DOT
 70
0
  3
Dot . . . . . . . . . . . . . . . . . . . . . .
 72
65
 73
2
 40
6.3499999999999996
 49
0.0
 74
0
 49
-6.3499999999999996
 74
0
  0
ENDTAB
  0
TABLE
  2
LAYER
  5
2
100
AcDbSymbolTable
 70
12
  0
LAYER
  5
43
100
AcDbSymbolTableRecord
100
AcDbLayerTableRecord
  2
HOLE_8MM_5MM_DEEP
 70
0
 62
1
420
16711680
  6
CONTINUOUS
370
-3
390
F
  0
LAYER
  5
44
100
AcDbSymbolTableRecord
100
AcDbLayerTableRecord
  2
HOLE_3_5_MM_COUNTER_SUNK
 70
0
 62
5
420
255
  6
CONTINUOUS
370
-3
390
F
  0
LAYER
  5
45
100
AcDbSymbolTableRecord
100
AcDbLayerTableRecord
  2
MILL_5MMDEEP
 70
0
 62
1
420
16711680
  6
CONTINUOUS
370
-3
390
F
  0
LAYER
  5
46
100
AcDbSymbolTableRecord
100
AcDbLayerTableRecord
  2
HOLE_3_5_MM
 70
0
 62
6
420
16711935
  6
CONTINUOUS
370
-3
390
F
  0
LAYER
  5
47
100
AcDbSymbolTableRecord
100
AcDbLayerTableRecord
  2
MILL_3MM_DEEP
 70
0
 62
6
420
16711935
  6
CONTINUOUS
370
-3
390
F
  0
LAYER
  5
48
100
AcDbSymbolTableRecord
100
AcDbLayerTableRecord
  2
MILL_4_2MM_DEEP
 70
0
 62
5
420
255
  6
CONTINUOUS
370
-3
390
F
  0
LAYER
  5
49
100
AcDbSymbolTableRecord
100
AcDbLayerTableRecord
  2
_COMMENTS_NAMES
 70
0
 62
7
420
16777215
  6
CONTINUOUS
370
-3
390
F
  0
LAYER
  5
4A
100
AcDbSymbolTableRecord
100
AcDbLayerTableRecord
  2
HOLE_4MM_5MM_DEEP
 70
0
 62
1
420
16711680
  6
CONTINUOUS
370
-3
390
F
  0
LAYER
  5
4B
100
AcDbSymbolTableRecord
100
AcDbLayerTableRecord
  2
DEFPOINTS
 70
0
 62
7
420
16777215
  6
CONTINUOUS
290
0
370
-3
390
F
  0
LAYER
  5
10
100
AcDbSymbolTableRecord
100
AcDbLayerTableRecord
  2
0
 70
0
 62
7
420
16777215
  6
CONTINUOUS
370
-3
390
F
  0
LAYER
  5
4C
100
AcDbSymbolTableRecord
100
AcDbLayerTableRecord
  2
HOLE_M3
 70
0
 62
3
420
65280
  6
CONTINUOUS
370
-3
390
F
  0
LAYER
  5
4D
100
AcDbSymbolTableRecord
100
AcDbLayerTableRecord
  2
_COMMENTS_HOLES
 70
0
 62
7
420
16777215
  6
CONTINUOUS
370
-3
390
F
  0
ENDTAB
  0
TABLE
  2
STYLE
  5
3
100
AcDbSymbolTable
 70
45
  0
STYLE
  5
4E
100
AcDbSymbolTableRecord
100
AcDbTextStyleTableRecord
  2
Standard
 70
0
 40
0.0
 41
1.0
 50
0.0
 71
0
 42
2.5
  3

  4

1001
ACAD
1000
txt
1071
0
  0
STYLE
  5
4F
100
AcDbSymbolTableRecord
100
AcDbTextStyleTableRecord
  2
textstyle0
 70
0
 40
0.0
 41
1.0
 50
0.0
 71
0
 42
5.0
  3

  4

1001
ACAD
1000
standard
1071
0
  0
STYLE
  5
50
100
AcDbSymbolTableRecord
100
AcDbTextStyleTableRecord
  2
textstyle1
 70
0
 40
0.0
 41
1.0
 50
0.0
 71
0
 42
5.0
  3

  4

1001
ACAD
1000
standard
1071
0
  0
STYLE
  5
51
100
AcDbSymbolTableRecord
100
AcDbTextStyleTableRecord
  2
textstyle2
 70
0
 40
0.0
 41
1.0
 50
0.0
 71
0
 42
5.0
  3

  4

1001
ACAD
1000
standard
1071
0
  0
STYLE
  5
52
100
AcDbSymbolTableRecord
100
AcDbTextStyleTableRecord
  2
textstyle3
 70
0
 40
0.0
 41
1.0
 50
0.0
 71
0
 42
5.0
  3

  4

1001
ACAD
1000
standard
1071
0
  0
STYLE
  5
53
100
AcDbSymbolTableRecord
100
AcDbTextStyleTableRecord
  2
textstyle4
 70
0
 40
0.0
 41
1.0
 50
0.0
 71
0
 42
5.0
  3

  4

1001
ACAD
1000
standard
1071
0
  0
STYLE
  5
54
100
AcDbSymbolTableRecord
100
AcDbTextStyleTableRecord
  2
textstyle5
 70
0
 40
0.0
 41
1.0
 50
0.0
 71
0
 42
5.0
  3

  4

1001
ACAD
1000
standard
1071
0
  0
STYLE
  5
55
100
AcDbSymbolTableRecord
100
AcDbTextStyleTableRecord
  2
textstyle6
 70
0
 40
0.0
 41
1.0
 50
0.0
 71
0
 42
5.0
  3

  4

1001
ACAD
1000
standard
1071
0
  0
STYLE
  5
56
100
AcDbSymbolTableRecord
100
AcDbTextStyleTableRecord
  2
textstyle7
 70
0
 40
0.0
 41
1.0
 50
0.0
 71
0
 42
5.0
  3

  4

1001
ACAD
1000
standard
1071
0
  0
STYLE
  5
57
100
AcDbSymbolTableRecord
100
AcDbTextStyleTableRecord
  2
textstyle8
 70
0
 40
0.0
 41
1.0
 50
0.0
 71
0
 42
5.0
  3

  4

1001
ACAD
1000
standard
1071
0
  0
STYLE
  5
58
100
AcDbSymbolTableRecord
100
AcDbTextStyleTableRecord
  2
textstyle9
 70
0
 40
0.0
 41
1.0
 50
0.0
 71
0
 42
5.0
  3

  4

1001
ACAD
1000
standard
1071
0
  0
STYLE
  5
59
100
AcDbSymbolTableRecord
100
AcDbTextStyleTableRecord
  2
textstyle10
 70
0
 40
0.0
 41
1.0
 50
0.0
 71
0
 42
5.0
  3

  4

1001
ACAD
1000
standard
1071
0
  0
STYLE
  5
5A
100
AcDbSymbolTableRecord
100
AcDbTextStyleTableRecord
  2
textstyle11
 70
0
 40
0.0
 41
1.0
 50
0.0
 71
0
 42
5.0
  3

  4

1001
ACAD
1000
standard
1071
0
  0
STYLE
  5
5B
100
AcDbSymbolTableRecord
100
AcDbTextStyleTableRecord
  2
textstyle12
 70
0
 40
0.0
 41
1.0
 50
0.0
 71
0
 42
5.0
  3

  4

1001
ACAD
1000
standard
1071
0
  0
STYLE
  5
5C
100
AcDbSymbolTableRecord
100
AcDbTextStyleTableRecord
  2
textstyle13
 70
0
 40
0.0
 41
1.0
 50
0.0
 71
0
 42
5.0
  3

  4

1001
ACAD
1000
standard
1071
0
  0
STYLE
  5
5D
100
AcDbSymbolTableRecord
100
AcDbTextStyleTableRecord
  2
textstyle14
 70
0
 40
0.0
 41
1.0
 50
0.0
 71
0
 42
5.0
  3

  4

1001
ACAD
1000
standard
1071
0
  0
STYLE
  5
5E
100
AcDbSymbolTableRecord
100
AcDbTextStyleTableRecord
  2
textstyle15
 70
0
 40
0.0
 41
1.0
 50
0.0
 71
0
 42
5.0
  3

  4

1001
ACAD
1000
standard
1071
0
  0
STYLE
  5
5F
100
AcDbSymbolTableRecord
100
AcDbTextStyleTableRecord
  2
textstyle16
 70
0
 40
0.0
 41
1.0
 50
0.0
 71
0
 42
5.0
  3

  4

1001
ACAD
1000
standard
1071
0
  0
STYLE
  5
60
100
AcDbSymbolTableRecord
100
AcDbTextStyleTableRecord
  2
textstyle17
 70
0
 40
0.0
 41
1.0
 50
0.0
 71
0
 42
5.0
  3

  4

1001
ACAD
1000
standard
1071
0
  0
STYLE
  5
61
100
AcDbSymbolTableRecord
100
AcDbTextStyleTableRecord
  2
textstyle18
 70
0
 40
0.0
 41
1.0
 50
0.0
 71
0
 42
5.0
  3

  4

1001
ACAD
1000
standard
1071
0
  0
STYLE
  5
62
100
AcDbSymbolTableRecord
100
AcDbTextStyleTableRecord
  2
textstyle19
 70
0
 40
0.0
 41
1.0
 50
0.0
 71
0
 42
5.0
  3

  4

1001
ACAD
1000
standard
1071
0
  0
STYLE
  5
63
100
AcDbSymbolTableRecord
100
AcDbTextStyleTableRecord
  2
textstyle20
 70
0
 40
0.0
 41
1.0
 50
0.0
 71
0
 42
5.0
  3

  4

1001
ACAD
1000
standard
1071
0
  0
STYLE
  5
64
100
AcDbSymbolTableRecord
100
AcDbTextStyleTableRecord
  2
textstyle21
 70
0
 40
0.0
 41
1.0
 50
0.0
 71
0
 42
5.0
  3

  4

1001
ACAD
1000
standard
1071
0
  0
STYLE
  5
65
100
AcDbSymbolTableRecord
100
AcDbTextStyleTableRecord
  2
textstyle22
 70
0
 40
0.0
 41
1.0
 50
0.0
 71
0
 42
5.0
  3

  4

1001
ACAD
1000
standard
1071
0
  0
STYLE
  5
66
100
AcDbSymbolTableRecord
100
AcDbTextStyleTableRecord
  2
textstyle23
 70
0
 40
0.0
 41
1.0
 50
0.0
 71
0
 42
5.0
  3

  4

1001
ACAD
1000
standard
1071
0
  0
STYLE
  5
67
100
AcDbSymbolTableRecord
100
AcDbTextStyleTableRecord
  2
textstyle24
 70
0
 40
0.0
 41
1.0
 50
0.0
 71
0
 42
5.0
  3

  4

1001
ACAD
1000
standard
1071
0
  0
STYLE
  5
68
100
AcDbSymbolTableRecord
100
AcDbTextStyleTableRecord
  2
textstyle25
 70
0
 40
0.0
 41
1.0
 50
0.0
 71
0
 42
5.0
  3

  4

1001
ACAD
1000
standard
1071
0
  0
STYLE
  5
69
100
AcDbSymbolTableRecord
100
AcDbTextStyleTableRecord
  2
textstyle26
 70
0
 40
0.0
 41
1.0
 50
0.0
 71
0
 42
5.0
  3

  4

1001
ACAD
1000
standard
1071
0
  0
STYLE
  5
6A
100
AcDbSymbolTableRecord
100
AcDbTextStyleTableRecord
  2
textstyle27
 70
0
 40
0.0
 41
1.0
 50
0.0
 71
0
 42
5.0
  3

  4

1001
ACAD
1000
standard
1071
0
  0
STYLE
  5
6B
100
AcDbSymbolTableRecord
100
AcDbTextStyleTableRecord
  2
textstyle28
 70
0
 40
0.0
 41
1.0
 50
0.0
 71
0
 42
5.0
  3

  4

1001
ACAD
1000
standard
1071
0
  0
STYLE
  5
6C
100
AcDbSymbolTableRecord
100
AcDbTextStyleTableRecord
  2
textstyle29
 70
0
 40
0.0
 41
1.0
 50
0.0
 71
0
 42
5.0
  3

  4

1001
ACAD
1000
standard
1071
0
  0
STYLE
  5
6D
100
AcDbSymbolTableRecord
100
AcDbTextStyleTableRecord
  2
textstyle30
 70
0
 40
0.0
 41
1.0
 50
0.0
 71
0
 42
5.0
  3

  4

1001
ACAD
1000
standard
1071
0
  0
STYLE
  5
6E
100
AcDbSymbolTableRecord
100
AcDbTextStyleTableRecord
  2
textstyle31
 70
0
 40
0.0
 41
1.0
 50
0.0
 71
0
 42
5.0
  3

  4

1001
ACAD
1000
standard
1071
0
  0
STYLE
  5
6F
100
AcDbSymbolTableRecord
100
AcDbTextStyleTableRecord
  2
textstyle32
 70
0
 40
0.0
 41
1.0
 50
0.0
 71
0
 42
5.0
  3

  4

1001
ACAD
1000
standard
1071
0
  0
STYLE
  5
70
100
AcDbSymbolTableRecord
100
AcDbTextStyleTableRecord
  2
textstyle33
 70
0
 40
0.0
 41
1.0
 50
0.0
 71
0
 42
5.0
  3

  4

1001
ACAD
1000
standard
1071
0
  0
STYLE
  5
71
100
AcDbSymbolTableRecord
100
AcDbTextStyleTableRecord
  2
textstyle34
 70
0
 40
0.0
 41
1.0
 50
0.0
 71
0
 42
5.0
  3

  4

1001
ACAD
1000
standard
1071
0
  0
STYLE
  5
72
100
AcDbSymbolTableRecord
100
AcDbTextStyleTableRecord
  2
textstyle35
 70
0
 40
0.0
 41
1.0
 50
0.0
 71
0
 42
5.0
  3

  4

1001
ACAD
1000
standard
1071
0
  0
STYLE
  5
73
100
AcDbSymbolTableRecord
100
AcDbTextStyleTableRecord
  2
textstyle36
 70
0
 40
0.0
 41
1.0
 50
0.0
 71
0
 42
5.0
  3

  4

1001
ACAD
1000
standard
1071
0
  0
STYLE
  5
74
100
AcDbSymbolTableRecord
100
AcDbTextStyleTableRecord
  2
textstyle37
 70
0
 40
0.0
 41
1.0
 50
0.0
 71
0
 42
5.0
  3

  4

1001
ACAD
1000
standard
1071
0
  0
STYLE
  5
75
100
AcDbSymbolTableRecord
100
AcDbTextStyleTableRecord
  2
textstyle38
 70
0
 40
0.0
 41
1.0
 50
0.0
 71
0
 42
5.0
  3

  4

1001
ACAD
1000
standard
1071
0
  0
STYLE
  5
76
100
AcDbSymbolTableRecord
100
AcDbTextStyleTableRecord
  2
textstyle39
 70
0
 40
0.0
 41
1.0
 50
0.0
 71
0
 42
5.0
  3

  4

1001
ACAD
1000
standard
1071
0
  0
STYLE
  5
77
100
AcDbSymbolTableRecord
100
AcDbTextStyleTableRecord
  2
textstyle40
 70
0
 40
0.0
 41
1.0
 50
0.0
 71
0
 42
5.0
  3

  4

1001
ACAD
1000
standard
1071
0
  0
STYLE
  5
78
100
AcDbSymbolTableRecord
100
AcDbTextStyleTableRecord
  2
textstyle41
 70
0
 40
0.0
 41
1.0
 50
0.0
 71
0
 42
5.0
  3

  4

1001
ACAD
1000
standard
1071
0
  0
STYLE
  5
79
100
AcDbSymbolTableRecord
100
AcDbTextStyleTableRecord
  2
textstyle42
 70
0
 40
0.0
 41
1.0
 50
0.0
 71
0
 42
5.0
  3

  4

1001
ACAD
1000
standard
1071
0
  0
STYLE
  5
7A
100
AcDbSymbolTableRecord
100
AcDbTextStyleTableRecord
  2
textstyle43
 70
0
 40
0.0
 41
1.0
 50
0.0
 71
0
 42
5.0
  3

  4

1001
ACAD
1000
standard
1071
0
  0
ENDTAB
  0
TABLE
  2
VIEW
  5
6
100
AcDbSymbolTable
 70
0
  0
ENDTAB
  0
TABLE
  2
UCS
  5
7
100
AcDbSymbolTable
 70
0
  0
ENDTAB
  0
TABLE
  2
APPID
  5
9
100
AcDbSymbolTable
 70
1
  0
APPID
  5
12
100
AcDbSymbolTableRecord
100
AcDbRegAppTableRecord
  2
ACAD
 70
0
  0
APPID
  5
7B
100
AcDbSymbolTableRecord
100
AcDbRegAppTableRecord
  2
QCAD
 70
0
  0
ENDTAB
  0
TABLE
  2
DIMSTYLE
  5
A
100
AcDbSymbolTable
 70
1
100
AcDbDimStyleTable
 71
0
  0
DIMSTYLE
105
27
100
AcDbSymbolTableRecord
100
AcDbDimStyleTableRecord
  2
Standard
 41
3.5
 42
1.0
 43
3.75
 44
1.0
 70
0
 73
0
 74
0
 77
1
 78
8
140
3.5
141
2.5
143
0.03937007874016
147
1.5
171
3
172
1
271
2
272
2
274
3
278
44
283
0
284
8
340
4E
  0
ENDTAB
  0
TABLE
  2
BLOCK_RECORD
  5
1
100
AcDbSymbolTable
 70
1
  0
BLOCK_RECORD
  5
1F
100
AcDbSymbolTableRecord
100
AcDbBlockTableRecord
  2
*Model_Space
340
22
  0
BLOCK_RECORD
  5
1B
100
AcDbSymbolTableRecord
100
AcDbBlockTableRecord
  2
*Paper_Space
340
1E
  0
BLOCK_RECORD
  5
23
100
AcDbSymbolTableRecord
100
AcDbBlockTableRecord
  2
*Paper_Space0
340
26
  0
BLOCK_RECORD
  5
7C
100
AcDbSymbolTableRecord
100
AcDbBlockTableRecord
  2
GENAXEH
340
0
  0
BLOCK_RECORD
  5
7D
100
AcDbSymbolTableRecord
100
AcDbBlockTableRecord
  2
GOPR3348
340
0
  0
ENDTAB
  0
ENDSEC
  0
SECTION
  2
BLOCKS
  0
BLOCK
  5
20
100
AcDbEntity
  8
0
100
AcDbBlockBegin
  2
*Model_Space
 70
0
 10
0.0
 20
0.0
 30
0.0
  3
*Model_Space
  1

  0
ENDBLK
  5
21
100
AcDbEntity
  8
0
100
AcDbBlockEnd
  0
BLOCK
  5
1C
100
AcDbEntity
 67
1
  8
0
100
AcDbBlockBegin
  2
*Paper_Space
 70
0
 10
0.0
 20
0.0
 30
0.0
  3
*Paper_Space
  1

  0
ENDBLK
  5
1D
100
AcDbEntity
 67
1
  8
0
100
AcDbBlockEnd
  0
BLOCK
  5
24
100
AcDbEntity
  8
0
100
AcDbBlockBegin
  2
*Paper_Space0
 70
0
 10
0.0
 20
0.0
 30
0.0
  3
*Paper_Space0
  1

  0
ENDBLK
  5
25
100
AcDbEntity
  8
0
100
AcDbBlockEnd
  0
BLOCK
  5
7E
100
AcDbEntity
  8
0
100
AcDbBlockBegin
  2
GENAXEH
 70
0
 10
0.0
 20
0.0
 30
0.0
  3
GENAXEH
  1

  0
LINE
  5
7F
100
AcDbEntity
100
AcDbLine
  8
0
 62
256
370
-1
  6
BYLAYER
 10
-1.0
 20
0.0
 30
0.0
 11
1.0
 21
0.0
 31
0.0
  0
ENDBLK
  5
80
100
AcDbEntity
  8
0
100
AcDbBlockEnd
  0
BLOCK
  5
81
100
AcDbEntity
  8
0
100
AcDbBlockBegin
  2
GOPR3348
 70
0
 10
0.0
 20
0.0
 30
0.0
  3
GOPR3348
  1

  0
ENDBLK
  5
82
100
AcDbEntity
  8
0
100
AcDbBlockEnd
  0
ENDSEC
  0
SECTION
  2
ENTITIES
  0
LINE
  5
83
100
AcDbEntity
100
AcDbLine
  8
0
 62
256
370
-1
  6
BYLAYER
 10
76.3785477684594696
 20
99.9533745908527749
 30
0.0
 11
76.3785477684594696
 21
99.9533745908527749
 31
0.0
  0
CIRCLE
  5
84
100
AcDbEntity
100
AcDbCircle
  8
HOLE_M3
 62
256
370
-1
  6
BYLAYER
 10
366.9999999999998863
 20
89.9999999999999432
 30
0.0
 40
1.5
  0
CIRCLE
  5
85
100
AcDbEntity
100
AcDbCircle
  8
HOLE_3_5_MM
 62
256
370
-1
  6
BYLAYER
 10
262.5000000000001137
 20
305.4999999999986926
 30
0.0
 40
1.5
  0
CIRCLE
  5
86
100
AcDbEntity
100
AcDbCircle
  8
HOLE_3_5_MM
 62
256
370
-1
  6
BYLAYER
 10
262.5000000000002274
 20
285.4999999999986926
 30
0.0
 40
1.5
  0
CIRCLE
  5
87
100
AcDbEntity
100
AcDbCircle
  8
HOLE_3_5_MM
 62
256
370
-1
  6
BYLAYER
 10
195.5000000000003979
 20
115.4999999999987068
 30
0.0
 40
1.5
  0
CIRCLE
  5
88
100
AcDbEntity
100
AcDbCircle
  8
HOLE_3_5_MM
 62
256
370
-1
  6
BYLAYER
 10
195.5
 20
135.4999999999986926
 30
0.0
 40
1.5
  0
CIRCLE
  5
89
100
AcDbEntity
100
AcDbCircle
  8
HOLE_M3
 62
256
370
-1
  6
BYLAYER
 10
300.0000000000001137
 20
314.9999999999986926
 30
0.0
 40
1.5
  0
CIRCLE
  5
8A
100
AcDbEntity
100
AcDbCircle
  8
HOLE_M3
 62
256
370
-1
  6
BYLAYER
 10
91.0000000000001847
 20
314.9999999999988063
 30
0.0
 40
1.5
  0
LINE
  5
8B
100
AcDbEntity
100
AcDbLine
  8
HOLE_3_5_MM
 62
256
370
-1
  6
BYLAYER
 10
325.9289321881345813
 20
91.9289321881345245
 30
0.0
 11
326.0000000000001137
 21
92.0000000000000568
 31
0.0
  0
CIRCLE
  5
8C
100
AcDbEntity
100
AcDbCircle
  8
HOLE_3_5_MM
 62
256
370
-1
  6
BYLAYER
 10
319.9999999999997726
 20
8.9999999999999432
 30
0.0
 40
1.5
  0
CIRCLE
  5
8D
100
AcDbEntity
100
AcDbCircle
  8
HOLE_3_5_MM
 62
256
370
-1
  6
BYLAYER
 10
50.0000000000001066
 20
8.9999999999999432
 30
0.0
 40
1.5
  0
CIRCLE
  5
8E
100
AcDbEntity
100
AcDbCircle
  8
HOLE_3_5_MM
 62
256
370
-1
  6
BYLAYER
 10
139.9999999999998863
 20
9.0000000000000568
 30
0.0
 40
1.5
  0
CIRCLE
  5
8F
100
AcDbEntity
100
AcDbCircle
  8
HOLE_3_5_MM
 62
256
370
-1
  6
BYLAYER
 10
229.9999999999998863
 20
9.0
 30
0.0
 40
1.5
  0
CIRCLE
  5
90
100
AcDbEntity
100
AcDbCircle
  8
HOLE_3_5_MM_COUNTER_SUNK
 62
256
370
-1
  6
BYLAYER
 10
5.999999999999801
 20
44.0000000000000568
 30
0.0
 40
1.5
  0
CIRCLE
  5
91
100
AcDbEntity
100
AcDbCircle
  8
HOLE_3_5_MM_COUNTER_SUNK
 62
256
370
-1
  6
BYLAYER
 10
22.5000000000000284
 20
363.9999999999998863
 30
0.0
 40
1.5
  0
CIRCLE
  5
92
100
AcDbEntity
100
AcDbCircle
  8
HOLE_M3
 62
256
370
-1
  6
BYLAYER
 10
197.9929631039559865
 20
284.4999999999986926
 30
0.0
 40
1.5
  0
LINE
  5
93
100
AcDbEntity
100
AcDbLine
  8
HOLE_M3
 62
256
370
-1
  6
BYLAYER
 10
366.9999999999998863
 20
89.9999999999999432
 30
0.0
 11
366.9999999999998863
 21
89.9999999999999432
 31
0.0
  0
LINE
  5
94
100
AcDbEntity
100
AcDbLine
  8
HOLE_M3
 62
256
370
-1
  6
BYLAYER
 10
366.9999999999998863
 20
89.9999999999999432
 30
0.0
 11
366.9999999999998863
 21
89.9999999999999432
 31
0.0
  0
CIRCLE
  5
95
100
AcDbEntity
100
AcDbCircle
  8
HOLE_M3
 62
256
370
-1
  6
BYLAYER
 10
195.5000000000001137
 20
105.9999999999987068
 30
0.0
 40
1.5
  0
CIRCLE
  5
96
100
AcDbEntity
100
AcDbCircle
  8
HOLE_M3
 62
256
370
-1
  6
BYLAYER
 10
318.6999999999999886
 20
91.0
 30
0.0
 40
1.5
  0
CIRCLE
  5
97
100
AcDbEntity
100
AcDbCircle
  8
HOLE_M3
 62
256
370
-1
  6
BYLAYER
 10
366.9999999999997726
 20
172.399999999999892
 30
0.0
 40
1.5
  0
CIRCLE
  5
98
100
AcDbEntity
100
AcDbCircle
  8
HOLE_3_5_MM
 62
256
370
-1
  6
BYLAYER
 10
128.4999999999998863
 20
305.4999999999986926
 30
0.0
 40
1.5
  0
CIRCLE
  5
99
100
AcDbEntity
100
AcDbCircle
  8
HOLE_3_5_MM
 62
256
370
-1
  6
BYLAYER
 10
128.5000000000001137
 20
285.4999999999989768
 30
0.0
 40
1.5
  0
ARC
  5
9A
100
AcDbEntity
  8
HOLE_M3
 62
256
370
-1
  6
BYLAYER
100
AcDbCircle
 10
366.9999999999998863
 20
89.9999999999999432
 30
0.0
 40
0.0
100
AcDbArc
 50
0.0
 51
0.0
  0
CIRCLE
  5
9B
100
AcDbEntity
100
AcDbCircle
  8
HOLE_3_5_MM_COUNTER_SUNK
 62
256
370
-1
  6
BYLAYER
 10
7.4999999999999716
 20
364.0
 30
0.0
 40
1.5
  0
CIRCLE
  5
9C
100
AcDbEntity
100
AcDbCircle
  8
HOLE_3_5_MM_COUNTER_SUNK
 62
256
370
-1
  6
BYLAYER
 10
347.5
 20
364.0000000000003979
 30
0.0
 40
1.5
  0
CIRCLE
  5
9D
100
AcDbEntity
100
AcDbCircle
  8
HOLE_3_5_MM_COUNTER_SUNK
 62
256
370
-1
  6
BYLAYER
 10
362.5
 20
364.0000000000005116
 30
0.0
 40
1.5
  0
CIRCLE
  5
9E
100
AcDbEntity
100
AcDbCircle
  8
HOLE_3_5_MM_COUNTER_SUNK
 62
256
370
-1
  6
BYLAYER
 10
31.999999999999801
 20
44.0000000000001066
 30
0.0
 40
1.5
  0
CIRCLE
  5
9F
100
AcDbEntity
100
AcDbCircle
  8
HOLE_3_5_MM_COUNTER_SUNK
 62
256
370
-1
  6
BYLAYER
 10
5.9999999999998579
 20
6.0000000000000568
 30
0.0
 40
1.5
  0
CIRCLE
  5
A0
100
AcDbEntity
100
AcDbCircle
  8
HOLE_3_5_MM_COUNTER_SUNK
 62
256
370
-1
  6
BYLAYER
 10
363.9999999999998863
 20
6.0000000000001137
 30
0.0
 40
1.5
  0
CIRCLE
  5
A1
100
AcDbEntity
100
AcDbCircle
  8
HOLE_3_5_MM_COUNTER_SUNK
 62
256
370
-1
  6
BYLAYER
 10
364.0
 20
44.0000000000002274
 30
0.0
 40
1.5
  0
ARC
  5
A2
100
AcDbEntity
  8
HOLE_M3
 62
256
370
-1
  6
BYLAYER
100
AcDbCircle
 10
366.9999999999998863
 20
89.9999999999999432
 30
0.0
 40
0.0
100
AcDbArc
 50
0.0
 51
0.0
  0
CIRCLE
  5
A3
100
AcDbEntity
100
AcDbCircle
  8
HOLE_3_5_MM_COUNTER_SUNK
 62
256
370
-1
  6
BYLAYER
 10
338.0
 20
44.0000000000002274
 30
0.0
 40
1.5
  0
CIRCLE
  5
A4
100
AcDbEntity
100
AcDbCircle
  8
HOLE_8MM_5MM_DEEP
 62
256
370
-1
  6
BYLAYER
 10
116.5
 20
260.9999999999989768
 30
0.0
 40
4.0
  0
CIRCLE
  5
A5
100
AcDbEntity
100
AcDbCircle
  8
0
 62
256
370
-1
  6
BYLAYER
 10
87.9999999999999574
 20
242.9999999999988916
 30
0.0
 40
6.7000000000000002
  0
CIRCLE
  5
A6
100
AcDbEntity
100
AcDbCircle
  8
0
 62
256
370
-1
  6
BYLAYER
 10
87.9999999999999574
 20
108.9999999999989058
 30
0.0
 40
6.7000000000000002
  0
LINE
  5
A7
100
AcDbEntity
100
AcDbLine
  8
0
 62
256
370
-1
  6
BYLAYER
 10
293.6214522315411273
 20
250.0466254091448093
 30
0.0
 11
293.6214522315411273
 21
250.0466254091448093
 31
0.0
  0
CIRCLE
  5
A8
100
AcDbEntity
100
AcDbCircle
  8
HOLE_8MM_5MM_DEEP
 62
256
370
-1
  6
BYLAYER
 10
253.5000000000005116
 20
258.9999999999986926
 30
0.0
 40
4.0
  0
CIRCLE
  5
A9
100
AcDbEntity
100
AcDbCircle
  8
HOLE_8MM_5MM_DEEP
 62
256
370
-1
  6
BYLAYER
 10
253.5000000000005116
 20
88.9999999999987068
 30
0.0
 40
4.0
  0
CIRCLE
  5
AA
100
AcDbEntity
100
AcDbCircle
  8
0
 62
256
370
-1
  6
BYLAYER
 10
282.0000000000005116
 20
106.9999999999988063
 30
0.0
 40
6.7000000000000002
  0
CIRCLE
  5
AB
100
AcDbEntity
100
AcDbCircle
  8
0
 62
256
370
-1
  6
BYLAYER
 10
282.0000000000005116
 20
240.9999999999988063
 30
0.0
 40
6.7000000000000002
  0
CIRCLE
  5
AC
100
AcDbEntity
100
AcDbCircle
  8
HOLE_M3
 62
256
370
-1
  6
BYLAYER
 10
23.9999999999998899
 20
91.0
 30
0.0
 40
1.5
  0
CIRCLE
  5
AD
100
AcDbEntity
100
AcDbCircle
  8
HOLE_M3
 62
256
370
-1
  6
BYLAYER
 10
170.4929631039557876
 20
284.4999999999986926
 30
0.0
 40
1.5
  0
LWPOLYLINE
  5
AE
  8
0
 62
256
370
-1
  6
BYLAYER
100
AcDbEntity
100
AcDbPolyline
 90
9
 70
0
 10
126.0
 20
260.9999999999989768
 30
0.0
 42
0.4142135623730959
 10
116.4999999999999005
 20
270.4999999999989768
 30
0.0
 10
74.4999999999999432
 20
270.49999999999892
 30
0.0
 42
0.4142135623730941
 10
64.9999999999999716
 20
260.99999999999892
 30
0.0
 10
64.9999999999999716
 20
90.9999999999989768
 30
0.0
 42
0.414213562373095
 10
74.4999999999999716
 20
81.4999999999989626
 30
0.0
 10
116.4999999999999005
 20
81.499999999998991
 30
0.0
 42
0.414213562373095
 10
125.9999999999999005
 20
90.999999999998991
 30
0.0
 10
126.0
 20
260.9999999999989768
 30
0.0
  0
CIRCLE
  5
AF
100
AcDbEntity
100
AcDbCircle
  8
HOLE_M3
 62
256
370
-1
  6
BYLAYER
 10
206.2500000000001137
 20
257.1999999999986812
 30
0.0
 40
1.5
  0
LWPOLYLINE
  5
B0
  8
MILL_4_2MM_DEEP
 62
256
370
-1
  6
BYLAYER
100
AcDbEntity
100
AcDbPolyline
 90
5
 70
0
 10
196.5000000000001137
 20
213.799999999998704
 30
0.0
 10
196.5000000000001137
 20
197.799999999998704
 30
0.0
 42
0.9999999999999994
 10
203.5000000000001137
 20
197.799999999998704
 30
0.0
 10
203.5000000000001137
 20
213.799999999998704
 30
0.0
 42
0.9999999999999999
 10
196.5000000000001137
 20
213.799999999998704
 30
0.0
  0
LWPOLYLINE
  5
B1
  8
MILL_4_2MM_DEEP
 62
256
370
-1
  6
BYLAYER
100
AcDbEntity
100
AcDbPolyline
 90
5
 70
0
 10
209.0000000000001137
 20
213.799999999998704
 30
0.0
 10
209.0000000000001137
 20
197.799999999998704
 30
0.0
 42
0.9999999999999994
 10
216.0000000000001137
 20
197.799999999998704
 30
0.0
 10
216.0000000000001137
 20
213.799999999998704
 30
0.0
 42
0.9999999999999999
 10
209.0000000000001137
 20
213.799999999998704
 30
0.0
  0
LWPOLYLINE
  5
B2
  8
MILL_4_2MM_DEEP
 62
256
370
-1
  6
BYLAYER
100
AcDbEntity
100
AcDbPolyline
 90
9
 70
0
 10
193.5000000000001137
 20
249.0999999999986869
 30
0.0
 42
-0.4142135623730944
 10
196.5000000000001137
 20
252.0999999999986869
 30
0.0
 10
213.0000000000001137
 20
252.0999999999986869
 30
0.0
 42
-0.414213562373095
 10
216.0000000000001137
 20
249.0999999999986869
 30
0.0
 10
216.0000000000001137
 20
241.299999999998704
 30
0.0
 42
-0.414213562373095
 10
213.0000000000001137
 20
238.299999999998704
 30
0.0
 10
196.5000000000001137
 20
238.299999999998704
 30
0.0
 42
-0.414213562373095
 10
193.5000000000001137
 20
241.299999999998704
 30
0.0
 10
193.5000000000001137
 20
249.0999999999986869
 30
0.0
  0
LWPOLYLINE
  5
B3
  8
MILL_3MM_DEEP
 62
256
370
-1
  6
BYLAYER
100
AcDbEntity
100
AcDbPolyline
 90
9
 70
0
 10
199.7500000000001137
 20
207.1999999999987097
 30
0.0
 42
-0.414213562373095
 10
202.7500000000001137
 20
210.1999999999987097
 30
0.0
 10
210.0000000000001137
 20
210.1999999999987097
 30
0.0
 42
-0.414213562373095
 10
213.0000000000001137
 20
207.1999999999987097
 30
0.0
 10
213.0000000000001137
 20
204.3999999999986983
 30
0.0
 42
-0.414213562373095
 10
210.0000000000001137
 20
201.3999999999986983
 30
0.0
 10
202.7500000000001137
 20
201.3999999999986983
 30
0.0
 42
-0.414213562373095
 10
199.7500000000001137
 20
204.3999999999986983
 30
0.0
 10
199.7500000000001137
 20
207.1999999999987097
 30
0.0
  0
LWPOLYLINE
  5
B4
  8
MILL_4_2MM_DEEP
 62
256
370
-1
  6
BYLAYER
100
AcDbEntity
100
AcDbPolyline
 90
5
 70
0
 10
154.3837348207314903
 20
64.7000000000000597
 30
0.0
 10
154.3837348207314903
 20
80.6999999999999886
 30
0.0
 42
-0.9999999999999994
 10
161.3837348207314903
 20
80.6999999999999886
 30
0.0
 10
161.3837348207314903
 20
64.7000000000000455
 30
0.0
 42
-0.9999999999999999
 10
154.3837348207314903
 20
64.7000000000000597
 30
0.0
  0
CIRCLE
  5
B5
100
AcDbEntity
100
AcDbCircle
  8
HOLE_4MM_5MM_DEEP
 62
256
370
-1
  6
BYLAYER
 10
114.1337348207315046
 20
65.5000000000000568
 30
0.0
 40
2.0
  0
CIRCLE
  5
B6
100
AcDbEntity
100
AcDbCircle
  8
HOLE_3_5_MM_COUNTER_SUNK
 62
256
370
-1
  6
BYLAYER
 10
151.6337348207314903
 20
60.6999999999999531
 30
0.0
 40
1.5
  0
CIRCLE
  5
B7
100
AcDbEntity
100
AcDbCircle
  8
HOLE_3_5_MM_COUNTER_SUNK
 62
256
370
-1
  6
BYLAYER
 10
151.6337348207314903
 20
84.7000000000000171
 30
0.0
 40
1.5
  0
CIRCLE
  5
B8
100
AcDbEntity
100
AcDbCircle
  8
HOLE_3_5_MM_COUNTER_SUNK
 62
256
370
-1
  6
BYLAYER
 10
93.1337348207314761
 20
60.7000000000000526
 30
0.0
 40
1.5
  0
LWPOLYLINE
  5
B9
  8
MILL_3MM_DEEP
 62
256
370
-1
  6
BYLAYER
100
AcDbEntity
100
AcDbPolyline
 90
9
 70
0
 10
145.1337348207314903
 20
71.3000000000000114
 30
0.0
 42
0.414213562373095
 10
148.1337348207314903
 20
68.3000000000000114
 30
0.0
 10
155.3837348207314903
 20
68.2999999999999829
 30
0.0
 42
0.414213562373095
 10
158.3837348207314903
 20
71.3000000000000114
 30
0.0
 10
158.3837348207314903
 20
74.0999999999999943
 30
0.0
 42
0.414213562373095
 10
155.3837348207314903
 20
77.0999999999999943
 30
0.0
 10
148.1337348207314903
 20
77.0999999999999659
 30
0.0
 42
0.414213562373095
 10
145.1337348207314903
 20
74.1000000000000512
 30
0.0
 10
145.1337348207314903
 20
71.3000000000000114
 30
0.0
  0
LWPOLYLINE
  5
BA
  8
MILL_4_2MM_DEEP
 62
256
370
-1
  6
BYLAYER
100
AcDbEntity
100
AcDbPolyline
 90
9
 70
0
 10
129.1337348207314903
 20
83.7000000000000455
 30
0.0
 42
0.414213562373095
 10
126.1337348207315046
 20
80.7000000000000171
 30
0.0
 10
126.1337348207315046
 20
64.7000000000000739
 30
0.0
 42
0.414213562373095
 10
129.1337348207314903
 20
61.6999999999998892
 30
0.0
 10
145.8837348207314903
 20
61.7000000000004079
 30
0.0
 42
0.414213562373095
 10
148.8837348207314903
 20
64.7000000000000171
 30
0.0
 10
148.8837348207314903
 20
80.7000000000000455
 30
0.0
 42
0.414213562373095
 10
145.8837348207314903
 20
83.7000000000000455
 30
0.0
 10
129.1337348207314903
 20
83.7000000000000455
 30
0.0
  0
LWPOLYLINE
  5
BB
  8
0
 62
256
370
-1
  6
BYLAYER
100
AcDbEntity
100
AcDbPolyline
 90
13
 70
0
 10
152.3837348207314903
 20
54.0000000000000071
 30
0.0
 42
0.414213562373095
 10
157.3837348207314903
 20
58.9999999999999929
 30
0.0
 10
157.3837348207314903
 20
93.0
 30
0.0
 42
0.414213562373095
 10
152.3837348207314903
 20
98.0000000000000284
 30
0.0
 10
150.8837348207314903
 20
98.0
 30
0.0
 42
0.414213562373095
 10
145.8837348207314903
 20
92.9999999999999716
 30
0.0
 10
145.8837348207314903
 20
75.0
 30
0.0
 42
-0.414213562373095
 10
140.8837348207314903
 20
70.0
 30
0.0
 10
93.1337348207314761
 20
70.0000000000000284
 30
0.0
 42
0.414213562373095
 10
88.1337348207314761
 20
65.0000000000000284
 30
0.0
 10
88.1337348207314761
 20
59.0000000000000284
 30
0.0
 42
0.414213562373095
 10
93.1337348207314761
 20
54.0000000000000284
 30
0.0
 10
152.3837348207314903
 20
54.0000000000000071
 30
0.0
  0
CIRCLE
  5
BC
100
AcDbEntity
100
AcDbCircle
  8
HOLE_4MM_5MM_DEEP
 62
256
370
-1
  6
BYLAYER
 10
220.8837348207314051
 20
54.5000000000000071
 30
0.0
 40
2.0
  0
CIRCLE
  5
BD
100
AcDbEntity
100
AcDbCircle
  8
HOLE_3_5_MM_COUNTER_SUNK
 62
256
370
-1
  6
BYLAYER
 10
183.3837348207314051
 20
49.6999999999999886
 30
0.0
 40
1.5
  0
CIRCLE
  5
BE
100
AcDbEntity
100
AcDbCircle
  8
HOLE_3_5_MM_COUNTER_SUNK
 62
256
370
-1
  6
BYLAYER
 10
183.3837348207314051
 20
73.7000000000000028
 30
0.0
 40
1.5
  0
CIRCLE
  5
BF
100
AcDbEntity
100
AcDbCircle
  8
HOLE_3_5_MM_COUNTER_SUNK
 62
256
370
-1
  6
BYLAYER
 10
241.8837348207314051
 20
49.6999999999999886
 30
0.0
 40
1.5
  0
LWPOLYLINE
  5
C0
  8
0
 62
256
370
-1
  6
BYLAYER
100
AcDbEntity
100
AcDbPolyline
 90
13
 70
0
 10
182.6337348207314051
 20
42.9999999999999929
 30
0.0
 42
-0.414213562373095
 10
177.6337348207314051
 20
48.0000000000000426
 30
0.0
 10
177.6337348207314051
 20
81.9999999999999858
 30
0.0
 42
-0.414213562373095
 10
182.6337348207314051
 20
87.0000000000000142
 30
0.0
 10
184.1337348207314051
 20
86.9999999999999574
 30
0.0
 42
-0.414213562373095
 10
189.1337348207314051
 20
82.0000000000000142
 30
0.0
 10
189.1337348207314051
 20
63.9999999999999929
 30
0.0
 42
0.414213562373095
 10
194.1337348207314051
 20
59.0000000000000071
 30
0.0
 10
241.8837348207314051
 20
59.0000000000000071
 30
0.0
 42
-0.414213562373095
 10
246.8837348207314051
 20
54.0
 30
0.0
 10
246.8837348207312914
 20
48.0
 30
0.0
 42
-0.414213562373095
 10
241.8837348207314051
 20
43.0
 30
0.0
 10
182.6337348207314051
 20
42.9999999999999929
 30
0.0
  0
LWPOLYLINE
  5
C1
  8
MILL_4_2MM_DEEP
 62
256
370
-1
  6
BYLAYER
100
AcDbEntity
100
AcDbPolyline
 90
9
 70
0
 10
208.8837348207314051
 20
57.7999999999999972
 30
0.0
 42
-0.4142135623730944
 10
205.8837348207314051
 20
54.7999999999999687
 30
0.0
 10
187.6337348207314051
 20
54.7999999999999972
 30
0.0
 42
-0.414213562373095
 10
184.6337348207314051
 20
57.7999999999999972
 30
0.0
 10
184.6337348207314051
 20
65.5999999999999517
 30
0.0
 42
-0.414213562373095
 10
187.6337348207314051
 20
68.5999999999999801
 30
0.0
 10
205.8837348207314051
 20
68.5999999999999517
 30
0.0
 42
-0.414213562373095
 10
208.8837348207314051
 20
65.5999999999999801
 30
0.0
 10
208.8837348207314051
 20
57.7999999999999972
 30
0.0
  0
CIRCLE
  5
C2
100
AcDbEntity
100
AcDbCircle
  8
HOLE_3_5_MM_COUNTER_SUNK
 62
256
370
-1
  6
BYLAYER
 10
184.2500000000001137
 20
185.9999999999986926
 30
0.0
 40
1.5
  0
CIRCLE
  5
C3
100
AcDbEntity
100
AcDbCircle
  8
HOLE_3_5_MM_COUNTER_SUNK
 62
256
370
-1
  6
BYLAYER
 10
184.2500000000001137
 20
216.9999999999986926
 30
0.0
 40
1.5
  0
CIRCLE
  5
C4
100
AcDbEntity
100
AcDbCircle
  8
HOLE_M3
 62
256
370
-1
  6
BYLAYER
 10
147.7500000000001137
 20
225.4999999999986926
 30
0.0
 40
1.5
  0
LINE
  5
C5
100
AcDbEntity
100
AcDbLine
  8
0
 62
256
370
-1
  6
BYLAYER
 10
168.7500000000001137
 20
213.0599999999986949
 30
0.0
 11
168.7500000000001137
 21
213.0599999999986949
 31
0.0
  0
CIRCLE
  5
C6
100
AcDbEntity
100
AcDbCircle
  8
HOLE_4MM_5MM_DEEP
 62
256
370
-1
  6
BYLAYER
 10
168.7500000000001137
 20
212.9999999999986926
 30
0.0
 40
2.0
  0
LINE
  5
C7
100
AcDbEntity
100
AcDbLine
  8
0
 62
256
370
-1
  6
BYLAYER
 10
184.2500000000001137
 20
185.9999999999986926
 30
0.0
 11
184.2500000000001137
 21
185.9999999999986926
 31
0.0
  0
CIRCLE
  5
C8
100
AcDbEntity
100
AcDbCircle
  8
HOLE_3_5_MM_COUNTER_SUNK
 62
256
370
-1
  6
BYLAYER
 10
153.2500000000001137
 20
216.9999999999986926
 30
0.0
 40
1.5
  0
CIRCLE
  5
C9
100
AcDbEntity
100
AcDbCircle
  8
HOLE_M3
 62
256
370
-1
  6
BYLAYER
 10
206.2500000000001137
 20
217.799999999998704
 30
0.0
 40
1.5
  0
CIRCLE
  5
CA
100
AcDbEntity
100
AcDbCircle
  8
HOLE_M3
 62
256
370
-1
  6
BYLAYER
 10
206.2500000000001137
 20
193.799999999998704
 30
0.0
 40
1.5
  0
CIRCLE
  5
CB
100
AcDbEntity
100
AcDbCircle
  8
HOLE_M3
 62
256
370
-1
  6
BYLAYER
 10
189.7500000000001137
 20
225.4999999999986926
 30
0.0
 40
1.5
  0
LINE
  5
CC
100
AcDbEntity
100
AcDbLine
  8
0
 62
256
370
-1
  6
BYLAYER
 10
153.2500000000001137
 20
216.9999999999986926
 30
0.0
 11
153.2500000000001137
 21
216.9999999999986926
 31
0.0
  0
CIRCLE
  5
CD
100
AcDbEntity
100
AcDbCircle
  8
HOLE_M3
 62
256
370
-1
  6
BYLAYER
 10
147.7500000000001137
 20
217.799999999998704
 30
0.0
 40
1.5
  0
ARC
  5
CE
100
AcDbEntity
  8
0
 62
256
370
-1
  6
BYLAYER
100
AcDbCircle
 10
212.0000000000001137
 20
225.4999999999986926
 30
0.0
 40
0.0
100
AcDbArc
 50
0.0
 51
0.0
  0
LINE
  5
CF
100
AcDbEntity
100
AcDbLine
  8
0
 62
256
370
-1
  6
BYLAYER
 10
153.2500000000001137
 20
233.9999999999986926
 30
0.0
 11
153.2500000000001137
 21
233.9999999999986926
 31
0.0
  0
CIRCLE
  5
D0
100
AcDbEntity
100
AcDbCircle
  8
HOLE_M3
 62
256
370
-1
  6
BYLAYER
 10
147.7500000000001137
 20
233.1999999999987097
 30
0.0
 40
1.5
  0
CIRCLE
  5
D1
100
AcDbEntity
100
AcDbCircle
  8
HOLE_3_5_MM_COUNTER_SUNK
 62
256
370
-1
  6
BYLAYER
 10
184.250000000000199
 20
264.9999999999986926
 30
0.0
 40
1.5
  0
CIRCLE
  5
D2
100
AcDbEntity
100
AcDbCircle
  8
HOLE_3_5_MM_COUNTER_SUNK
 62
256
370
-1
  6
BYLAYER
 10
184.2500000000001137
 20
233.9999999999986926
 30
0.0
 40
1.5
  0
LINE
  5
D3
100
AcDbEntity
100
AcDbLine
  8
0
 62
256
370
-1
  6
BYLAYER
 10
168.7500000000001137
 20
237.9399999999986903
 30
0.0
 11
168.7500000000001137
 21
237.9399999999986903
 31
0.0
  0
CIRCLE
  5
D4
100
AcDbEntity
100
AcDbCircle
  8
HOLE_4MM_5MM_DEEP
 62
256
370
-1
  6
BYLAYER
 10
168.7500000000001137
 20
237.9999999999986926
 30
0.0
 40
2.0
  0
LINE
  5
D5
100
AcDbEntity
100
AcDbLine
  8
0
 62
256
370
-1
  6
BYLAYER
 10
184.250000000000199
 20
264.9999999999986926
 30
0.0
 11
184.250000000000199
 21
264.9999999999986926
 31
0.0
  0
CIRCLE
  5
D6
100
AcDbEntity
100
AcDbCircle
  8
MILL_4_2MM_DEEP
 62
256
370
-1
  6
BYLAYER
 10
153.2500000000001137
 20
233.9999999999986926
 30
0.0
 40
1.5
  0
CIRCLE
  5
D7
100
AcDbEntity
100
AcDbCircle
  8
HOLE_M3
 62
256
370
-1
  6
BYLAYER
 10
206.2500000000001137
 20
233.1999999999987097
 30
0.0
 40
1.5
  0
LINE
  5
D8
100
AcDbEntity
100
AcDbLine
  8
0
 62
256
370
-1
  6
BYLAYER
 10
251.9999999999996874
 20
27.9999999999999396
 30
0.0
 11
251.9999999999996874
 21
27.9999999999999396
 31
0.0
  0
CIRCLE
  5
D9
100
AcDbEntity
100
AcDbCircle
  8
HOLE_M3
 62
256
370
-1
  6
BYLAYER
 10
350.8999999999999773
 20
218.2499999999998863
 30
0.0
 40
1.5
  0
LWPOLYLINE
  5
DA
  8
MILL_4_2MM_DEEP
 62
256
370
-1
  6
BYLAYER
100
AcDbEntity
100
AcDbPolyline
 90
9
 70
0
 10
181.6337348207314051
 20
57.7999999999999972
 30
0.0
 42
-0.4142135623730944
 10
178.6337348207314051
 20
54.7999999999999972
 30
0.0
 10
174.3837348207314903
 20
54.7999999999999687
 30
0.0
 42
-0.414213562373095
 10
171.3837348207314903
 20
57.7999999999999687
 30
0.0
 10
171.3837348207314903
 20
65.5999999999999801
 30
0.0
 42
-0.414213562373095
 10
174.3837348207314903
 20
68.5999999999999517
 30
0.0
 10
178.6337348207314051
 20
68.5999999999999801
 30
0.0
 42
-0.414213562373095
 10
181.6337348207314051
 20
65.5999999999999801
 30
0.0
 10
181.6337348207314051
 20
57.7999999999999972
 30
0.0
  0
LWPOLYLINE
  5
DB
  8
MILL_3MM_DEEP
 62
256
370
-1
  6
BYLAYER
100
AcDbEntity
100
AcDbPolyline
 90
9
 70
0
 10
190.8837348207314051
 20
65.5999999999999801
 30
0.0
 42
0.414213562373095
 10
187.8837348207314051
 20
68.6000000000000085
 30
0.0
 10
178.6337348207314051
 20
68.6000000000000938
 30
0.0
 42
0.414213562373095
 10
175.6337348207314051
 20
65.5999999999999801
 30
0.0
 10
175.6337348207314051
 20
57.8000000000001108
 30
0.0
 42
0.414213562373095
 10
178.6337348207314051
 20
54.8000000000001108
 30
0.0
 10
187.8837348207314051
 20
54.8000000000001108
 30
0.0
 42
0.414213562373095
 10
190.8837348207314051
 20
57.8000000000000824
 30
0.0
 10
190.8837348207314051
 20
65.5999999999999801
 30
0.0
  0
LWPOLYLINE
  5
DC
  8
0
 62
256
370
-1
  6
BYLAYER
100
AcDbEntity
100
AcDbPolyline
 90
21
 70
0
 10
314.9999999999998863
 20
318.9999999999985789
 30
0.0
 42
0.414213562373095
 10
304.0000000000001137
 20
329.9999999999986926
 30
0.0
 10
65.9999999999997584
 20
329.9999999999985789
 30
0.0
 42
0.414213562373095
 10
54.9999999999997371
 20
318.9999999999988063
 30
0.0
 10
54.9999999999983231
 20
54.9999999999999432
 30
0.0
 42
0.414213562373095
 10
65.99999999999811
 20
44.0000000000000568
 30
0.0
 10
107.9000000000000057
 20
44.0
 30
0.0
 42
-0.414213562373095
 10
112.8999999999998067
 20
38.9999999999999432
 30
0.0
 10
112.8999999999998067
 20
28.0
 30
0.0
 42
0.9999999999999999
 10
123.0999999999997954
 20
28.0000000000001101
 30
0.0
 42
-0.0039715938112304
 10
123.1162651792686944
 20
30.0476568705321903
 30
0.0
 42
-0.4095681928341146
 10
126.1158866258331983
 20
33.0
 30
0.0
 10
243.8841133741661906
 20
33.0
 30
0.0
 42
-0.4095681928341147
 10
246.8837348207310924
 20
30.0476568705328795
 30
0.0
 42
-0.0039715938112304
 10
246.899999999999693
 20
27.9999999999999396
 30
0.0
 42
0.9999999999999999
 10
257.0999999999996817
 20
28.0
 30
0.0
 10
257.0999999999996248
 20
38.9999999999999432
 30
0.0
 42
-0.414213562373095
 10
262.0999999999997954
 20
44.0
 30
0.0
 10
304.0000000000006253
 20
44.0
 30
0.0
 42
0.414213562373095
 10
315.0000000000003979
 20
54.9999999999999432
 30
0.0
 10
314.9999999999998863
 20
318.9999999999985789
 30
0.0
  0
LWPOLYLINE
  5
DD
  8
0
 62
256
370
-1
  6
BYLAYER
100
AcDbEntity
100
AcDbPolyline
 90
9
 70
0
 10
206.3628763929228001
 20
130.799999999998704
 30
0.0
 42
-0.414213562373095
 10
210.3628763929229137
 20
126.799999999998704
 30
0.0
 10
210.3628763929229137
 20
124.1999999999986954
 30
0.0
 42
-0.414213562373095
 10
206.3628763929228001
 20
120.1999999999986954
 30
0.0
 10
183.3628763929228001
 20
120.1999999999986954
 30
0.0
 42
-0.414213562373095
 10
179.3628763929228001
 20
124.1999999999986954
 30
0.0
 10
179.3628763929228001
 20
126.799999999998704
 30
0.0
 42
-0.414213562373095
 10
183.3628763929226864
 20
130.799999999998704
 30
0.0
 10
206.3628763929229137
 20
130.799999999998704
 30
0.0
  0
LINE
  5
DE
100
AcDbEntity
100
AcDbLine
  8
HOLE_M3
 62
256
370
-1
  6
BYLAYER
 10
184.2500000000001137
 20
233.9999999999986926
 30
0.0
 11
184.2500000000001137
 21
233.9999999999986926
 31
0.0
  0
LWPOLYLINE
  5
DF
  8
0
 62
256
370
-1
  6
BYLAYER
100
AcDbEntity
100
AcDbPolyline
 90
20
 70
0
 10
178.750000000000199
 20
180.4999999999986926
 30
0.0
 42
-0.4142135623730984
 10
173.7500000000001137
 20
185.4999999999986926
 30
0.0
 10
173.7500000000001137
 20
201.4999999999986926
 30
0.0
 42
0.414213562373095
 10
168.7500000000001137
 20
206.4999999999986926
 30
0.0
 10
147.7500000000001137
 20
206.4999999999986926
 30
0.0
 42
-0.414213562373095
 10
142.7500000000001137
 20
211.4999999999986926
 30
0.0
 10
142.7500000000001137
 20
225.4999999999986926
 30
0.0
 10
142.7500000000001137
 20
239.4999999999986926
 30
0.0
 42
-0.414213562373095
 10
147.7500000000001137
 20
244.4999999999986926
 30
0.0
 10
168.7500000000001137
 20
244.4999999999986926
 30
0.0
 42
0.414213562373095
 10
173.7500000000001137
 20
249.4999999999986926
 30
0.0
 10
173.7500000000001137
 20
265.4999999999986926
 30
0.0
 42
-0.4142135623730984
 10
178.750000000000199
 20
270.4999999999986926
 30
0.0
 10
207.0000000000001137
 20
270.4999999999986926
 30
0.0
 42
-0.414213562373095
 10
212.0000000000001137
 20
265.4999999999986926
 30
0.0
 10
212.0000000000001137
 20
225.4999999999986926
 30
0.0
 10
212.0000000000001137
 20
225.4999999999986926
 30
0.0
 10
212.0000000000001137
 20
185.4999999999986926
 30
0.0
 42
-0.414213562373095
 10
207.0000000000001137
 20
180.4999999999986926
 30
0.0
 10
178.750000000000199
 20
180.4999999999986926
 30
0.0
  0
LINE
  5
E0
100
AcDbEntity
100
AcDbLine
  8
HOLE_8MM_5MM_DEEP
 62
256
370
-1
  6
BYLAYER
 10
113.9999999999999005
 20
94.999999999998991
 30
0.0
 11
118.9999999999999005
 21
94.999999999998991
 31
0.0
  0
LINE
  5
E1
100
AcDbEntity
100
AcDbLine
  8
HOLE_8MM_5MM_DEEP
 62
256
370
-1
  6
BYLAYER
 10
113.9999999999999005
 20
86.999999999998991
 30
0.0
 11
118.9999999999999005
 21
86.999999999998991
 31
0.0
  0
ARC
  5
E2
100
AcDbEntity
  8
HOLE_8MM_5MM_DEEP
 62
256
370
-1
  6
BYLAYER
100
AcDbCircle
 10
118.9999999999999005
 20
90.999999999998991
 30
0.0
 40
4.0
100
AcDbArc
 50
270.0
 51
90.0
  0
ARC
  5
E3
100
AcDbEntity
  8
HOLE_8MM_5MM_DEEP
 62
256
370
-1
  6
BYLAYER
100
AcDbCircle
 10
113.9999999999999005
 20
90.999999999998991
 30
0.0
 40
4.0
100
AcDbArc
 50
90.0
 51
270.0
  0
LWPOLYLINE
  5
E4
  8
0
 62
256
370
-1
  6
BYLAYER
100
AcDbEntity
100
AcDbPolyline
 90
9
 70
0
 10
268.5000000000005116
 20
165.9999999999988063
 30
0.0
 42
-0.414213562373095
 10
271.5000000000005116
 20
168.9999999999988063
 30
0.0
 10
292.5000000000005116
 20
168.9999999999988063
 30
0.0
 42
-0.414213562373095
 10
295.5000000000005116
 20
165.9999999999988063
 30
0.0
 10
295.5000000000005116
 20
123.9999999999988063
 30
0.0
 42
-0.414213562373095
 10
292.5000000000005116
 20
120.9999999999988063
 30
0.0
 10
271.5000000000005116
 20
120.9999999999988063
 30
0.0
 42
-0.414213562373095
 10
268.5000000000005116
 20
123.9999999999988063
 30
0.0
 10
268.5000000000005116
 20
165.9999999999988063
 30
0.0
  0
LWPOLYLINE
  5
E5
  8
MILL_5MMDEEP
 62
256
370
-1
  6
BYLAYER
100
AcDbEntity
100
AcDbPolyline
 90
9
 70
0
 10
267.5000000000005116
 20
165.9999999999988063
 30
0.0
 42
-0.414213562373095
 10
270.5000000000005116
 20
168.9999999999988063
 30
0.0
 10
293.5000000000005116
 20
168.9999999999988063
 30
0.0
 42
-0.414213562373095
 10
296.5000000000005116
 20
165.9999999999988063
 30
0.0
 10
296.5000000000005116
 20
123.9999999999988063
 30
0.0
 42
-0.414213562373095
 10
293.5000000000005116
 20
120.9999999999988063
 30
0.0
 10
270.5000000000005116
 20
120.9999999999988063
 30
0.0
 42
-0.414213562373095
 10
267.5000000000005116
 20
123.9999999999988063
 30
0.0
 10
267.5000000000005116
 20
165.9999999999988063
 30
0.0
  0
LWPOLYLINE
  5
E6
  8
0
 62
256
370
-1
  6
BYLAYER
100
AcDbEntity
100
AcDbPolyline
 90
9
 70
0
 10
244.0000000000005116
 20
88.9999999999987352
 30
0.0
 42
0.4142135623730968
 10
253.5000000000005969
 20
79.4999999999986926
 30
0.0
 10
295.5000000000006253
 20
79.49999999999892
 30
0.0
 42
0.414213562373095
 10
305.0000000000005116
 20
88.9999999999988063
 30
0.0
 10
305.0000000000005116
 20
258.9999999999986926
 30
0.0
 42
0.414213562373095
 10
295.5000000000005116
 20
268.4999999999986926
 30
0.0
 10
253.5000000000005116
 20
268.4999999999986926
 30
0.0
 42
0.4142135623730932
 10
244.0000000000005969
 20
258.9999999999985789
 30
0.0
 10
244.0000000000005116
 20
88.9999999999987352
 30
0.0
  0
ARC
  5
E7
100
AcDbEntity
  8
0
 62
256
370
-1
  6
BYLAYER
100
AcDbCircle
 10
358.0
 20
0.0
 30
0.0
 40
0.0
100
AcDbArc
 50
0.0
 51
0.0
  0
ARC
  5
E8
100
AcDbEntity
  8
0
 62
256
370
-1
  6
BYLAYER
100
AcDbCircle
 10
338.9999999999997726
 20
-0.0000000000000568
 30
0.0
 40
0.0
100
AcDbArc
 50
0.0
 51
0.0
  0
ARC
  5
E9
100
AcDbEntity
  8
0
 62
256
370
-1
  6
BYLAYER
100
AcDbCircle
 10
31.0000000000000888
 20
0.0
 30
0.0
 40
0.0
100
AcDbArc
 50
0.0
 51
0.0
  0
ARC
  5
EA
100
AcDbEntity
  8
0
 62
256
370
-1
  6
BYLAYER
100
AcDbCircle
 10
11.9999999999998597
 20
0.0000000000000568
 30
0.0
 40
0.0
100
AcDbArc
 50
0.0
 51
0.0
  0
CIRCLE
  5
EB
100
AcDbEntity
100
AcDbCircle
  8
HOLE_M3
 62
256
370
-1
  6
BYLAYER
 10
23.9999999999997407
 20
131.0000000000001137
 30
0.0
 40
1.5
  0
LWPOLYLINE
  5
EC
  8
0
 62
256
370
-1
  6
BYLAYER
100
AcDbEntity
100
AcDbPolyline
 90
20
 70
0
 10
370.0
 20
370.0000000000001137
 30
0.0
 10
370.0
 20
370.0000000000001137
 30
0.0
 10
-0.0000000000000284
 20
370.0000000000001137
 30
0.0
 10
-0.0000000000000284
 20
370.0000000000001137
 30
0.0
 10
0.0000000000000284
 20
0.0
 30
0.0
 10
-0.0000000000003979
 20
0.0000000000001137
 30
0.0
 10
11.9999999999998597
 20
0.0000000000000568
 30
0.0
 10
12.0
 20
20.0
 30
0.0
 42
-0.414213562373095
 10
16.9999999999999716
 20
25.0
 30
0.0
 10
25.9999999999999396
 20
25.0
 30
0.0
 42
-0.414213562373095
 10
30.9999999999997691
 20
20.0000000000001101
 30
0.0
 10
31.0000000000000888
 20
0.0
 30
0.0
 10
338.9999999999997726
 20
-0.0000000000000568
 30
0.0
 10
339.0000000000001137
 20
20.0
 30
0.0
 42
-0.4142135623730915
 10
343.9999999999998863
 20
24.9999999999999396
 30
0.0
 10
352.9999999999998863
 20
24.9999999999998899
 30
0.0
 42
-0.414213562373095
 10
357.9999999999997726
 20
19.9999999999999396
 30
0.0
 10
358.0
 20
0.0
 30
0.0
 10
369.9999999999997726
 20
-0.0000000000000568
 30
0.0
 10
370.0
 20
370.0000000000001137
 30
0.0
  0
TEXT
  5
ED
100
AcDbEntity
100
AcDbText
  8
_COMMENTS_NAMES
 62
256
370
-1
  6
CONTINUOUS
 10
74.642857142857153
 20
180.0
 30
0.0
 40
5.0
  1
FRONT PLATE
 50
0.0
 41
1.0
  7
textstyle0
 71
0
 72
0
 11
74.642857142857153
 21
180.0
 31
0.0
100
AcDbText
 73
0
  0
TEXT
  5
EE
100
AcDbEntity
100
AcDbText
  8
_COMMENTS_NAMES
 62
256
370
-1
  6
CONTINUOUS
 10
256.7857142857142776
 20
150.0
 30
0.0
 40
5.0
  1
BACK PLATE
 50
0.0
 41
1.0
  7
textstyle1
 71
0
 72
0
 11
256.7857142857142776
 21
150.0
 31
0.0
100
AcDbText
 73
0
  0
TEXT
  5
EF
100
AcDbEntity
100
AcDbText
  8
_COMMENTS_NAMES
 62
256
370
-1
  6
CONTINUOUS
 10
111.190476190476204
 20
350.0
 30
0.0
 40
5.0
  1
XZ-PLATE
 50
0.0
 41
1.0
  7
textstyle2
 71
0
 72
0
 11
111.190476190476204
 21
350.0
 31
0.0
100
AcDbText
 73
0
  0
INSERT
  5
F0
100
AcDbEntity
100
AcDbBlockReference
  8
_COMMENTS_NAMES
 62
256
370
-1
  6
BYLAYER
  2
*X24
 10
0.0
 20
0.0
 30
0.0
  0
TEXT
  5
F1
100
AcDbEntity
100
AcDbText
  8
_COMMENTS_NAMES
 62
256
370
-1
  6
CONTINUOUS
 10
65.595238095238102
 20
60.0
 30
0.0
 40
5.0
  1
EXTRUDER FRONT LEFT
 50
0.0
 41
1.0
  7
textstyle3
 71
0
 72
0
 11
65.595238095238102
 21
60.0
 31
0.0
100
AcDbText
 73
0
  0
TEXT
  5
F2
100
AcDbEntity
100
AcDbText
  8
_COMMENTS_NAMES
 62
256
370
-1
  6
CONTINUOUS
 10
175.7458556477120055
 20
295.3429789428867025
 30
0.0
 40
5.0
  1
Y-CARRIAGE
 50
0.0
 41
1.0
  7
textstyle4
 71
0
 72
0
 11
175.7458556477120055
 21
295.3429789428867025
 31
0.0
100
AcDbText
 73
0
  0
TEXT
  5
F3
100
AcDbEntity
100
AcDbText
  8
_COMMENTS_NAMES
 62
256
370
-1
  6
CONTINUOUS
 10
186.8805554559507982
 20
48.1082489680946068
 30
0.0
 40
5.0
  1
EXTRUDER FRONT RIGHT
 50
0.0
 41
1.0
  7
textstyle5
 71
0
 72
0
 11
186.8805554559507982
 21
48.1082489680946068
 31
0.0
100
AcDbText
 73
0
  0
INSERT
  5
F4
100
AcDbEntity
100
AcDbBlockReference
  8
_COMMENTS_HOLES
 62
256
370
-1
  6
BYLAYER
  2
*X42
 10
0.0
 20
0.0
 30
0.0
  0
LINE
  5
F5
100
AcDbEntity
100
AcDbLine
  8
_COMMENTS_HOLES
 62
256
370
-1
  6
BYLAYER
 10
-182.0
 20
150.0
 30
0.0
 11
-157.0
 21
150.0
 31
0.0
  0
LINE
  5
F6
100
AcDbEntity
100
AcDbLine
  8
_COMMENTS_HOLES
 62
256
370
-1
  6
BYLAYER
 10
-180.0
 20
138.0
 30
0.0
 11
-159.0
 21
138.0
 31
0.0
  0
LINE
  5
F7
100
AcDbEntity
100
AcDbLine
  8
_COMMENTS_HOLES
 62
1
420
16711680
370
-1
  6
CENTER
 10
-170.0
 20
160.0
 30
0.0
 11
-170.0
 21
130.0
 31
0.0
  0
LINE
  5
F8
100
AcDbEntity
100
AcDbLine
  8
_COMMENTS_HOLES
 62
256
370
-1
  6
BYLAYER
 10
-176.3000000000000114
 20
148.0
 30
0.0
 11
-163.6999999999999886
 21
148.0
 31
0.0
  0
LINE
  5
F9
100
AcDbEntity
100
AcDbLine
  8
_COMMENTS_HOLES
 62
256
370
-1
  6
BYLAYER
 10
-163.6999999999999886
 20
150.0
 30
0.0
 11
-163.6999999999999886
 21
148.0
 31
0.0
  0
LINE
  5
FA
100
AcDbEntity
100
AcDbLine
  8
_COMMENTS_HOLES
 62
256
370
-1
  6
BYLAYER
 10
-176.3000000000000114
 20
150.0
 30
0.0
 11
-176.3000000000000114
 21
148.0
 31
0.0
  0
LINE
  5
FB
100
AcDbEntity
100
AcDbLine
  8
_COMMENTS_HOLES
 62
256
370
-1
  6
BYLAYER
 10
-166.5
 20
145.1999999999999034
 30
0.0
 11
-166.5
 21
138.0
 31
0.0
  0
LINE
  5
FC
100
AcDbEntity
100
AcDbLine
  8
_COMMENTS_HOLES
 62
256
370
-1
  6
BYLAYER
 10
-173.5
 20
145.1999999999999886
 30
0.0
 11
-173.5
 21
138.0
 31
0.0
  0
LINE
  5
FD
100
AcDbEntity
100
AcDbLine
  8
_COMMENTS_HOLES
 62
256
370
-1
  6
BYLAYER
 10
-173.5
 20
145.1999999999999886
 30
0.0
 11
-166.5
 21
145.1999999999999886
 31
0.0
  0
LINE
  5
FE
100
AcDbEntity
100
AcDbLine
  8
_COMMENTS_HOLES
 62
256
370
-1
  6
BYLAYER
 10
-176.3000000000000114
 20
148.0
 30
0.0
 11
-173.5
 21
145.1999999999999886
 31
0.0
  0
LINE
  5
FF
100
AcDbEntity
100
AcDbLine
  8
_COMMENTS_HOLES
 62
256
370
-1
  6
BYLAYER
 10
-166.5
 20
145.1999999999999886
 30
0.0
 11
-163.6999999999999886
 21
148.0
 31
0.0
  0
ARC
  5
100
100
AcDbEntity
  8
_COMMENTS_HOLES
 62
256
370
-1
  6
BYLAYER
100
AcDbCircle
 10
-176.3000000000000114
 20
148.0
 30
0.0
 40
0.0
100
AcDbArc
 50
0.0
 51
0.0
  0
ARC
  5
101
100
AcDbEntity
  8
_COMMENTS_HOLES
 62
256
370
-1
  6
BYLAYER
100
AcDbCircle
 10
-173.5
 20
145.1999999999999886
 30
0.0
 40
0.0
100
AcDbArc
 50
0.0
 51
0.0
  0
ARC
  5
102
100
AcDbEntity
  8
_COMMENTS_HOLES
 62
256
370
-1
  6
BYLAYER
100
AcDbCircle
 10
-166.5
 20
145.1999999999999886
 30
0.0
 40
0.0
100
AcDbArc
 50
0.0
 51
0.0
  0
ARC
  5
103
100
AcDbEntity
  8
_COMMENTS_HOLES
 62
256
370
-1
  6
BYLAYER
100
AcDbCircle
 10
-163.6999999999999886
 20
148.0
 30
0.0
 40
0.0
100
AcDbArc
 50
0.0
 51
0.0
  0
ARC
  5
104
100
AcDbEntity
  8
_COMMENTS_HOLES
 62
256
370
-1
  6
BYLAYER
100
AcDbCircle
 10
-173.5
 20
145.1999999999999886
 30
0.0
 40
0.0
100
AcDbArc
 50
0.0
 51
0.0
  0
ARC
  5
105
100
AcDbEntity
  8
_COMMENTS_HOLES
 62
256
370
-1
  6
BYLAYER
100
AcDbCircle
 10
-166.5
 20
145.1999999999999034
 30
0.0
 40
0.0
100
AcDbArc
 50
0.0
 51
0.0
  0
ARC
  5
106
100
AcDbEntity
  8
_COMMENTS_HOLES
 62
256
370
-1
  6
BYLAYER
100
AcDbCircle
 10
-176.3000000000000114
 20
148.0
 30
0.0
 40
0.0
100
AcDbArc
 50
0.0
 51
0.0
  0
ARC
  5
107
100
AcDbEntity
  8
_COMMENTS_HOLES
 62
256
370
-1
  6
BYLAYER
100
AcDbCircle
 10
-163.6999999999999886
 20
148.0
 30
0.0
 40
0.0
100
AcDbArc
 50
0.0
 51
0.0
  0
DIMENSION
  5
108
100
AcDbEntity
  8
_COMMENTS_HOLES
 62
1
420
16711680
370
-1
  6
BYLAYER
100
AcDbDimension
 10
-163.6999999999999886
 20
148.0
 30
0.0
 11
-170.0
 21
176.5
 31
0.0
 70
130
 71
8
 72
2
 41
1.0
 42
0.0
  1

  3
Standard
100
AcDb2LineAngularDimension
 13
-176.3000000000000114
 23
148.0
 33
0.0
 14
-173.5
 24
145.1999999999999886
 34
0.0
 15
-166.5
 25
145.1999999999999886
 35
0.0
 16
-160.993097230432312
 26
175.3142187548596098
 36
0.0
  0
DIMENSION
  5
109
100
AcDbEntity
  8
_COMMENTS_HOLES
 62
1
420
16711680
370
-1
  6
BYLAYER
100
AcDbDimension
 10
-176.3000000000000114
 20
164.8359316669425141
 30
0.0
 11
-170.0
 21
164.8359316669425141
 31
0.0
 70
129
 71
8
 72
2
 41
1.0
 42
0.0
  1
6,3
  3
Standard
100
AcDbAlignedDimension
 13
-176.3000000000000114
 23
150.0
 33
0.0
 14
-163.6999999999999886
 24
150.0
 34
0.0
1001
ACAD
1000
DSTYLE
1002
{
1070
144
1040
1
1002
}
  0
DIMENSION
  5
10A
100
AcDbEntity
  8
_COMMENTS_HOLES
 62
1
420
16711680
370
-1
  6
BYLAYER
100
AcDbDimension
 10
-194.3223689887969101
 20
148.0
 30
0.0
 11
-194.3223689887969101
 21
149.0
 31
0.0
 70
128
 71
8
 72
2
 41
1.0
 42
0.0
  1
1
  3
Standard
100
AcDbAlignedDimension
 13
-182.0
 23
150.0
 33
0.0
 14
-176.3000000000000114
 24
148.0
 34
0.0
 50
90.0
100
AcDbRotatedDimension
1001
ACAD
1000
DSTYLE
1002
{
1070
144
1040
1
1002
}
  0
DIMENSION
  5
10B
100
AcDbEntity
  8
_COMMENTS_HOLES
 62
1
420
16711680
370
-1
  6
BYLAYER
100
AcDbDimension
 10
-173.5
 20
128.1671803257414126
 30
0.0
 11
-152.833333333333286
 21
128.1671803257414126
 31
0.0
 70
129
 71
8
 72
2
 41
1.0
 42
0.0
  1
3,5
  3
Standard
100
AcDbAlignedDimension
 13
-173.5
 23
138.0
 33
0.0
 14
-166.5
 24
138.0
 34
0.0
1001
ACAD
1000
DSTYLE
1002
{
1070
144
1040
1
1002
}
  0
INSERT
  5
10C
100
AcDbEntity
100
AcDbBlockReference
  8
_COMMENTS_HOLES
 62
256
370
-1
  6
BYLAYER
  2
*X43
 10
0.0
 20
0.0
 30
0.0
  0
CIRCLE
  5
10D
100
AcDbEntity
100
AcDbCircle
  8
HOLE_M3
 62
256
370
-1
  6
BYLAYER
 10
258.0000000000005116
 20
136.9999999999988063
 30
0.0
 40
1.5
  0
LWPOLYLINE
  5
10E
  8
0
 62
256
370
-1
  6
BYLAYER
100
AcDbEntity
100
AcDbPolyline
 90
41
 70
0
 10
91.0
 20
309.9999999999986926
 30
0.0
 42
-0.9999999999999994
 10
91.0
 20
319.9999999999986926
 30
0.0
 10
300.0000000000001137
 20
320.0
 30
0.0
 42
-1.0
 10
300.0
 20
310.0
 30
0.0
 10
279.5070368960443261
 20
310.0
 30
0.0
 42
0.414213562373095
 10
274.5070368960443261
 20
305.0
 30
0.0
 10
274.507036896044383
 20
303.7999999999992724
 30
0.0
 42
-0.414213562373095
 10
271.507036896044383
 20
300.7999999999992724
 30
0.0
 10
250.5070368960437861
 20
300.7999999999992724
 30
0.0
 42
0.41421356237309
 10
245.5070368960438998
 20
295.7999999999992724
 30
0.0
 10
245.5070368960438998
 20
295.1999999999990791
 30
0.0
 42
0.4142135623730984
 10
250.5070368960438998
 20
290.1999999999991928
 30
0.0
 10
271.5070368960443261
 20
290.1999999999991928
 30
0.0
 42
-0.414213562373095
 10
274.5070368960443261
 20
287.1999999999991928
 30
0.0
 10
274.5070368960443261
 20
283.4999999999986926
 30
0.0
 42
-0.414213562373095
 10
271.5070368960443261
 20
280.4999999999986926
 30
0.0
 10
250.5
 20
280.4999999999985789
 30
0.0
 42
0.4142135623730955
 10
234.4999999999998863
 20
264.4999999999984084
 30
0.0
 10
234.4999999999998863
 20
110.9999999999987068
 30
0.0
 42
-0.414213562373095
 10
224.4999999999998863
 20
100.9999999999987068
 30
0.0
 10
180.499999999999801
 20
100.9999999999987068
 30
0.0
 42
-0.4142135623730909
 10
170.5000000000001137
 20
110.9999999999985931
 30
0.0
 10
170.5
 20
135.4999999999988916
 30
0.0
 42
-0.4142135623730925
 10
180.499999999999801
 20
145.4999999999988063
 30
0.0
 10
206.0000000000001137
 20
145.4999999999988063
 30
0.0
 42
0.4142135623730932
 10
222.0000000000001137
 20
161.4999999999988916
 30
0.0
 10
222.0000000000001137
 20
264.4999999999986926
 30
0.0
 42
0.414213562373095
 10
206.0000000000001137
 20
280.4999999999986926
 30
0.0
 10
119.4929631039558018
 20
280.4999999999989768
 30
0.0
 42
-0.4142135623730976
 10
116.4929631039557023
 20
283.4999999999989768
 30
0.0
 10
116.4929631039558018
 20
287.1999999999986812
 30
0.0
 42
-0.4142135623730868
 10
119.4929631039557023
 20
290.1999999999986812
 30
0.0
 10
140.4929631039557876
 20
290.1999999999987949
 30
0.0
 42
0.4142135623730969
 10
145.4929631039559013
 20
295.1999999999987949
 30
0.0
 10
145.4929631039559013
 20
295.7999999999988177
 30
0.0
 42
0.4142135623730983
 10
140.4929631039557876
 20
300.7999999999988745
 30
0.0
 10
119.4929631039558018
 20
300.7999999999988745
 30
0.0
 42
-0.414213562373095
 10
116.4929631039558018
 20
303.7999999999988745
 30
0.0
 10
116.4929631039558018
 20
304.9999999999986926
 30
0.0
 42
0.4142135623730959
 10
111.4929631039558018
 20
309.9999999999986926
 30
0.0
 10
91.0
 20
309.9999999999986926
 30
0.0
  0
DIMENSION
  5
10F
100
AcDbEntity
  8
_COMMENTS_HOLES
 62
256
370
-1
  6
BYLAYER
100
AcDbDimension
 10
104.3723532255451971
 20
256.9999999999989768
 30
0.0
 11
101.1223532255451971
 21
271.9444444444434339
 31
0.0
 70
0
 71
8
 72
2
 41
1.0
 42
0.0
  1
8H7
  3
Standard
100
AcDbAlignedDimension
 13
116.5
 23
264.9999999999989768
 33
0.0
 14
116.5
 24
256.9999999999989768
 34
0.0
 50
90.0
100
AcDbRotatedDimension
1001
ACAD
1000
DSTYLE
1002
{
1070
144
1040
1
1002
}
  0
DIMENSION
  5
110
100
AcDbEntity
  8
_COMMENTS_HOLES
 62
256
370
-1
  6
BYLAYER
100
AcDbDimension
 10
102.3448322835506019
 20
94.9999999999990052
 30
0.0
 11
99.0948322835506019
 21
90.999999999998991
 31
0.0
 70
0
 71
8
 72
2
 41
1.0
 42
0.0
  1
8H7
  3
Standard
100
AcDbAlignedDimension
 13
118.9999999999999005
 23
86.999999999998991
 33
0.0
 14
118.9999999999999005
 24
94.999999999998991
 34
0.0
 50
90.0
100
AcDbRotatedDimension
1001
ACAD
1000
DSTYLE
1002
{
1070
144
1040
1
1002
}
  0
DIMENSION
  5
111
100
AcDbEntity
  8
_COMMENTS_HOLES
 62
256
370
-1
  6
BYLAYER
100
AcDbDimension
 10
267.9257092131118156
 20
84.9999999999987068
 30
0.0
 11
264.6757092131118156
 21
99.9444444444431497
 31
0.0
 70
0
 71
8
 72
2
 41
1.0
 42
0.0
  1
8H7
  3
Standard
100
AcDbAlignedDimension
 13
253.5000000000005116
 23
92.9999999999987068
 33
0.0
 14
253.5000000000005116
 24
84.9999999999987068
 34
0.0
 50
90.0
100
AcDbRotatedDimension
1001
ACAD
1000
DSTYLE
1002
{
1070
144
1040
1
1002
}
  0
DIMENSION
  5
112
100
AcDbEntity
  8
_COMMENTS_HOLES
 62
256
370
-1
  6
BYLAYER
100
AcDbDimension
 10
265.2223479571189273
 20
262.9999999999986926
 30
0.0
 11
265.2223479571189273
 21
240.3560792644254036
 31
0.0
 70
128
 71
8
 72
2
 41
1.0
 42
0.0
  1
8H7
  3
Standard
100
AcDbAlignedDimension
 13
253.0740304337572013
 23
255.022745931092004
 33
0.0
 14
253.5000000000005116
 24
262.9999999999986926
 34
0.0
 50
90.0
100
AcDbRotatedDimension
1001
ACAD
1000
DSTYLE
1002
{
1070
144
1040
1
1002
}
  0
DIMENSION
  5
113
100
AcDbEntity
  8
_COMMENTS_HOLES
 62
256
370
-1
  6
BYLAYER
100
AcDbDimension
 10
166.7500000000001137
 20
256.5186135152515021
 30
0.0
 11
177.8888888888889994
 21
259.7686135152515021
 31
0.0
 70
0
 71
8
 72
2
 41
1.0
 42
0.0
  1
4H7
  3
Standard
100
AcDbAlignedDimension
 13
170.7500000000001137
 23
237.9999999999986926
 33
0.0
 14
166.7500000000001137
 24
237.9999999999986926
 34
0.0
 50
0.0
100
AcDbRotatedDimension
1001
ACAD
1000
DSTYLE
1002
{
1070
144
1040
1
1002
}
  0
DIMENSION
  5
114
100
AcDbEntity
  8
_COMMENTS_HOLES
 62
256
370
-1
  6
BYLAYER
100
AcDbDimension
 10
166.7500000000001137
 20
188.4000633485723881
 30
0.0
 11
177.8888888888889994
 21
191.6500633485723881
 31
0.0
 70
0
 71
8
 72
2
 41
1.0
 42
0.0
  1
4H7
  3
Standard
100
AcDbAlignedDimension
 13
170.7500000000001137
 23
212.9999999999986926
 33
0.0
 14
166.7500000000001137
 24
212.9999999999986926
 34
0.0
 50
0.0
100
AcDbRotatedDimension
1001
ACAD
1000
DSTYLE
1002
{
1070
144
1040
1
1002
}
  0
DIMENSION
  5
115
100
AcDbEntity
  8
_COMMENTS_HOLES
 62
256
370
-1
  6
BYLAYER
100
AcDbDimension
 10
112.1337348207315046
 20
74.0
 30
0.0
 11
123.2726237096203903
 21
77.25
 31
0.0
 70
0
 71
8
 72
2
 41
1.0
 42
0.0
  1
4H7
  3
Standard
100
AcDbAlignedDimension
 13
116.1337348207315046
 23
65.5000000000000568
 33
0.0
 14
112.1337348207315046
 24
65.5000000000000568
 34
0.0
 50
0.0
100
AcDbRotatedDimension
1001
ACAD
1000
DSTYLE
1002
{
1070
144
1040
1
1002
}
  0
DIMENSION
  5
116
100
AcDbEntity
  8
_COMMENTS_HOLES
 62
256
370
-1
  6
BYLAYER
100
AcDbDimension
 10
222.8837348207314051
 20
72.0
 30
0.0
 11
230.0226237096203192
 21
75.25
 31
0.0
 70
0
 71
8
 72
2
 41
1.0
 42
0.0
  1
4H7
  3
Standard
100
AcDbAlignedDimension
 13
218.9150566257341097
 23
54.8525707936602913
 33
0.0
 14
222.8837348207314051
 24
54.5000000000000071
 34
0.0
 50
0.0
100
AcDbRotatedDimension
1001
ACAD
1000
DSTYLE
1002
{
1070
144
1040
1
1002
}
  0
LINE
  5
117
100
AcDbEntity
100
AcDbLine
  8
_COMMENTS_HOLES
 62
256
370
-1
  6
BYLAYER
 10
-116.2999999999999972
 20
148.0
 30
0.0
 11
-103.7000000000000028
 21
148.0
 31
0.0
  0
LINE
  5
118
100
AcDbEntity
100
AcDbLine
  8
_COMMENTS_HOLES
 62
256
370
-1
  6
BYLAYER
 10
-103.7000000000000028
 20
150.0
 30
0.0
 11
-103.7000000000000028
 21
148.0
 31
0.0
  0
LINE
  5
119
100
AcDbEntity
100
AcDbLine
  8
_COMMENTS_HOLES
 62
256
370
-1
  6
BYLAYER
 10
-116.2999999999999972
 20
150.0
 30
0.0
 11
-116.2999999999999972
 21
148.0
 31
0.0
  0
LINE
  5
11A
100
AcDbEntity
100
AcDbLine
  8
_COMMENTS_HOLES
 62
256
370
-1
  6
BYLAYER
 10
-106.75
 20
144.9499999999999886
 30
0.0
 11
-106.75
 21
138.0
 31
0.0
  0
LINE
  5
11B
100
AcDbEntity
100
AcDbLine
  8
_COMMENTS_HOLES
 62
256
370
-1
  6
BYLAYER
 10
-113.25
 20
144.9499999999999886
 30
0.0
 11
-113.25
 21
138.0
 31
0.0
  0
LINE
  5
11C
100
AcDbEntity
100
AcDbLine
  8
_COMMENTS_HOLES
 62
256
370
-1
  6
BYLAYER
 10
-116.2999999999999972
 20
148.0
 30
0.0
 11
-113.25
 21
144.9499999999999886
 31
0.0
  0
LINE
  5
11D
100
AcDbEntity
100
AcDbLine
  8
_COMMENTS_HOLES
 62
256
370
-1
  6
BYLAYER
 10
-106.75
 20
144.9499999999999886
 30
0.0
 11
-103.7000000000000028
 21
148.0
 31
0.0
  0
ARC
  5
11E
100
AcDbEntity
  8
_COMMENTS_HOLES
 62
256
370
-1
  6
BYLAYER
100
AcDbCircle
 10
-116.2999999999999972
 20
148.0
 30
0.0
 40
0.0
100
AcDbArc
 50
0.0
 51
0.0
  0
ARC
  5
11F
100
AcDbEntity
  8
_COMMENTS_HOLES
 62
256
370
-1
  6
BYLAYER
100
AcDbCircle
 10
-113.5
 20
145.1999999999999886
 30
0.0
 40
0.0
100
AcDbArc
 50
0.0
 51
0.0
  0
ARC
  5
120
100
AcDbEntity
  8
_COMMENTS_HOLES
 62
256
370
-1
  6
BYLAYER
100
AcDbCircle
 10
-106.5
 20
145.1999999999999886
 30
0.0
 40
0.0
100
AcDbArc
 50
0.0
 51
0.0
  0
ARC
  5
121
100
AcDbEntity
  8
_COMMENTS_HOLES
 62
256
370
-1
  6
BYLAYER
100
AcDbCircle
 10
-103.7000000000000028
 20
148.0
 30
0.0
 40
0.0
100
AcDbArc
 50
0.0
 51
0.0
  0
ARC
  5
122
100
AcDbEntity
  8
_COMMENTS_HOLES
 62
256
370
-1
  6
BYLAYER
100
AcDbCircle
 10
-113.5
 20
145.1999999999999886
 30
0.0
 40
0.0
100
AcDbArc
 50
0.0
 51
0.0
  0
ARC
  5
123
100
AcDbEntity
  8
_COMMENTS_HOLES
 62
256
370
-1
  6
BYLAYER
100
AcDbCircle
 10
-106.5
 20
145.1999999999999034
 30
0.0
 40
0.0
100
AcDbArc
 50
0.0
 51
0.0
  0
ARC
  5
124
100
AcDbEntity
  8
_COMMENTS_HOLES
 62
256
370
-1
  6
BYLAYER
100
AcDbCircle
 10
-116.2999999999999972
 20
148.0
 30
0.0
 40
0.0
100
AcDbArc
 50
0.0
 51
0.0
  0
ARC
  5
125
100
AcDbEntity
  8
_COMMENTS_HOLES
 62
256
370
-1
  6
BYLAYER
100
AcDbCircle
 10
-103.7000000000000028
 20
148.0
 30
0.0
 40
0.0
100
AcDbArc
 50
0.0
 51
0.0
  0
DIMENSION
  5
126
100
AcDbEntity
  8
_COMMENTS_HOLES
 62
1
420
16711680
370
-1
  6
BYLAYER
100
AcDbDimension
 10
-103.7000000000000028
 20
148.0
 30
0.0
 11
-110.0
 21
176.5
 31
0.0
 70
130
 71
8
 72
2
 41
1.0
 42
0.0
  1

  3
Standard
100
AcDb2LineAngularDimension
 13
-116.2999999999999972
 23
148.0
 33
0.0
 14
-113.5
 24
145.1999999999999886
 34
0.0
 15
-106.5
 25
145.1999999999999886
 35
0.0
 16
-100.9930972304322978
 26
175.3142187548596098
 36
0.0
  0
DIMENSION
  5
127
100
AcDbEntity
  8
_COMMENTS_HOLES
 62
1
420
16711680
370
-1
  6
BYLAYER
100
AcDbDimension
 10
-116.2999999999999972
 20
164.8359316669425141
 30
0.0
 11
-110.0
 21
164.8359316669425141
 31
0.0
 70
129
 71
8
 72
2
 41
1.0
 42
0.0
  1
6,3
  3
Standard
100
AcDbAlignedDimension
 13
-116.2999999999999972
 23
150.0
 33
0.0
 14
-103.7000000000000028
 24
150.0
 34
0.0
1001
ACAD
1000
DSTYLE
1002
{
1070
144
1040
1
1002
}
  0
DIMENSION
  5
128
100
AcDbEntity
  8
_COMMENTS_HOLES
 62
1
420
16711680
370
-1
  6
BYLAYER
100
AcDbDimension
 10
-134.3223689887969101
 20
148.0
 30
0.0
 11
-134.3223689887969101
 21
149.0
 31
0.0
 70
128
 71
8
 72
2
 41
1.0
 42
0.0
  1
1
  3
Standard
100
AcDbAlignedDimension
 13
-122.0
 23
150.0
 33
0.0
 14
-116.2999999999999972
 24
148.0
 34
0.0
 50
90.0
100
AcDbRotatedDimension
1001
ACAD
1000
DSTYLE
1002
{
1070
144
1040
1
1002
}
  0
DIMENSION
  5
129
100
AcDbEntity
  8
_COMMENTS_HOLES
 62
1
420
16711680
370
-1
  6
BYLAYER
100
AcDbDimension
 10
-113.25
 20
124.9171803257413984
 30
0.0
 11
-110.0
 21
128.1671803257414126
 31
0.0
 70
1
 71
8
 72
2
 41
1.0
 42
0.0
  1
3
  3
Standard
100
AcDbAlignedDimension
 13
-113.25
 23
138.0
 33
0.0
 14
-106.75
 24
138.0
 34
0.0
1001
ACAD
1000
DSTYLE
1002
{
1070
144
1040
1
1002
}
  0
LINE
  5
12A
100
AcDbEntity
100
AcDbLine
  8
_COMMENTS_HOLES
 62
256
370
-1
  6
BYLAYER
 10
-122.0
 20
150.0
 30
0.0
 11
-97.0
 21
150.0
 31
0.0
  0
LINE
  5
12B
100
AcDbEntity
100
AcDbLine
  8
_COMMENTS_HOLES
 62
256
370
-1
  6
BYLAYER
 10
-120.0
 20
138.0
 30
0.0
 11
-99.0
 21
138.0
 31
0.0
  0
LINE
  5
12C
100
AcDbEntity
100
AcDbLine
  8
_COMMENTS_HOLES
 62
1
420
16711680
370
-1
  6
CENTER
 10
-110.0
 20
160.0
 30
0.0
 11
-110.0
 21
130.0
 31
0.0
  0
ARC
  5
12D
100
AcDbEntity
  8
_COMMENTS_HOLES
 62
256
370
-1
  6
BYLAYER
100
AcDbCircle
 10
-113.25
 20
144.9499999999999886
 30
0.0
 40
0.0
100
AcDbArc
 50
0.0
 51
0.0
  0
ARC
  5
12E
100
AcDbEntity
  8
_COMMENTS_HOLES
 62
256
370
-1
  6
BYLAYER
100
AcDbCircle
 10
-106.75
 20
144.9499999999999886
 30
0.0
 40
0.0
100
AcDbArc
 50
0.0
 51
0.0
  0
LINE
  5
12F
100
AcDbEntity
100
AcDbLine
  8
_COMMENTS_HOLES
 62
256
370
-1
  6
BYLAYER
 10
-113.25
 20
144.9499999999999886
 30
0.0
 11
-106.75
 21
144.9499999999999886
 31
0.0
  0
LINE
  5
130
100
AcDbEntity
100
AcDbLine
  8
_COMMENTS_HOLES
 62
256
370
-1
  6
BYLAYER
 10
-56.3000000000000114
 20
140.0
 30
0.0
 11
-53.25
 21
143.0500000000000114
 31
0.0
  0
LINE
  5
131
100
AcDbEntity
100
AcDbLine
  8
_COMMENTS_HOLES
 62
256
370
-1
  6
BYLAYER
 10
-46.75
 20
143.0500000000000114
 30
0.0
 11
-43.6999999999999886
 21
140.0
 31
0.0
  0
ARC
  5
132
100
AcDbEntity
  8
_COMMENTS_HOLES
 62
256
370
-1
  6
BYLAYER
100
AcDbCircle
 10
-56.3000000000000114
 20
140.0
 30
0.0
 40
0.0
100
AcDbArc
 50
0.0
 51
0.0
  0
ARC
  5
133
100
AcDbEntity
  8
_COMMENTS_HOLES
 62
256
370
-1
  6
BYLAYER
100
AcDbCircle
 10
-53.5000000000000284
 20
142.8000000000000114
 30
0.0
 40
0.0
100
AcDbArc
 50
0.0
 51
0.0
  0
ARC
  5
134
100
AcDbEntity
  8
_COMMENTS_HOLES
 62
256
370
-1
  6
BYLAYER
100
AcDbCircle
 10
-53.2500000000000071
 20
143.0500000000000114
 30
0.0
 40
0.0
100
AcDbArc
 50
0.0
 51
0.0
  0
ARC
  5
135
100
AcDbEntity
  8
_COMMENTS_HOLES
 62
256
370
-1
  6
BYLAYER
100
AcDbCircle
 10
-46.5
 20
142.8000000000000114
 30
0.0
 40
0.0
100
AcDbArc
 50
0.0
 51
0.0
  0
ARC
  5
136
100
AcDbEntity
  8
_COMMENTS_HOLES
 62
256
370
-1
  6
BYLAYER
100
AcDbCircle
 10
-46.75
 20
143.0500000000000114
 30
0.0
 40
0.0
100
AcDbArc
 50
0.0
 51
0.0
  0
ARC
  5
137
100
AcDbEntity
  8
_COMMENTS_HOLES
 62
256
370
-1
  6
BYLAYER
100
AcDbCircle
 10
-43.6999999999999886
 20
140.0
 30
0.0
 40
0.0
100
AcDbArc
 50
0.0
 51
0.0
  0
LINE
  5
138
100
AcDbEntity
100
AcDbLine
  8
_COMMENTS_HOLES
 62
256
370
-1
  6
BYLAYER
 10
-53.25
 20
143.0500000000000114
 30
0.0
 11
-46.75
 21
143.0500000000000114
 31
0.0
  0
ARC
  5
139
100
AcDbEntity
  8
_COMMENTS_HOLES
 62
256
370
-1
  6
BYLAYER
100
AcDbCircle
 10
-53.5
 20
142.8000000000000114
 30
0.0
 40
0.0
100
AcDbArc
 50
0.0
 51
0.0
  0
ARC
  5
13A
100
AcDbEntity
  8
_COMMENTS_HOLES
 62
256
370
-1
  6
BYLAYER
100
AcDbCircle
 10
-46.5
 20
142.8000000000000966
 30
0.0
 40
0.0
100
AcDbArc
 50
0.0
 51
0.0
  0
ARC
  5
13B
100
AcDbEntity
  8
_COMMENTS_HOLES
 62
256
370
-1
  6
BYLAYER
100
AcDbCircle
 10
-56.3000000000000114
 20
140.0
 30
0.0
 40
0.0
100
AcDbArc
 50
0.0
 51
0.0
  0
ARC
  5
13C
100
AcDbEntity
  8
_COMMENTS_HOLES
 62
256
370
-1
  6
BYLAYER
100
AcDbCircle
 10
-43.6999999999999886
 20
140.0
 30
0.0
 40
0.0
100
AcDbArc
 50
0.0
 51
0.0
  0
DIMENSION
  5
13D
100
AcDbEntity
  8
_COMMENTS_HOLES
 62
1
420
16711680
370
-1
  6
BYLAYER
100
AcDbDimension
 10
-43.6999999999999886
 20
140.0
 30
0.0
 11
-50.0000000000000071
 21
111.5
 31
0.0
 70
130
 71
8
 72
2
 41
1.0
 42
0.0
  1

  3
Standard
100
AcDb2LineAngularDimension
 13
-56.3000000000000114
 23
140.0
 33
0.0
 14
-53.5
 24
142.8000000000000114
 34
0.0
 15
-46.5
 25
142.8000000000000114
 35
0.0
 16
-59.0069027695677235
 26
112.6857812451405039
 36
0.0
  0
DIMENSION
  5
13E
100
AcDbEntity
  8
_COMMENTS_HOLES
 62
1
420
16711680
370
-1
  6
BYLAYER
100
AcDbDimension
 10
-56.3000000000000114
 20
123.1640683330575001
 30
0.0
 11
-50.0000000000000071
 21
123.1640683330575001
 31
0.0
 70
129
 71
8
 72
2
 41
1.0
 42
0.0
  1
6,3
  3
Standard
100
AcDbAlignedDimension
 13
-56.3000000000000114
 23
138.0
 33
0.0
 14
-43.6999999999999886
 24
138.0
 34
0.0
1001
ACAD
1000
DSTYLE
1002
{
1070
144
1040
1
1002
}
  0
DIMENSION
  5
13F
100
AcDbEntity
  8
_COMMENTS_HOLES
 62
1
420
16711680
370
-1
  6
BYLAYER
100
AcDbDimension
 10
-74.3223689887968817
 20
140.0
 30
0.0
 11
-74.3223689887968817
 21
139.0
 31
0.0
 70
128
 71
8
 72
2
 41
1.0
 42
0.0
  1
1
  3
Standard
100
AcDbAlignedDimension
 13
-62.0
 23
138.0
 33
0.0
 14
-56.3000000000000114
 24
140.0
 34
0.0
 50
270.0
100
AcDbRotatedDimension
1001
ACAD
1000
DSTYLE
1002
{
1070
144
1040
1
1002
}
  0
DIMENSION
  5
140
100
AcDbEntity
  8
_COMMENTS_HOLES
 62
1
420
16711680
370
-1
  6
BYLAYER
100
AcDbDimension
 10
-53.25
 20
163.0828196742585874
 30
0.0
 11
-50.0
 21
166.3328196742585874
 31
0.0
 70
1
 71
8
 72
2
 41
1.0
 42
0.0
  1
3
  3
Standard
100
AcDbAlignedDimension
 13
-53.25
 23
150.0
 33
0.0
 14
-46.75
 24
150.0
 34
0.0
1001
ACAD
1000
DSTYLE
1002
{
1070
144
1040
1
1002
}
  0
LINE
  5
141
100
AcDbEntity
100
AcDbLine
  8
_COMMENTS_HOLES
 62
256
370
-1
  6
BYLAYER
 10
-62.0
 20
138.0
 30
0.0
 11
-37.0
 21
138.0
 31
0.0
  0
LINE
  5
142
100
AcDbEntity
100
AcDbLine
  8
_COMMENTS_HOLES
 62
256
370
-1
  6
BYLAYER
 10
-60.0
 20
150.0
 30
0.0
 11
-39.0
 21
150.0
 31
0.0
  0
LINE
  5
143
100
AcDbEntity
100
AcDbLine
  8
_COMMENTS_HOLES
 62
1
420
16711680
370
-1
  6
CENTER
 10
-50.0000000000000071
 20
128.0
 30
0.0
 11
-49.9999999999999929
 21
158.0
 31
0.0
  0
LINE
  5
144
100
AcDbEntity
100
AcDbLine
  8
_COMMENTS_HOLES
 62
256
370
-1
  6
BYLAYER
 10
-56.3000000000000114
 20
140.0
 30
0.0
 11
-43.6999999999999886
 21
140.0
 31
0.0
  0
LINE
  5
145
100
AcDbEntity
100
AcDbLine
  8
_COMMENTS_HOLES
 62
256
370
-1
  6
BYLAYER
 10
-43.6999999999999886
 20
138.0
 30
0.0
 11
-43.6999999999999886
 21
140.0
 31
0.0
  0
LINE
  5
146
100
AcDbEntity
100
AcDbLine
  8
_COMMENTS_HOLES
 62
256
370
-1
  6
BYLAYER
 10
-56.3000000000000114
 20
138.0
 30
0.0
 11
-56.3000000000000114
 21
140.0
 31
0.0
  0
LINE
  5
147
100
AcDbEntity
100
AcDbLine
  8
_COMMENTS_HOLES
 62
256
370
-1
  6
BYLAYER
 10
-46.75
 20
143.0500000000000114
 30
0.0
 11
-46.75
 21
150.0
 31
0.0
  0
LINE
  5
148
100
AcDbEntity
100
AcDbLine
  8
_COMMENTS_HOLES
 62
256
370
-1
  6
BYLAYER
 10
-53.25
 20
143.0500000000000114
 30
0.0
 11
-53.25
 21
150.0
 31
0.0
  0
INSERT
  5
149
100
AcDbEntity
100
AcDbBlockReference
  8
_COMMENTS_HOLES
 62
256
370
-1
  6
BYLAYER
  2
*X44
 10
0.0
 20
0.0
 30
0.0
  0
INSERT
  5
14A
100
AcDbEntity
100
AcDbBlockReference
  8
_COMMENTS_HOLES
 62
256
370
-1
  6
BYLAYER
  2
*X45
 10
0.0
 20
0.0
 30
0.0
  0
INSERT
  5
14B
100
AcDbEntity
100
AcDbBlockReference
  8
_COMMENTS_HOLES
 62
256
370
-1
  6
BYLAYER
  2
*X46
 10
0.0
 20
0.0
 30
0.0
  0
TEXT
  5
14C
100
AcDbEntity
100
AcDbText
  8
_COMMENTS_HOLES
 62
256
370
-1
  6
CONTINUOUS
 10
8.373750561588043
 20
354.0194267615192985
 30
0.0
 40
5.0
  1
A
 50
0.0
 41
1.0
  7
textstyle6
 71
0
 72
0
 11
8.373750561588043
 21
354.0194267615192985
 31
0.0
100
AcDbText
 73
0
  0
TEXT
  5
14D
100
AcDbEntity
100
AcDbText
  8
_COMMENTS_HOLES
 62
256
370
-1
  6
CONTINUOUS
 10
18.3737505615880394
 20
354.0194267615192985
 30
0.0
 40
5.0
  1
A
 50
0.0
 41
1.0
  7
textstyle7
 71
0
 72
0
 11
18.3737505615880394
 21
354.0194267615192985
 31
0.0
100
AcDbText
 73
0
  0
TEXT
  5
14E
100
AcDbEntity
100
AcDbText
  8
_COMMENTS_HOLES
 62
256
370
-1
  6
CONTINUOUS
 10
348.3737505615881105
 20
354.0194267615192985
 30
0.0
 40
5.0
  1
A
 50
0.0
 41
1.0
  7
textstyle8
 71
0
 72
0
 11
348.3737505615881105
 21
354.0194267615192985
 31
0.0
100
AcDbText
 73
0
  0
TEXT
  5
14F
100
AcDbEntity
100
AcDbText
  8
_COMMENTS_HOLES
 62
256
370
-1
  6
CONTINUOUS
 10
358.3737505615881105
 20
354.0194267615192985
 30
0.0
 40
5.0
  1
A
 50
0.0
 41
1.0
  7
textstyle9
 71
0
 72
0
 11
358.3737505615881105
 21
354.0194267615192985
 31
0.0
100
AcDbText
 73
0
  0
TEXT
  5
150
100
AcDbEntity
100
AcDbText
  8
_COMMENTS_HOLES
 62
256
370
-1
  6
CONTINUOUS
 10
335.1448711646394827
 20
34.6011077449589308
 30
0.0
 40
5.0
  1
A
 50
0.0
 41
1.0
  7
textstyle10
 71
0
 72
0
 11
335.1448711646394827
 21
34.6011077449589308
 31
0.0
100
AcDbText
 73
0
  0
TEXT
  5
151
100
AcDbEntity
100
AcDbText
  8
_COMMENTS_HOLES
 62
256
370
-1
  6
CONTINUOUS
 10
362.0337725462234175
 20
34.1937001482682632
 30
0.0
 40
5.0
  1
A
 50
0.0
 41
1.0
  7
textstyle11
 71
0
 72
0
 11
362.0337725462234175
 21
34.1937001482682632
 31
0.0
100
AcDbText
 73
0
  0
TEXT
  5
152
100
AcDbEntity
100
AcDbText
  8
_COMMENTS_HOLES
 62
256
370
-1
  6
CONTINUOUS
 10
362.1695750784535903
 20
9.2060342179075221
 30
0.0
 40
5.0
  1
A
 50
0.0
 41
1.0
  7
textstyle12
 71
0
 72
0
 11
362.1695750784535903
 21
9.2060342179075221
 31
0.0
100
AcDbText
 73
0
  0
TEXT
  5
153
100
AcDbEntity
100
AcDbText
  8
_COMMENTS_HOLES
 62
256
370
-1
  6
CONTINUOUS
 10
5.1448711646395422
 20
34.6011077449589308
 30
0.0
 40
5.0
  1
A
 50
0.0
 41
1.0
  7
textstyle13
 71
0
 72
0
 11
5.1448711646395422
 21
34.6011077449589308
 31
0.0
100
AcDbText
 73
0
  0
TEXT
  5
154
100
AcDbEntity
100
AcDbText
  8
_COMMENTS_HOLES
 62
256
370
-1
  6
CONTINUOUS
 10
32.0337725462233607
 20
34.1937001482682632
 30
0.0
 40
5.0
  1
A
 50
0.0
 41
1.0
  7
textstyle14
 71
0
 72
0
 11
32.0337725462233607
 21
34.1937001482682632
 31
0.0
100
AcDbText
 73
0
  0
TEXT
  5
155
100
AcDbEntity
100
AcDbText
  8
_COMMENTS_HOLES
 62
256
370
-1
  6
CONTINUOUS
 10
3.4752549461054398
 20
9.5621019388936119
 30
0.0
 40
5.0
  1
A
 50
0.0
 41
1.0
  7
textstyle15
 71
0
 72
0
 11
3.4752549461054398
 21
9.5621019388936119
 31
0.0
100
AcDbText
 73
0
  0
TEXT
  5
156
100
AcDbEntity
100
AcDbText
  8
_COMMENTS_HOLES
 62
256
370
-1
  6
CONTINUOUS
 10
155.8908999690478936
 20
214.4955534935525066
 30
0.0
 40
5.0
  1
B
 50
0.0
 41
1.0
  7
textstyle16
 71
0
 72
0
 11
155.8908999690478936
 21
214.4955534935525066
 31
0.0
100
AcDbText
 73
0
  0
TEXT
  5
157
100
AcDbEntity
100
AcDbText
  8
_COMMENTS_HOLES
 62
256
370
-1
  6
CONTINUOUS
 10
186.0476190476190084
 20
215.0
 30
0.0
 40
5.0
  1
B
 50
0.0
 41
1.0
  7
textstyle17
 71
0
 72
0
 11
186.0476190476190084
 21
215.0
 31
0.0
100
AcDbText
 73
0
  0
TEXT
  5
158
100
AcDbEntity
100
AcDbText
  8
_COMMENTS_HOLES
 62
256
370
-1
  6
CONTINUOUS
 10
186.0476190476190084
 20
183.0
 30
0.0
 40
5.0
  1
B
 50
0.0
 41
1.0
  7
textstyle18
 71
0
 72
0
 11
186.0476190476190084
 21
183.0
 31
0.0
100
AcDbText
 73
0
  0
TEXT
  5
159
100
AcDbEntity
100
AcDbText
  8
_COMMENTS_HOLES
 62
256
370
-1
  6
CONTINUOUS
 10
155.5076853419878944
 20
231.6721763191804939
 30
0.0
 40
5.0
  1
B
 50
0.0
 41
1.0
  7
textstyle19
 71
0
 72
0
 11
155.5076853419878944
 21
231.6721763191804939
 31
0.0
100
AcDbText
 73
0
  0
TEXT
  5
15A
100
AcDbEntity
100
AcDbText
  8
_COMMENTS_HOLES
 62
256
370
-1
  6
CONTINUOUS
 10
186.6290989780802931
 20
231.4458387654634919
 30
0.0
 40
5.0
  1
B
 50
0.0
 41
1.0
  7
textstyle20
 71
0
 72
0
 11
186.6290989780802931
 21
231.4458387654634919
 31
0.0
100
AcDbText
 73
0
  0
TEXT
  5
15B
100
AcDbEntity
100
AcDbText
  8
_COMMENTS_HOLES
 62
256
370
-1
  6
CONTINUOUS
 10
186.6759135522794111
 20
262.368781613581973
 30
0.0
 40
5.0
  1
B
 50
0.0
 41
1.0
  7
textstyle21
 71
0
 72
0
 11
186.6759135522794111
 21
262.368781613581973
 31
0.0
100
AcDbText
 73
0
  0
TEXT
  5
15C
100
AcDbEntity
100
AcDbText
  8
_COMMENTS_HOLES
 62
256
370
-1
  6
CONTINUOUS
 10
95.2857142857142918
 20
59.0
 30
0.0
 40
5.0
  1
C
 50
0.0
 41
1.0
  7
textstyle22
 71
0
 72
0
 11
95.2857142857142918
 21
59.0
 31
0.0
100
AcDbText
 73
0
  0
TEXT
  5
15D
100
AcDbEntity
100
AcDbText
  8
_COMMENTS_HOLES
 62
256
370
-1
  6
CONTINUOUS
 10
143.9102301433892137
 20
54.8139706186484403
 30
0.0
 40
5.0
  1
C
 50
0.0
 41
1.0
  7
textstyle23
 71
0
 72
0
 11
143.9102301433892137
 21
54.8139706186484403
 31
0.0
100
AcDbText
 73
0
  0
TEXT
  5
15E
100
AcDbEntity
100
AcDbText
  8
_COMMENTS_HOLES
 62
256
370
-1
  6
CONTINUOUS
 10
146.7394495648520945
 20
87.4065783539015797
 30
0.0
 40
5.0
  1
C
 50
0.0
 41
1.0
  7
textstyle24
 71
0
 72
0
 11
146.7394495648520945
 21
87.4065783539015797
 31
0.0
100
AcDbText
 73
0
  0
TEXT
  5
15F
100
AcDbEntity
100
AcDbText
  8
_COMMENTS_HOLES
 62
256
370
-1
  6
CONTINUOUS
 10
179.8155867428619956
 20
76.5865568659694418
 30
0.0
 40
5.0
  1
C
 50
0.0
 41
1.0
  7
textstyle25
 71
0
 72
0
 11
179.8155867428619956
 21
76.5865568659694418
 31
0.0
100
AcDbText
 73
0
  0
TEXT
  5
160
100
AcDbEntity
100
AcDbText
  8
_COMMENTS_HOLES
 62
256
370
-1
  6
CONTINUOUS
 10
185.8135319163633881
 20
46.5968309984622167
 30
0.0
 40
5.0
  1
C
 50
0.0
 41
1.0
  7
textstyle26
 71
0
 72
0
 11
185.8135319163633881
 21
46.5968309984622167
 31
0.0
100
AcDbText
 73
0
  0
TEXT
  5
161
100
AcDbEntity
100
AcDbText
  8
_COMMENTS_HOLES
 62
256
370
-1
  6
CONTINUOUS
 10
234.9287810729601915
 20
51.8025947339540309
 30
0.0
 40
5.0
  1
C
 50
0.0
 41
1.0
  7
textstyle27
 71
0
 72
0
 11
234.9287810729601915
 21
51.8025947339540309
 31
0.0
100
AcDbText
 73
0
  0
ENDSEC
  0
SECTION
  2
OBJECTS
  0
DICTIONARY
  5
C
100
AcDbDictionary
280
0
281
1
  3
ACAD_GROUP
350
D
  3
ACAD_LAYOUT
350
1A
  3
ACAD_MLINESTYLE
350
17
  3
ACAD_PLOTSETTINGS
350
19
  3
ACAD_PLOTSTYLENAME
350
E
  3
AcDbVariableDictionary
350
162
  3
QCAD_OBJECTS
350
163
  0
DICTIONARY
  5
D
100
AcDbDictionary
280
0
281
1
  0
ACDBDICTIONARYWDFLT
  5
E
100
AcDbDictionary
281
1
  3
Normal
350
F
100
AcDbDictionaryWithDefault
340
F
  0
ACDBPLACEHOLDER
  5
F
  0
DICTIONARY
  5
17
100
AcDbDictionary
280
0
281
1
  3
Standard
350
18
  0
MLINESTYLE
  5
18
100
AcDbMlineStyle
  2
STANDARD
 70
0
  3

 62
256
 51
90.0
 52
90.0
 71
2
 49
0.5
 62
256
  6
BYLAYER
 49
-0.5
 62
256
  6
BYLAYER
  0
DICTIONARY
  5
19
100
AcDbDictionary
280
0
281
1
  0
DICTIONARY
  5
1A
100
AcDbDictionary
281
1
  3
Layout1
350
1E
  3
Layout2
350
26
  3
Model
350
22
  0
LAYOUT
  5
1E
100
AcDbPlotSettings
  1

  2
none_device
  4

  6

 40
0.0
 41
0.0
 42
0.0
 43
0.0
 44
0.0
 45
0.0
 46
0.0
 47
0.0
 48
0.0
 49
0.0
140
0.0
141
0.0
142
1.0
143
1.0
 70
688
 72
0
 73
0
 74
5
  7

 75
16
147
1.0
148
0.0
149
0.0
100
AcDbLayout
  1
Layout1
 70
1
 71
1
 10
0.0
 20
0.0
 11
420.0
 21
297.0
 12
0.0
 22
0.0
 32
0.0
 14
100000000000000000000.0
 24
100000000000000000000.0
 34
100000000000000000000.0
 15
-100000000000000000000.0
 25
-100000000000000000000.0
 35
-100000000000000000000.0
146
0.0
 13
0.0
 23
0.0
 33
0.0
 16
1.0
 26
0.0
 36
0.0
 17
0.0
 27
1.0
 37
0.0
 76
0
330
1B
  0
LAYOUT
  5
22
100
AcDbPlotSettings
  1

  2
none_device
  4

  6

 40
0.0
 41
0.0
 42
0.0
 43
0.0
 44
0.0
 45
0.0
 46
0.0
 47
0.0
 48
0.0
 49
0.0
140
0.0
141
0.0
142
1.0
143
1.0
 70
1712
 72
0
 73
0
 74
0
  7

 75
0
147
1.0
148
0.0
149
0.0
100
AcDbLayout
  1
Model
 70
1
 71
0
 10
0.0
 20
0.0
 11
12.0
 21
9.0
 12
0.0
 22
0.0
 32
0.0
 14
0.0
 24
0.0
 34
0.0
 15
0.0
 25
0.0
 35
0.0
146
0.0
 13
0.0
 23
0.0
 33
0.0
 16
1.0
 26
0.0
 36
0.0
 17
0.0
 27
1.0
 37
0.0
 76
0
330
1F
  0
LAYOUT
  5
26
100
AcDbPlotSettings
  1

  2
none_device
  4

  6

 40
0.0
 41
0.0
 42
0.0
 43
0.0
 44
0.0
 45
0.0
 46
0.0
 47
0.0
 48
0.0
 49
0.0
140
0.0
141
0.0
142
1.0
143
1.0
 70
688
 72
0
 73
0
 74
5
  7

 75
16
147
1.0
148
0.0
149
0.0
100
AcDbLayout
  1
Layout2
 70
1
 71
2
 10
0.0
 20
0.0
 11
12.0
 21
9.0
 12
0.0
 22
0.0
 32
0.0
 14
0.0
 24
0.0
 34
0.0
 15
0.0
 25
0.0
 35
0.0
146
0.0
 13
0.0
 23
0.0
 33
0.0
 16
1.0
 26
0.0
 36
0.0
 17
0.0
 27
1.0
 37
0.0
 76
0
330
23
  0
DICTIONARY
  5
162
100
AcDbDictionary
281
1
  3
DIMASSOC
350
165
  3
HIDETEXT
350
164
  0
DICTIONARYVAR
  5
164
100
DictionaryVariables
280
0
  1
2
  0
DICTIONARYVAR
  5
165
100
DictionaryVariables
280
0
  1
1
  0
DICTIONARY
  5
163
100
AcDbDictionary
281
1
  3
Grid/DisplayGrid00
350
166
  3
Grid/DisplayGrid01
350
167
  3
Grid/DisplayGrid02
350
168
  3
Grid/DisplayGrid03
350
169
  3
Grid/GridSpacingX00
350
16A
  3
Grid/GridSpacingX01
350
16B
  3
Grid/GridSpacingX02
350
16C
  3
Grid/GridSpacingX03
350
16D
  3
Grid/GridSpacingY00
350
16E
  3
Grid/GridSpacingY01
350
16F
  3
Grid/GridSpacingY02
350
170
  3
Grid/GridSpacingY03
350
171
  3
Grid/IsometricGrid00
350
172
  3
Grid/IsometricGrid01
350
173
  3
Grid/IsometricGrid02
350
174
  3
Grid/IsometricGrid03
350
175
  3
Grid/IsometricProjection00
350
176
  3
Grid/IsometricProjection01
350
177
  3
Grid/IsometricProjection02
350
178
  3
Grid/IsometricProjection03
350
179
  3
Grid/MetaGridSpacingX00
350
17A
  3
Grid/MetaGridSpacingX01
350
17B
  3
Grid/MetaGridSpacingX02
350
17C
  3
Grid/MetaGridSpacingX03
350
17D
  3
Grid/MetaGridSpacingY00
350
17E
  3
Grid/MetaGridSpacingY01
350
17F
  3
Grid/MetaGridSpacingY02
350
180
  3
Grid/MetaGridSpacingY03
350
181
  3
MultiPageSettings/Columns
350
182
  3
MultiPageSettings/GlueMarginsBottom
350
183
  3
MultiPageSettings/GlueMarginsLeft
350
184
  3
MultiPageSettings/GlueMarginsRight
350
185
  3
MultiPageSettings/GlueMarginsTop
350
186
  3
MultiPageSettings/PrintCropMarks
350
187
  3
MultiPageSettings/Rows
350
188
  3
PageSettings/OffsetX
350
189
  3
PageSettings/OffsetY
350
18A
  3
PageSettings/PageOrientation
350
18B
  3
PageSettings/PaperHeight
350
18C
  3
PageSettings/PaperWidth
350
18D
  3
PageSettings/Scale
350
18E
  3
PageSettings/ShowPaperBorders
350
18F
  3
UnitSettings/PaperUnit
350
190
  0
XRECORD
  5
166
330
163
100
AcDbXrecord
280
1
290
1
  0
XRECORD
  5
167
330
163
100
AcDbXrecord
280
1
290
1
  0
XRECORD
  5
168
330
163
100
AcDbXrecord
280
1
290
1
  0
XRECORD
  5
169
330
163
100
AcDbXrecord
280
1
290
1
  0
XRECORD
  5
16A
330
163
100
AcDbXrecord
280
1
1000
auto
  0
XRECORD
  5
16B
330
163
100
AcDbXrecord
280
1
1000
auto
  0
XRECORD
  5
16C
330
163
100
AcDbXrecord
280
1
1000
auto
  0
XRECORD
  5
16D
330
163
100
AcDbXrecord
280
1
1000
auto
  0
XRECORD
  5
16E
330
163
100
AcDbXrecord
280
1
1000
auto
  0
XRECORD
  5
16F
330
163
100
AcDbXrecord
280
1
1000
auto
  0
XRECORD
  5
170
330
163
100
AcDbXrecord
280
1
1000
auto
  0
XRECORD
  5
171
330
163
100
AcDbXrecord
280
1
1000
auto
  0
XRECORD
  5
172
330
163
100
AcDbXrecord
280
1
290
0
  0
XRECORD
  5
173
330
163
100
AcDbXrecord
280
1
290
0
  0
XRECORD
  5
174
330
163
100
AcDbXrecord
280
1
290
0
  0
XRECORD
  5
175
330
163
100
AcDbXrecord
280
1
290
0
  0
XRECORD
  5
176
330
163
100
AcDbXrecord
280
1
 90
0
  0
XRECORD
  5
177
330
163
100
AcDbXrecord
280
1
 90
0
  0
XRECORD
  5
178
330
163
100
AcDbXrecord
280
1
 90
0
  0
XRECORD
  5
179
330
163
100
AcDbXrecord
280
1
 90
0
  0
XRECORD
  5
17A
330
163
100
AcDbXrecord
280
1
1000
auto
  0
XRECORD
  5
17B
330
163
100
AcDbXrecord
280
1
1000
auto
  0
XRECORD
  5
17C
330
163
100
AcDbXrecord
280
1
1000
auto
  0
XRECORD
  5
17D
330
163
100
AcDbXrecord
280
1
1000
auto
  0
XRECORD
  5
17E
330
163
100
AcDbXrecord
280
1
1000
auto
  0
XRECORD
  5
17F
330
163
100
AcDbXrecord
280
1
1000
auto
  0
XRECORD
  5
180
330
163
100
AcDbXrecord
280
1
1000
auto
  0
XRECORD
  5
181
330
163
100
AcDbXrecord
280
1
1000
auto
  0
XRECORD
  5
182
330
163
100
AcDbXrecord
280
1
 90
1
  0
XRECORD
  5
183
330
163
100
AcDbXrecord
280
1
 40
10.0
  0
XRECORD
  5
184
330
163
100
AcDbXrecord
280
1
 40
10.0
  0
XRECORD
  5
185
330
163
100
AcDbXrecord
280
1
 40
10.0
  0
XRECORD
  5
186
330
163
100
AcDbXrecord
280
1
 40
10.0
  0
XRECORD
  5
187
330
163
100
AcDbXrecord
280
1
290
0
  0
XRECORD
  5
188
330
163
100
AcDbXrecord
280
1
 90
1
  0
XRECORD
  5
189
330
163
100
AcDbXrecord
280
1
 40
0.0
  0
XRECORD
  5
18A
330
163
100
AcDbXrecord
280
1
 40
0.0
  0
XRECORD
  5
18B
330
163
100
AcDbXrecord
280
1
1000
Portrait
  0
XRECORD
  5
18C
330
163
100
AcDbXrecord
280
1
 40
297.0
  0
XRECORD
  5
18D
330
163
100
AcDbXrecord
280
1
 40
210.0
  0
XRECORD
  5
18E
330
163
100
AcDbXrecord
280
1
1000
1:1
  0
XRECORD
  5
18F
330
163
100
AcDbXrecord
280
1
290
1
  0
XRECORD
  5
190
330
163
100
AcDbXrecord
280
1
 90
4
  0
ENDSEC
  0
EOF
