<?xml version="1.0" encoding="UTF-8"?>
<!-- 2014-01-26 21:51:18 Generated by QCAD SVG Exporter -->
<svg width="370.0000000000001mm" height="378mm" viewBox="0 -370 370.0000000000001 378" version="1.1" xmlns="http://www.w3.org/2000/svg" style="stroke-linecap:round;stroke-linejoin:round;fill:none">
    <g transform="scale(1,-1)">
        <!-- Line -->
        <!-- Circle -->
        <circle cx="3" cy="90" r="1.5" style="stroke:#00ff00;stroke-width:0.25;"/>
        <!-- Circle -->
        <circle cx="266.5000000000001" cy="309.4999999999987" r="1.5" style="stroke:#ff00ff;stroke-width:0.5;"/>
        <!-- Circle -->
        <circle cx="266.5000000000002" cy="289.4999999999987" r="1.5" style="stroke:#ff00ff;stroke-width:0.5;"/>
        <!-- Circle -->
        <circle cx="199.5000000000004" cy="119.4999999999987" r="1.5" style="stroke:#ff00ff;stroke-width:0.5;"/>
        <!-- Circle -->
        <circle cx="199.5" cy="139.4999999999987" r="1.5" style="stroke:#ff00ff;stroke-width:0.5;"/>
        <!-- Circle -->
        <circle cx="304.0000000000001" cy="318.9999999999987" r="1.5" style="stroke:#00ff00;stroke-width:0.25;"/>
        <!-- Circle -->
        <circle cx="95.00000000000018" cy="318.9999999999988" r="1.5" style="stroke:#00ff00;stroke-width:0.25;"/>
        <!-- Line -->
        <path d="M44.07106781186548,91.92893218813452 L44,92 " style="stroke:#ff00ff;stroke-width:0.5;"/>
        <!-- Circle -->
        <circle cx="50" cy="9" r="1.5" style="stroke:#ff00ff;stroke-width:0.5;"/>
        <!-- Circle -->
        <circle cx="320" cy="9" r="1.5" style="stroke:#ff00ff;stroke-width:0.5;"/>
        <!-- Circle -->
        <circle cx="230" cy="9" r="1.5" style="stroke:#ff00ff;stroke-width:0.5;"/>
        <!-- Circle -->
        <circle cx="140" cy="9" r="1.5" style="stroke:#ff00ff;stroke-width:0.5;"/>
        <!-- Circle -->
        <circle cx="364" cy="44" r="1.5" style="stroke:#00ff00;stroke-width:0.25;"/>
        <!-- Circle -->
        <circle cx="347.5" cy="364" r="1.5" style="stroke:#ff00ff;stroke-width:0.5;"/>
        <!-- Circle -->
        <circle cx="232.0000000000001" cy="286.4999999999987" r="1.5" style="stroke:#00ff00;stroke-width:0.25;"/>
        <!-- Line -->
        <!-- Line -->
        <!-- Circle -->
        <circle cx="199.5000000000001" cy="109.9999999999987" r="1.5" style="stroke:#00ff00;stroke-width:0.25;"/>
        <!-- Circle -->
        <circle cx="51.29999999999997" cy="91" r="1.5" style="stroke:#00ff00;stroke-width:0.25;"/>
        <!-- Circle -->
        <circle cx="3.00000000000005" cy="172.4" r="1.5" style="stroke:#00ff00;stroke-width:0.25;"/>
        <!-- Circle -->
        <circle cx="132.4999999999999" cy="309.4999999999987" r="1.5" style="stroke:#ff00ff;stroke-width:0.5;"/>
        <!-- Circle -->
        <circle cx="132.5000000000001" cy="289.499999999999" r="1.5" style="stroke:#ff00ff;stroke-width:0.5;"/>
        <!-- Arc -->
        <!-- Arc -->
        <!-- Circle -->
        <circle cx="362.5" cy="364" r="1.5" style="stroke:#ff00ff;stroke-width:0.5;"/>
        <!-- Circle -->
        <circle cx="22.49999999999997" cy="364.0000000000004" r="1.5" style="stroke:#ff00ff;stroke-width:0.5;"/>
        <!-- Circle -->
        <circle cx="7.499999999999972" cy="364.0000000000005" r="1.5" style="stroke:#ff00ff;stroke-width:0.5;"/>
        <!-- Circle -->
        <circle cx="338" cy="44" r="1.5" style="stroke:#00ff00;stroke-width:0.25;"/>
        <!-- Circle -->
        <circle cx="364" cy="6" r="1.5" style="stroke:#00ff00;stroke-width:0.25;"/>
        <!-- Circle -->
        <circle cx="6.000000000000114" cy="6.00000000000009" r="1.5" style="stroke:#00ff00;stroke-width:0.25;"/>
        <!-- Circle -->
        <circle cx="6.000000000000171" cy="44.00000000000018" r="1.5" style="stroke:#00ff00;stroke-width:0.25;"/>
        <!-- Arc -->
        <!-- Circle -->
        <circle cx="32.0000000000002" cy="44.00000000000021" r="1.5" style="stroke:#00ff00;stroke-width:0.25;"/>
        <!-- Circle -->
        <circle cx="112.4999999999999" cy="98.99999999999882" r="4" style="stroke:#ff0000;stroke-width:0.25;"/>
        <!-- Circle -->
        <circle cx="112.5" cy="268.9999999999988" r="4" style="stroke:#ff0000;stroke-width:0.25;"/>
        <!-- Circle -->
        <circle cx="83.99999999999996" cy="250.9999999999987" r="6.7" style="stroke:#000000;stroke-width:0.25;"/>
        <!-- Circle -->
        <circle cx="83.99999999999996" cy="116.9999999999987" r="6.7" style="stroke:#000000;stroke-width:0.25;"/>
        <!-- Line -->
        <!-- Circle -->
        <circle cx="240.0000000000005" cy="98.99999999999878" r="4" style="stroke:#ff0000;stroke-width:0.25;"/>
        <!-- Circle -->
        <circle cx="240.0000000000005" cy="268.9999999999988" r="4" style="stroke:#ff0000;stroke-width:0.25;"/>
        <!-- Circle -->
        <circle cx="268.5000000000005" cy="250.9999999999987" r="6.7" style="stroke:#000000;stroke-width:0.25;"/>
        <!-- Circle -->
        <circle cx="268.5000000000005" cy="116.9999999999987" r="6.7" style="stroke:#000000;stroke-width:0.25;"/>
        <!-- Circle -->
        <circle cx="249.0000000000005" cy="247.9999999999987" r="1.5" style="stroke:#ff00ff;stroke-width:0.5;"/>
        <!-- Circle -->
        <circle cx="249.0000000000005" cy="234.9999999999987" r="1.5" style="stroke:#ff00ff;stroke-width:0.5;"/>
        <!-- Circle -->
        <circle cx="346.0000000000001" cy="91" r="1.5" style="stroke:#00ff00;stroke-width:0.25;"/>
        <!-- Circle -->
        <circle cx="204.4999999999999" cy="286.4999999999987" r="1.5" style="stroke:#00ff00;stroke-width:0.25;"/>
        <!-- Polyline -->
        <path d="M122,268.99999999999875 A9.500000000000036,9.500000000000036 0 0,1 112.4999999999999,278.4999999999988 M112.4999999999999,278.4999999999988 L70.49999999999994,278.4999999999987 M70.49999999999994,278.4999999999987 A9.500000000000002,9.500000000000002 0 0,1 60.99999999999997,268.9999999999987 M60.99999999999997,268.9999999999987 L60.99999999999997,98.9999999999988 M60.99999999999998,98.9999999999988 A9.500000000000009,9.500000000000009 0 0,1 70.49999999999997,89.49999999999879 M70.49999999999997,89.49999999999879 L112.4999999999999,89.49999999999882 M112.4999999999999,89.49999999999882 A9.500000000000002,9.500000000000002 0 0,1 121.9999999999999,98.99999999999882 M121.9999999999999,98.99999999999882 L122,268.9999999999988 " style="stroke:#000000;stroke-width:0.25;"/>
        <!-- Circle -->
        <circle cx="194.012845943961" cy="258.5188637071435" r="1.5" style="stroke:#00ff00;stroke-width:0.25;"/>
        <!-- Polyline -->
        <path d="M184.262845943961,215.1188637071435 L184.262845943961,199.1188637071435 M184.262845943961,199.1188637071435 A3.5,3.5 0 0,1 191.262845943961,199.1188637071435 M191.262845943961,199.1188637071435 L191.262845943961,215.1188637071435 M191.262845943961,215.1188637071435 A3.5,3.5 0 0,1 184.262845943961,215.1188637071435 " style="stroke:#0000ff;stroke-width:0.25;"/>
        <!-- Polyline -->
        <path d="M196.762845943961,215.1188637071435 L196.762845943961,199.1188637071435 M196.762845943961,199.1188637071435 A3.5,3.5 0 0,1 203.762845943961,199.1188637071435 M203.762845943961,199.1188637071435 L203.762845943961,215.1188637071435 M203.762845943961,215.1188637071435 A3.5,3.5 0 0,1 196.762845943961,215.1188637071435 " style="stroke:#0000ff;stroke-width:0.25;"/>
        <!-- Polyline -->
        <path d="M181.262845943961,250.4188637071435 A3.0000000000000027,3.0000000000000027 0 0,0 184.262845943961,253.4188637071435 M184.262845943961,253.4188637071435 L200.762845943961,253.4188637071435 M200.762845943961,253.4188637071435 A3,3 0 0,0 203.762845943961,250.4188637071435 M203.762845943961,250.4188637071435 L203.762845943961,242.6188637071435 M203.762845943961,242.6188637071435 A3,3 0 0,0 200.762845943961,239.6188637071435 M200.762845943961,239.6188637071435 L184.262845943961,239.6188637071435 M184.262845943961,239.6188637071435 A3,3 0 0,0 181.262845943961,242.6188637071435 M181.262845943961,242.6188637071435 L181.262845943961,250.4188637071435 " style="stroke:#0000ff;stroke-width:0.25;"/>
        <!-- Polyline -->
        <path d="M187.512845943961,208.5188637071435 A3,3 0 0,0 190.512845943961,211.5188637071435 M190.512845943961,211.5188637071435 L197.762845943961,211.5188637071435 M197.762845943961,211.5188637071435 A3,3 0 0,0 200.762845943961,208.5188637071435 M200.762845943961,208.5188637071435 L200.762845943961,205.7188637071435 M200.762845943961,205.7188637071435 A3,3 0 0,0 197.762845943961,202.7188637071435 M197.762845943961,202.7188637071435 L190.512845943961,202.7188637071435 M190.512845943961,202.7188637071435 A3,3 0 0,0 187.512845943961,205.7188637071435 M187.512845943961,205.7188637071435 L187.512845943961,208.5188637071435 " style="stroke:#ff00ff;stroke-width:0.25;"/>
        <!-- Polyline -->
        <path d="M160.6999999999999,52 L176.6999999999999,52 M176.6999999999999,52 A3.5,3.5 0 0,0 176.6999999999999,45 M176.6999999999999,45 L160.6999999999999,45 M160.6999999999999,45 A3.5,3.5 0 0,0 160.6999999999999,52 " style="stroke:#0000ff;stroke-width:0.25;"/>
        <!-- Circle -->
        <circle cx="161.4399999999999" cy="92.25" r="2" style="stroke:#ff0000;stroke-width:0.25;"/>
        <!-- Circle -->
        <circle cx="156.6999999999999" cy="54.75" r="1.5" style="stroke:#0000ff;stroke-width:0.25;"/>
        <!-- Circle -->
        <circle cx="180.6999999999999" cy="54.74999999999997" r="1.5" style="stroke:#0000ff;stroke-width:0.25;"/>
        <!-- Circle -->
        <circle cx="156.6999999999999" cy="113.25" r="1.5" style="stroke:#0000ff;stroke-width:0.25;"/>
        <!-- Polyline -->
        <path d="M167.2999999999999,61.25 A3,3 0 0,1 164.2999999999999,58.25 M164.2999999999999,58.25 L164.2999999999999,51 M164.2999999999999,51 A3,3 0 0,1 167.2999999999999,48 M167.2999999999999,48 L170.0999999999999,48 M170.0999999999999,48 A3,3 0 0,1 173.0999999999999,51 M173.0999999999999,51 L173.0999999999999,58.25 M173.0999999999999,58.25 A3,3 0 0,1 170.0999999999999,61.25 M170.0999999999999,61.25 L167.2999999999999,61.25 " style="stroke:#ff00ff;stroke-width:0.25;"/>
        <!-- Polyline -->
        <path d="M179.6999999999999,77.24999999999999 A2.9999999999999862,2.9999999999999862 0 0,1 176.6999999999999,80.24999999999997 M176.6999999999999,80.24999999999997 L160.6999999999999,80.25 M160.6999999999999,80.25 A3,3 0 0,1 157.6999999999999,77.25 M157.6999999999999,77.25 L157.6999999999999,60.5 M157.6999999999999,60.5 A3,3 0 0,1 160.6999999999999,57.5 M160.6999999999999,57.5 L176.6999999999999,57.5 M176.6999999999999,57.5 A3,3 0 0,1 179.6999999999999,60.5 M179.6999999999999,60.5 L179.6999999999999,77.25 " style="stroke:#0000ff;stroke-width:0.25;"/>
        <!-- Polyline -->
        <path d="M149.9999999999999,54 A5.000000000000001,5.000000000000001 0 0,1 154.9999999999999,49 M154.9999999999999,49 L188.9999999999999,49 M188.9999999999999,49 A5.000000000000001,5.000000000000001 0 0,1 193.9999999999999,54 M193.9999999999999,54 L193.9999999999999,55.5 M193.9999999999999,55.5 A5.000000000000001,5.000000000000001 0 0,1 188.9999999999999,60.5 M188.9999999999999,60.5 L170.9999999999999,60.5 M170.9999999999999,60.5 A5.000000000000001,5.000000000000001 0 0,0 165.9999999999999,65.5 M165.9999999999999,65.5 L165.9999999999999,113.25 M165.9999999999999,113.25 A5.000000000000001,5.000000000000001 0 0,1 160.9999999999999,118.25 M160.9999999999999,118.25 L154.9999999999999,118.25 M154.9999999999999,118.25 A5.000000000000001,5.000000000000001 0 0,1 149.9999999999999,113.25 M149.9999999999999,113.25 L149.9999999999999,54 " style="stroke:#000000;stroke-width:0.25;"/>
        <!-- Circle -->
        <circle cx="132.5599999999999" cy="92.25" r="2" style="stroke:#ff0000;stroke-width:0.25;"/>
        <!-- Circle -->
        <circle cx="137.2999999999999" cy="54.75" r="1.5" style="stroke:#0000ff;stroke-width:0.25;"/>
        <!-- Circle -->
        <circle cx="113.2999999999999" cy="54.74999999999997" r="1.5" style="stroke:#0000ff;stroke-width:0.25;"/>
        <!-- Circle -->
        <circle cx="137.2999999999999" cy="113.25" r="1.5" style="stroke:#0000ff;stroke-width:0.25;"/>
        <!-- Polyline -->
        <path d="M143.9999999999999,53.999999999999986 A4.999999999999986,4.999999999999986 0 0,0 138.9999999999999,49 M138.9999999999999,49 L104.9999999999999,49 M104.9999999999999,49 A5.000000000000014,5.000000000000014 0 0,0 99.99999999999987,54.000000000000014 M99.99999999999987,54 L99.99999999999993,55.5 M99.99999999999993,55.500000000000014 A4.999999999999986,4.999999999999986 0 0,0 104.9999999999999,60.5 M104.9999999999999,60.5 L122.9999999999999,60.5 M122.9999999999999,60.5 A5.000000000000001,5.000000000000001 0 0,1 127.9999999999999,65.5 M127.9999999999999,65.5 L127.9999999999999,113.25 M127.99999999999989,113.25 A4.999999999999993,4.999999999999993 0 0,0 132.9999999999999,118.25 M132.9999999999999,118.25 L138.9999999999999,118.2499999999999 M138.9999999999999,118.2499999999999 A4.999999999999951,4.999999999999951 0 0,0 143.9999999999999,113.24999999999994 M143.9999999999999,113.25 L143.9999999999999,53.99999999999997 " style="stroke:#000000;stroke-width:0.25;"/>
        <!-- Polyline -->
        <path d="M129.1999999999999,80.24999999999997 A3.0000000000000027,3.0000000000000027 0 0,0 132.1999999999999,77.24999999999997 M132.1999999999999,77.24999999999997 L132.1999999999999,59 M132.1999999999999,59 A3,3 0 0,0 129.1999999999999,56 M129.1999999999999,56 L121.3999999999999,56 M121.3999999999999,56 A3,3 0 0,0 118.3999999999999,59 M118.3999999999999,59 L118.3999999999999,77.24999999999997 M118.3999999999999,77.24999999999997 A3,3 0 0,0 121.3999999999999,80.24999999999997 M121.3999999999999,80.24999999999997 L129.1999999999999,80.24999999999997 " style="stroke:#0000ff;stroke-width:0.25;"/>
        <!-- Circle -->
        <circle cx="172.012845943961" cy="187.3188637071435" r="1.5" style="stroke:#0000ff;stroke-width:0.25;"/>
        <!-- Circle -->
        <circle cx="172.012845943961" cy="218.3188637071435" r="1.5" style="stroke:#0000ff;stroke-width:0.25;"/>
        <!-- Circle -->
        <circle cx="135.512845943961" cy="226.8188637071435" r="1.5" style="stroke:#00ff00;stroke-width:0.25;"/>
        <!-- Line -->
        <!-- Circle -->
        <circle cx="156.512845943961" cy="214.3788637071435" r="2" style="stroke:#ff0000;stroke-width:0.25;"/>
        <!-- Line -->
        <!-- Circle -->
        <circle cx="141.012845943961" cy="218.3188637071435" r="1.5" style="stroke:#0000ff;stroke-width:0.25;"/>
        <!-- Circle -->
        <circle cx="194.012845943961" cy="219.1188637071435" r="1.5" style="stroke:#00ff00;stroke-width:0.25;"/>
        <!-- Circle -->
        <circle cx="194.012845943961" cy="195.1188637071435" r="1.5" style="stroke:#00ff00;stroke-width:0.25;"/>
        <!-- Circle -->
        <circle cx="177.512845943961" cy="226.8188637071435" r="1.5" style="stroke:#00ff00;stroke-width:0.25;"/>
        <!-- Line -->
        <!-- Circle -->
        <circle cx="135.512845943961" cy="219.1188637071435" r="1.5" style="stroke:#00ff00;stroke-width:0.25;"/>
        <!-- Arc -->
        <!-- Line -->
        <!-- Circle -->
        <circle cx="135.512845943961" cy="234.5188637071435" r="1.5" style="stroke:#00ff00;stroke-width:0.25;"/>
        <!-- Circle -->
        <circle cx="172.0128459439611" cy="266.3188637071435" r="1.5" style="stroke:#0000ff;stroke-width:0.25;"/>
        <!-- Circle -->
        <circle cx="172.012845943961" cy="235.3188637071435" r="1.5" style="stroke:#0000ff;stroke-width:0.25;"/>
        <!-- Line -->
        <!-- Circle -->
        <circle cx="156.512845943961" cy="239.2588637071435" r="2" style="stroke:#ff0000;stroke-width:0.25;"/>
        <!-- Line -->
        <!-- Circle -->
        <circle cx="141.012845943961" cy="235.3188637071435" r="1.5" style="stroke:#0000ff;stroke-width:0.25;"/>
        <!-- Circle -->
        <circle cx="194.012845943961" cy="234.5188637071435" r="1.5" style="stroke:#00ff00;stroke-width:0.25;"/>
        <!-- Line -->
        <!-- Circle -->
        <circle cx="19.09999999999997" cy="218.25" r="1.5" style="stroke:#00ff00;stroke-width:0.25;"/>
        <!-- Polyline -->
        <path d="M129.1999999999999,53 A3.0000000000000027,3.0000000000000027 0 0,0 132.1999999999999,50 M132.1999999999999,50 L132.1999999999999,45.75000000000003 M132.1999999999999,45.75000000000003 A3,3 0 0,0 129.1999999999999,42.75000000000003 M129.1999999999999,42.75000000000003 L121.3999999999999,42.75000000000003 M121.3999999999999,42.75000000000003 A3,3 0 0,0 118.3999999999999,45.75000000000003 M118.3999999999999,45.75000000000003 L118.3999999999999,50 M118.3999999999999,50 A3,3 0 0,0 121.3999999999999,53 M121.3999999999999,53 L129.1999999999999,53 " style="stroke:#0000ff;stroke-width:0.25;"/>
        <!-- Polyline -->
        <path d="M121.3999999999999,62.25 A3,3 0 0,1 118.3999999999999,59.25 M118.3999999999999,59.25 L118.3999999999998,50 M118.3999999999998,50.00000000000005 A3.00000000000005,3.00000000000005 0 0,1 121.3999999999999,47 M121.3999999999999,47 L129.1999999999998,47 M129.1999999999998,47 A3,3 0 0,1 132.1999999999998,50 M132.1999999999998,50 L132.1999999999998,59.25 M132.1999999999998,59.25 A3,3 0 0,1 129.1999999999998,62.25 M129.1999999999998,62.25 L121.3999999999999,62.25 " style="stroke:#ff00ff;stroke-width:0.25;"/>
        <!-- Polyline -->
        <path d="M0,370 L370,370 M370,370 L370,0 M370.0000000000001,0 L0,0 M0,0 L0,370 " style="stroke:#000000;stroke-width:0.25;"/>
        <!-- Polyline -->
        <path d="M54.99999999999997,318.9999999999987 A11,11 0 0,0 65.99999999999997,329.9999999999987 M65.99999999999997,329.9999999999987 L304.0000000000003,329.9999999999987 M304.0000000000003,329.9999999999987 A10.999999999999945,10.999999999999945 0 0,0 315.0000000000003,318.99999999999875 M315.0000000000003,318.9999999999988 L315.0000000000018,55 M315.0000000000018,55 A11,11 0 0,0 304.0000000000018,44 M304.0000000000018,44 L262.1,44 M262.1,44 A5.000000000000029,5.000000000000029 0 0,1 257.1,38.99999999999997 M257.1,38.99999999999994 L257.1000000000001,28 M257.1000000000001,28.00000000000006 A5.099999999999994,5.099999999999994 0 0,0 246.9000000000001,28.00000000000006 M246.9000000000001,27.99999999999992 A128.89999999994419,128.89999999994419 0 0,1 246.8837348207313,30.047656870531977 M246.88373482073126,30.04765687053216 A2.999999999999985,2.999999999999985 0 0,1 243.8841133741666,33 M243.8841133741666,33 L126.1158866258336,33.00000000000003 M126.1158866258336,33.00000000000003 A2.999999999999618,2.999999999999618 0 0,1 123.1162651792689,30.04765687053293 M123.11626517926888,30.047656870533018 A128.89999999999785,128.89999999999785 0 0,1 123.10000000000008,28.00000000000014 M123.1000000000001,28.00000000000003 A5.099999999999994,5.099999999999994 0 0,0 112.9000000000001,28.00000000000003 M112.9000000000001,28.00000000000003 L112.9000000000001,39.00000000000002 M112.9000000000001,39.00000000000002 A5.000000000000001,5.000000000000001 0 0,1 107.9000000000001,44.00000000000002 M107.9000000000001,44.00000000000002 L65.99999999999943,44 M65.99999999999943,44 A11.00000000000002,11.00000000000002 0 0,0 54.99999999999941,55.00000000000002 M54.99999999999942,55.00000000000002 L54.99999999999997,318.9999999999987 " style="stroke:#000000;stroke-width:0.25;"/>
        <!-- Polyline -->
        <path d="M123.4929631039557,284.4999999999989 A3.000000000000031,3.000000000000031 0 0,0 120.4929631039557,287.499999999999 M120.4929631039557,287.499999999999 L120.4929631039558,291.1999999999987 M120.49296310395582,291.19999999999874 A2.9999999999999583,2.9999999999999583 0 0,0 123.4929631039557,294.1999999999987 M123.4929631039557,294.1999999999987 L144.4929631039558,294.1999999999988 M144.4929631039558,294.1999999999988 A2.9999999999999565,2.9999999999999565 0 0,1 147.4929631039558,297.19999999999874 M147.4929631039558,297.1999999999987 L147.4929631039559,301.7999999999989 M147.4929631039559,301.7999999999989 A3,3 0 0,1 144.4929631039559,304.7999999999989 M144.4929631039559,304.7999999999989 L123.4929631039557,304.7999999999988 M123.4929631039557,304.7999999999988 A2.999999999999993,2.999999999999993 0 0,0 120.4929631039557,307.7999999999988 M120.4929631039557,307.7999999999988 L120.4929631039559,310.9999999999989 M120.4929631039559,310.9999999999987 A2.9999999999999885,2.9999999999999885 0 0,1 117.4929631039557,313.9999999999987 M117.4929631039557,313.9999999999987 L95.00000000000011,313.9999999999989 M95.00000000000011,313.9999999999989 A4.999999999999886,4.999999999999886 0 0,0 95,323.9999999999987 M95,323.9999999999987 L304.0000000000001,323.9999999999987 M304.0000000000001,323.9999999999987 A5,5 0 0,0 304.0000000000002,313.9999999999987 M304.0000000000002,313.9999999999987 L281.5070368960444,313.9999999999986 M281.5070368960444,313.9999999999986 A3,3 0 0,1 278.5070368960444,310.9999999999986 M278.5070368960444,310.9999999999986 L278.5070368960444,307.7999999999994 M278.5070368960444,307.7999999999996 A3.000000000000199,3.000000000000199 0 0,0 275.507036896044,304.7999999999994 M275.507036896044,304.7999999999994 L254.5070368960438,304.7999999999993 M254.5070368960438,304.79999999999933 A3.000000000000039,3.000000000000039 0 0,1 251.5070368960438,301.7999999999993 M251.5070368960438,301.7999999999992 L251.507036896044,297.1999999999991 M251.507036896044,297.19999999999914 A2.999999999999946,2.999999999999946 0 0,1 254.507036896044,294.1999999999992 M254.507036896044,294.1999999999992 L275.5070368960443,294.1999999999992 M275.5070368960443,294.1999999999992 A3,3 0 0,0 278.5070368960443,291.1999999999992 M278.5070368960443,291.1999999999992 L278.5070368960443,287.4999999999987 M278.5070368960443,287.4999999999987 A3,3 0 0,0 275.5070368960443,284.4999999999987 M275.5070368960443,284.4999999999987 L240.5000000000002,284.4999999999986 M240.5000000000002,284.4999999999986 A16.00000000000016,16.00000000000016 0 0,1 224.4999999999999,268.4999999999984 M224.4999999999999,268.4999999999986 L224.4999999999999,114.9999999999987 M224.4999999999999,114.9999999999987 A10.000000000000002,10.000000000000002 0 0,0 214.4999999999999,104.9999999999987 M214.4999999999999,104.9999999999987 L184.4999999999998,104.9999999999987 M184.4999999999998,104.9999999999987 A9.999999999999844,9.999999999999844 0 0,0 174.5000000000001,114.99999999999855 M174.5000000000001,114.9999999999987 L174.5,139.4999999999988 M174.49999999999997,139.4999999999989 A9.999999999999902,9.999999999999902 0 0,0 184.4999999999998,149.4999999999988 M184.4999999999998,149.4999999999988 L196.0000000000001,149.4999999999988 M196.0000000000001,149.4999999999988 A16.000000000000046,16.000000000000046 0 0,1 212.0000000000001,165.49999999999886 M212.0000000000001,165.4999999999989 L212.0000000000001,268.4999999999987 M212.0000000000001,268.4999999999987 A16.00000000000003,16.00000000000003 0 0,1 196.0000000000001,284.49999999999875 M196.0000000000001,284.4999999999987 L123.4929631039558,284.499999999999 " style="stroke:#000000;stroke-width:0.25;"/>
        <!-- Polyline -->
        <path d="M230.5000000000005,268.9999999999988 A9.500000000000025,9.500000000000025 0 0,0 240.0000000000006,278.4999999999988 M240.0000000000006,278.4999999999988 L282.0000000000006,278.4999999999986 M282.0000000000006,278.4999999999986 A9.499999999999904,9.499999999999904 0 0,0 291.5000000000005,268.9999999999987 M291.5000000000005,268.9999999999987 L291.5000000000005,98.9999999999988 M291.5000000000005,98.9999999999988 A9.500000000000002,9.500000000000002 0 0,0 282.0000000000005,89.4999999999988 M282.0000000000005,89.4999999999988 L240.0000000000005,89.49999999999878 M240.0000000000005,89.49999999999878 A9.499999999999972,9.499999999999972 0 0,0 230.5000000000006,98.99999999999875 M230.5000000000006,98.9999999999988 L230.5000000000005,268.9999999999988 " style="stroke:#000000;stroke-width:0.25;"/>
        <!-- Polyline -->
        <path d="M210.3628763929228,134.7999999999987 A4.000000000000057,4.000000000000057 0 0,0 214.3628763929229,130.79999999999865 M214.3628763929229,130.7999999999987 L214.3628763929229,128.1999999999987 M214.3628763929229,128.19999999999877 A4.000000000000064,4.000000000000064 0 0,0 210.3628763929228,124.19999999999871 M210.3628763929228,124.1999999999987 L187.3628763929228,124.1999999999987 M187.3628763929228,124.19999999999871 A4.000000000000007,4.000000000000007 0 0,0 183.3628763929228,128.1999999999987 M183.3628763929228,128.1999999999987 L183.3628763929228,130.7999999999987 M183.3628763929228,130.79999999999876 A3.9999999999999436,3.9999999999999436 0 0,0 187.3628763929227,134.7999999999987 M187.3628763929227,134.7999999999987 L210.3628763929229,134.7999999999987 " style="stroke:#000000;stroke-width:0.25;"/>
        <!-- Polyline -->
        <path d="M347,10 A3,3 0 0,0 353,10 M353,9.999999999999998 L353,-5 M353,-5 A3,3 0 0,0 347,-5 M347,-5 L347,10 " style="stroke:#000000;stroke-width:0.25;"/>
        <!-- Polyline -->
        <path d="M23,10 A3,3 0 0,1 17,10 M17,10 L17,-5 M17,-5 A3,3 0 0,1 20,-8 M20,-8 L29,-8 M29,-8 A3,3 0 0,1 32,-5 M32,-5 L32,-1 M32,-1 A3,3 0 0,1 29,2 M29,2 L24,2 M24,2 L23,3 M23,3 L23,9.999999999999998 " style="stroke:#000000;stroke-width:0.25;"/>
        <!-- Line -->
        <!-- Polyline -->
        <path d="M166.5128459439611,181.8188637071435 A5.000000000000028,5.000000000000028 0 0,0 161.512845943961,186.81886370714352 M161.512845943961,186.8188637071435 L161.512845943961,202.8188637071435 M161.512845943961,202.8188637071435 A5.000000000000001,5.000000000000001 0 0,1 156.512845943961,207.8188637071435 M156.512845943961,207.8188637071435 L135.512845943961,207.8188637071435 M135.512845943961,207.8188637071435 A5.000000000000001,5.000000000000001 0 0,0 130.512845943961,212.8188637071435 M130.512845943961,212.8188637071435 L130.512845943961,226.8188637071435 M130.512845943961,226.8188637071435 L130.512845943961,240.8188637071435 M130.512845943961,240.8188637071435 A5.000000000000001,5.000000000000001 0 0,0 135.512845943961,245.8188637071435 M135.512845943961,245.8188637071435 L156.512845943961,245.8188637071435 M156.512845943961,245.8188637071435 A5.000000000000001,5.000000000000001 0 0,1 161.512845943961,250.8188637071435 M161.512845943961,250.8188637071435 L161.512845943961,266.8188637071435 M161.512845943961,266.8188637071435 A5.000000000000028,5.000000000000028 0 0,0 166.5128459439611,271.8188637071436 M166.5128459439611,271.8188637071435 L194.762845943961,271.8188637071435 M194.762845943961,271.8188637071435 A5.000000000000001,5.000000000000001 0 0,0 199.762845943961,266.8188637071435 M199.762845943961,266.8188637071435 L199.762845943961,226.8188637071435 M199.762845943961,226.8188637071435 L199.762845943961,186.8188637071435 M199.762845943961,186.8188637071435 A5.000000000000001,5.000000000000001 0 0,0 194.762845943961,181.8188637071435 M194.762845943961,181.8188637071435 L166.5128459439611,181.8188637071435 " style="stroke:#000000;stroke-width:0.25;"/>
    </g>
</svg>
