999
dxflib 3.3.4.0
  0
SECTION
  2
HEADER
  9
$ACADVER
  1
AC1015
  9
$HANDSEED
  5
FFFF
  9
$ANGBASE
 50
0.0
  9
$ATTMODE
 70
1
  9
$AUNITS
 70
0
  9
$AUPREC
 70
0
  9
$CELTSCALE
 40
1.0
  9
$CHAMFERA
 40
0.5
  9
$CHAMFERB
 40
0.5
  9
$CHAMFERC
 40
1.0
  9
$CHAMFERD
 40
0.0
  9
$CMLJUST
 70
0
  9
$CMLSCALE
 40
1.0
  9
$DIMADEC
 70
0
  9
$DIMALTD
 70
2
  9
$DIMALTF
 40
0.0393701
  9
$DIMALTRND
 40
0.0
  9
$DIMALTTD
 70
4
  9
$DIMALTTZ
 70
0
  9
$DIMALTU
 70
2
  9
$DIMALTZ
 70
0
  9
$DIMAPOST
  1
"
  9
$DIMASZ
 40
3.5
  9
$DIMATFIT
 70
3
  9
$DIMAUNIT
 70
0
  9
$DIMAZIN
 70
2
  9
$DIMCEN
 40
0.0
  9
$DIMDEC
 70
2
  9
$DIMDLE
 40
0.0
  9
$DIMDLI
 40
10.0
  9
$DIMDSEP
 70
46
  9
$DIMEXE
 40
1.0
  9
$DIMEXO
 40
1.0
  9
$DIMFRAC
 70
0
  9
$DIMGAP
 40
1.5
  9
$DIMJUST
 70
0
  9
$DIMLFAC
 40
1.0
  9
$DIMLUNIT
 70
2
  9
$DIMLWD
 70
-1
  9
$DIMLWE
 70
-1
  9
$DIMPOST
  1

  9
$DIMRND
 40
0.0
  9
$DIMSCALE
 40
1.0
  9
$DIMTAD
 70
1
  9
$DIMTDEC
 70
3
  9
$DIMTFAC
 40
0.71
  9
$DIMTM
 40
0.1
  9
$DIMTOLJ
 70
0
  9
$DIMTP
 40
0.1
  9
$DIMTSZ
 40
0.0
  9
$DIMTVP
 40
0.0
  9
$DIMTXT
 40
3.5
  9
$DIMTZIN
 70
8
  9
$DIMZIN
 70
8
  9
$DWGCODEPAGE
  3
ANSI_1252
  9
$ELEVATION
 40
0.0
  9
$EXTMAX
 10
370.0
 20
370.0
 30
0.0
  9
$EXTMIN
 10
0.0
 20
0.0
 30
0.0
  9
$FILLETRAD
 40
0.5
  9
$INSBASE
 10
0.0
 20
0.0
 30
0.0
  9
$INSUNITS
 70
4
  9
$LIMMAX
 10
12.0
 20
9.0
  9
$LIMMIN
 10
0.0
 20
0.0
  9
$LTSCALE
 40
1.0
  9
$LUNITS
 70
2
  9
$LUPREC
 70
4
  9
$MAXACTVP
 70
64
  9
$PDMODE
 70
0
  9
$PDSIZE
 40
0.0
  9
$PELEVATION
 40
0.0
  9
$PEXTMAX
 10
-100000000000000000000.0
 20
-100000000000000000000.0
 30
-100000000000000000000.0
  9
$PEXTMIN
 10
100000000000000000000.0
 20
100000000000000000000.0
 30
100000000000000000000.0
  9
$PINSBASE
 10
0.0
 20
0.0
 30
0.0
  9
$PLIMMAX
 10
277.0
 20
202.5
  9
$PLIMMIN
 10
-20.0
 20
-7.5
  9
$PLINEWID
 40
0.0
  9
$PROXYGRAPHICS
 70
1
  9
$PUCSORG
 10
0.0
 20
0.0
 30
0.0
  9
$PUCSXDIR
 10
1.0
 20
0.0
 30
0.0
  9
$PUCSYDIR
 10
0.0
 20
1.0
 30
0.0
  9
$SHADEDGE
 70
3
  9
$SHADEDIF
 70
70
  9
$SKETCHINC
 40
0.1
  9
$SPLINESEGS
 70
8
  9
$SPLINETYPE
 70
6
  9
$SURFTAB1
 70
6
  9
$SURFTAB2
 70
6
  9
$SURFTYPE
 70
6
  9
$SURFU
 70
6
  9
$SURFV
 70
6
  9
$TEXTSIZE
 40
2.5
  9
$THICKNESS
 40
0.0
  9
$TRACEWID
 40
0.05
  9
$TREEDEPTH
 70
3020
  9
$UCSORG
 10
0.0
 20
0.0
 30
0.0
  9
$UCSXDIR
 10
1.0
 20
0.0
 30
0.0
  9
$UCSYDIR
 10
0.0
 20
1.0
 30
0.0
  9
$UNITMODE
 70
0
  9
$USERI1
 70
0
  9
$USERI2
 70
0
  9
$USERI3
 70
0
  9
$USERI4
 70
0
  9
$USERI5
 70
0
  9
$USERR1
 40
0.0
  9
$USERR2
 40
0.0
  9
$USERR3
 40
0.0
  9
$USERR4
 40
0.0
  9
$USERR5
 40
0.0
  0
ENDSEC
  0
SECTION
  2
TABLES
  0
TABLE
  2
VPORT
  5
8
100
AcDbSymbolTable
 70
1
  0
VPORT
  5
30
100
AcDbSymbolTableRecord
100
AcDbViewportTableRecord
  2
*Active
 70
0
 10
0.0
 20
0.0
 11
1.0
 21
1.0
 12
286.3055555555554861
 22
148.5
 13
0.0
 23
0.0
 14
10.0
 24
10.0
 15
10.0
 25
10.0
 16
0.0
 26
0.0
 36
1.0
 17
0.0
 27
0.0
 37
0.0
 40
297.0
 41
1.92798353909465
 42
50.0
 43
0.0
 44
0.0
 50
0.0
 51
0.0
 71
0
 72
100
 73
1
 74
3
 75
1
 76
1
 77
0
 78
0
281
0
 65
1
110
0.0
120
0.0
130
0.0
111
1.0
121
0.0
131
0.0
112
0.0
122
1.0
132
0.0
 79
0
146
0.0
  0
ENDTAB
  0
TABLE
  2
LTYPE
  5
5
100
AcDbSymbolTable
 70
21
  0
LTYPE
  5
16
100
AcDbSymbolTableRecord
100
AcDbLinetypeTableRecord
  2
CONTINUOUS
 70
0
  3
Solid line
 72
65
 73
0
 40
0.0
  0
LTYPE
  5
31
100
AcDbSymbolTableRecord
100
AcDbLinetypeTableRecord
  2
CENTER2
 70
0
  3
Center (.5x) ___ _ ___ _ ___ _ ___ _ ___ _ ___
 72
65
 73
4
 40
28.5749999999999993
 49
19.0500000000000007
 74
0
 49
-3.1749999999999998
 74
0
 49
3.1749999999999998
 74
0
 49
-3.1749999999999998
 74
0
  0
LTYPE
  5
32
100
AcDbSymbolTableRecord
100
AcDbLinetypeTableRecord
  2
DIVIDEX2
 70
0
  3
Divide (2x) ________  .  .  ________  .  .  _
 72
65
 73
6
 40
63.5
 49
25.3999999999999986
 74
0
 49
-12.6999999999999993
 74
0
 49
0.0
 74
0
 49
-12.6999999999999993
 74
0
 49
0.0
 74
0
 49
-12.6999999999999993
 74
0
  0
LTYPE
  5
33
100
AcDbSymbolTableRecord
100
AcDbLinetypeTableRecord
  2
DOT2
 70
0
  3
Dot (.5x) .....................................
 72
65
 73
2
 40
3.1749999999999998
 49
0.0
 74
0
 49
-3.1749999999999998
 74
0
  0
LTYPE
  5
34
100
AcDbSymbolTableRecord
100
AcDbLinetypeTableRecord
  2
DASHDOT2
 70
0
  3
Dash dot (.5x) _._._._._._._._._._._._._._._.
 72
65
 73
4
 40
12.6999999999999993
 49
6.3499999999999996
 74
0
 49
-3.1749999999999998
 74
0
 49
0.0
 74
0
 49
-3.1749999999999998
 74
0
  0
LTYPE
  5
35
100
AcDbSymbolTableRecord
100
AcDbLinetypeTableRecord
  2
DIVIDE
 70
0
  3
Divide ____ . . ____ . . ____ . . ____ . . ____
 72
65
 73
6
 40
31.75
 49
12.6999999999999993
 74
0
 49
-6.3499999999999996
 74
0
 49
0.0
 74
0
 49
-6.3499999999999996
 74
0
 49
0.0
 74
0
 49
-6.3499999999999996
 74
0
  0
LTYPE
  5
36
100
AcDbSymbolTableRecord
100
AcDbLinetypeTableRecord
  2
DASHDOT
 70
0
  3
Dash dot __ . __ . __ . __ . __ . __ . __ . __
 72
65
 73
4
 40
25.3999999999999986
 49
12.6999999999999993
 74
0
 49
-6.3499999999999996
 74
0
 49
0.0
 74
0
 49
-6.3499999999999996
 74
0
  0
LTYPE
  5
37
100
AcDbSymbolTableRecord
100
AcDbLinetypeTableRecord
  2
BORDER
 70
0
  3
Border __ __ . __ __ . __ __ . __ __ . __ __ .
 72
65
 73
6
 40
44.4500000000000028
 49
12.6999999999999993
 74
0
 49
-6.3499999999999996
 74
0
 49
12.6999999999999993
 74
0
 49
-6.3499999999999996
 74
0
 49
0.0
 74
0
 49
-6.3499999999999996
 74
0
  0
LTYPE
  5
38
100
AcDbSymbolTableRecord
100
AcDbLinetypeTableRecord
  2
DASHDOTX2
 70
0
  3
Dash dot (2x) ____  .  ____  .  ____  .  ___
 72
65
 73
4
 40
50.7999999999999972
 49
25.3999999999999986
 74
0
 49
-12.6999999999999993
 74
0
 49
0.0
 74
0
 49
-12.6999999999999993
 74
0
  0
LTYPE
  5
39
100
AcDbSymbolTableRecord
100
AcDbLinetypeTableRecord
  2
CENTERX2
 70
0
  3
Center (2x) ________  __  ________  __  _____
 72
65
 73
4
 40
101.5999999999999943
 49
63.5
 74
0
 49
-12.6999999999999993
 74
0
 49
12.6999999999999993
 74
0
 49
-12.6999999999999993
 74
0
  0
LTYPE
  5
3A
100
AcDbSymbolTableRecord
100
AcDbLinetypeTableRecord
  2
BORDER2
 70
0
  3
Border (.5x) __.__.__.__.__.__.__.__.__.__.__.
 72
65
 73
6
 40
22.2250000000000014
 49
6.3499999999999996
 74
0
 49
-3.1749999999999998
 74
0
 49
6.3499999999999996
 74
0
 49
-3.1749999999999998
 74
0
 49
0.0
 74
0
 49
-3.1749999999999998
 74
0
  0
LTYPE
  5
3B
100
AcDbSymbolTableRecord
100
AcDbLinetypeTableRecord
  2
BORDERX2
 70
0
  3
Border (2x) ____  ____  .  ____  ____  .  ___
 72
65
 73
6
 40
88.9000000000000057
 49
25.3999999999999986
 74
0
 49
-12.6999999999999993
 74
0
 49
25.3999999999999986
 74
0
 49
-12.6999999999999993
 74
0
 49
0.0
 74
0
 49
-12.6999999999999993
 74
0
  0
LTYPE
  5
14
100
AcDbSymbolTableRecord
100
AcDbLinetypeTableRecord
  2
BYBLOCK
 70
0
  3

 72
65
 73
0
 40
0.0
  0
LTYPE
  5
15
100
AcDbSymbolTableRecord
100
AcDbLinetypeTableRecord
  2
BYLAYER
 70
0
  3

 72
65
 73
0
 40
0.0
  0
LTYPE
  5
3C
100
AcDbSymbolTableRecord
100
AcDbLinetypeTableRecord
  2
DASHED2
 70
0
  3
Dashed (.5x) _ _ _ _ _ _ _ _ _ _ _ _ _ _ _ _ _
 72
65
 73
2
 40
9.5250000000000004
 49
6.3499999999999996
 74
0
 49
-3.1749999999999998
 74
0
  0
LTYPE
  5
3D
100
AcDbSymbolTableRecord
100
AcDbLinetypeTableRecord
  2
CENTER
 70
0
  3
Center ____ _ ____ _ ____ _ ____ _ ____ _ ____
 72
65
 73
4
 40
50.7999999999999972
 49
31.75
 74
0
 49
-6.3499999999999996
 74
0
 49
6.3499999999999996
 74
0
 49
-6.3499999999999996
 74
0
  0
LTYPE
  5
3E
100
AcDbSymbolTableRecord
100
AcDbLinetypeTableRecord
  2
DIVIDE2
 70
0
  3
Divide (.5x) __..__..__..__..__..__..__..__.._
 72
65
 73
6
 40
15.875
 49
6.3499999999999996
 74
0
 49
-3.1749999999999998
 74
0
 49
0.0
 74
0
 49
-3.1749999999999998
 74
0
 49
0.0
 74
0
 49
-3.1749999999999998
 74
0
  0
LTYPE
  5
3F
100
AcDbSymbolTableRecord
100
AcDbLinetypeTableRecord
  2
DASHED
 70
0
  3
Dashed __ __ __ __ __ __ __ __ __ __ __ __ __ _
 72
65
 73
2
 40
19.0500000000000007
 49
12.6999999999999993
 74
0
 49
-6.3499999999999996
 74
0
  0
LTYPE
  5
40
100
AcDbSymbolTableRecord
100
AcDbLinetypeTableRecord
  2
DOTX2
 70
0
  3
Dot (2x) .  .  .  .  .  .  .  .  .  .  .  .  .
 72
65
 73
2
 40
12.6999999999999993
 49
0.0
 74
0
 49
-12.6999999999999993
 74
0
  0
LTYPE
  5
41
100
AcDbSymbolTableRecord
100
AcDbLinetypeTableRecord
  2
DASHEDX2
 70
0
  3
Dashed (2x) ____  ____  ____  ____  ____  ___
 72
65
 73
2
 40
38.1000000000000014
 49
25.3999999999999986
 74
0
 49
-12.6999999999999993
 74
0
  0
LTYPE
  5
42
100
AcDbSymbolTableRecord
100
AcDbLinetypeTableRecord
  2
DOT
 70
0
  3
Dot . . . . . . . . . . . . . . . . . . . . . .
 72
65
 73
2
 40
6.3499999999999996
 49
0.0
 74
0
 49
-6.3499999999999996
 74
0
  0
ENDTAB
  0
TABLE
  2
LAYER
  5
2
100
AcDbSymbolTable
 70
8
  0
LAYER
  5
43
100
AcDbSymbolTableRecord
100
AcDbLayerTableRecord
  2
Mill 3mm Deep
 70
0
 62
2
420
16776960
  6
CONTINUOUS
370
25
390
F
  0
LAYER
  5
44
100
AcDbSymbolTableRecord
100
AcDbLayerTableRecord
  2
Hole M3
 70
0
 62
3
420
65280
  6
CONTINUOUS
370
25
390
F
  0
LAYER
  5
45
100
AcDbSymbolTableRecord
100
AcDbLayerTableRecord
  2
Hole 3.5 mm Counter Sunk
 70
0
 62
4
420
65535
  6
CONTINUOUS
370
25
390
F
  0
LAYER
  5
46
100
AcDbSymbolTableRecord
100
AcDbLayerTableRecord
  2
Hole 4mm and 5mm Deep
 70
0
 62
14
420
8388608
  6
CONTINUOUS
370
25
390
F
  0
LAYER
  5
47
100
AcDbSymbolTableRecord
100
AcDbLayerTableRecord
  2
Hole 8mm 5mm deep
 70
0
 62
1
420
16711680
  6
CONTINUOUS
370
25
390
F
  0
LAYER
  5
48
100
AcDbSymbolTableRecord
100
AcDbLayerTableRecord
  2
Hole 3.5 mm
 70
0
 62
6
420
16711935
  6
CONTINUOUS
370
50
390
F
  0
LAYER
  5
10
100
AcDbSymbolTableRecord
100
AcDbLayerTableRecord
  2
0
 70
0
 62
7
420
16777215
  6
CONTINUOUS
370
25
390
F
  0
LAYER
  5
49
100
AcDbSymbolTableRecord
100
AcDbLayerTableRecord
  2
Mill 4.2mm Deep
 70
0
 62
5
420
255
  6
CONTINUOUS
370
25
390
F
  0
ENDTAB
  0
TABLE
  2
STYLE
  5
3
100
AcDbSymbolTable
 70
1
  0
STYLE
  5
4A
100
AcDbSymbolTableRecord
100
AcDbTextStyleTableRecord
  2
Standard
 70
0
 40
0.0
 41
1.0
 50
0.0
 71
0
 42
2.5
  3

  4

1001
ACAD
1000
txt
1071
0
  0
ENDTAB
  0
TABLE
  2
VIEW
  5
6
100
AcDbSymbolTable
 70
0
  0
ENDTAB
  0
TABLE
  2
UCS
  5
7
100
AcDbSymbolTable
 70
0
  0
ENDTAB
  0
TABLE
  2
APPID
  5
9
100
AcDbSymbolTable
 70
1
  0
APPID
  5
12
100
AcDbSymbolTableRecord
100
AcDbRegAppTableRecord
  2
ACAD
 70
0
  0
APPID
  5
4B
100
AcDbSymbolTableRecord
100
AcDbRegAppTableRecord
  2
QCAD
 70
0
  0
ENDTAB
  0
TABLE
  2
DIMSTYLE
  5
A
100
AcDbSymbolTable
 70
1
100
AcDbDimStyleTable
 71
0
  0
DIMSTYLE
105
27
100
AcDbSymbolTableRecord
100
AcDbDimStyleTableRecord
  2
Standard
 41
3.5
 42
1.0
 43
3.75
 44
1.0
 70
0
 73
0
 74
0
 77
1
 78
8
140
3.5
141
2.5
143
0.03937007874016
147
1.5
171
3
172
1
271
2
272
2
274
3
278
44
283
0
284
8
340
4A
  0
ENDTAB
  0
TABLE
  2
BLOCK_RECORD
  5
1
100
AcDbSymbolTable
 70
1
  0
BLOCK_RECORD
  5
1F
100
AcDbSymbolTableRecord
100
AcDbBlockTableRecord
  2
*Model_Space
340
22
  0
BLOCK_RECORD
  5
1B
100
AcDbSymbolTableRecord
100
AcDbBlockTableRecord
  2
*Paper_Space
340
1E
  0
BLOCK_RECORD
  5
23
100
AcDbSymbolTableRecord
100
AcDbBlockTableRecord
  2
*Paper_Space0
340
26
  0
BLOCK_RECORD
  5
4C
100
AcDbSymbolTableRecord
100
AcDbBlockTableRecord
  2
GOPR3348
340
0
  0
BLOCK_RECORD
  5
4D
100
AcDbSymbolTableRecord
100
AcDbBlockTableRecord
  2
GENAXEH
340
0
  0
ENDTAB
  0
ENDSEC
  0
SECTION
  2
BLOCKS
  0
BLOCK
  5
20
100
AcDbEntity
  8
0
100
AcDbBlockBegin
  2
*Model_Space
 70
0
 10
0.0
 20
0.0
 30
0.0
  3
*Model_Space
  1

  0
ENDBLK
  5
21
100
AcDbEntity
  8
0
100
AcDbBlockEnd
  0
BLOCK
  5
1C
100
AcDbEntity
 67
1
  8
0
100
AcDbBlockBegin
  2
*Paper_Space
 70
0
 10
0.0
 20
0.0
 30
0.0
  3
*Paper_Space
  1

  0
ENDBLK
  5
1D
100
AcDbEntity
 67
1
  8
0
100
AcDbBlockEnd
  0
BLOCK
  5
24
100
AcDbEntity
  8
0
100
AcDbBlockBegin
  2
*Paper_Space0
 70
0
 10
0.0
 20
0.0
 30
0.0
  3
*Paper_Space0
  1

  0
ENDBLK
  5
25
100
AcDbEntity
  8
0
100
AcDbBlockEnd
  0
BLOCK
  5
4E
100
AcDbEntity
  8
0
100
AcDbBlockBegin
  2
GOPR3348
 70
0
 10
0.0
 20
0.0
 30
0.0
  3
GOPR3348
  1

  0
ENDBLK
  5
4F
100
AcDbEntity
  8
0
100
AcDbBlockEnd
  0
BLOCK
  5
50
100
AcDbEntity
  8
0
100
AcDbBlockBegin
  2
GENAXEH
 70
0
 10
0.0
 20
0.0
 30
0.0
  3
GENAXEH
  1

  0
LINE
  5
51
100
AcDbEntity
100
AcDbLine
  8
0
 62
256
370
-1
  6
BYLAYER
 10
-1.0
 20
0.0
 30
0.0
 11
1.0
 21
0.0
 31
0.0
  0
ENDBLK
  5
52
100
AcDbEntity
  8
0
100
AcDbBlockEnd
  0
ENDSEC
  0
SECTION
  2
ENTITIES
  0
LINE
  5
53
100
AcDbEntity
100
AcDbLine
  8
0
 62
256
370
-1
  6
BYLAYER
 10
72.3785477684594696
 20
107.9533745908526043
 30
0.0
 11
72.3785477684594696
 21
107.9533745908526043
 31
0.0
  0
CIRCLE
  5
54
100
AcDbEntity
100
AcDbCircle
  8
Hole M3
 62
256
370
-1
  6
BYLAYER
 10
3.0
 20
90.0
 30
0.0
 40
1.5
  0
CIRCLE
  5
55
100
AcDbEntity
100
AcDbCircle
  8
Hole 3.5 mm
 62
256
370
-1
  6
BYLAYER
 10
266.5000000000001137
 20
309.4999999999986926
 30
0.0
 40
1.5
  0
CIRCLE
  5
56
100
AcDbEntity
100
AcDbCircle
  8
Hole 3.5 mm
 62
256
370
-1
  6
BYLAYER
 10
266.5000000000002274
 20
289.4999999999986926
 30
0.0
 40
1.5
  0
CIRCLE
  5
57
100
AcDbEntity
100
AcDbCircle
  8
Hole 3.5 mm
 62
256
370
-1
  6
BYLAYER
 10
199.5000000000003979
 20
119.4999999999987068
 30
0.0
 40
1.5
  0
CIRCLE
  5
58
100
AcDbEntity
100
AcDbCircle
  8
Hole 3.5 mm
 62
256
370
-1
  6
BYLAYER
 10
199.5
 20
139.4999999999986926
 30
0.0
 40
1.5
  0
CIRCLE
  5
59
100
AcDbEntity
100
AcDbCircle
  8
Hole M3
 62
256
370
-1
  6
BYLAYER
 10
304.0000000000001137
 20
318.9999999999986926
 30
0.0
 40
1.5
  0
CIRCLE
  5
5A
100
AcDbEntity
100
AcDbCircle
  8
Hole M3
 62
256
370
-1
  6
BYLAYER
 10
95.0000000000001847
 20
318.9999999999988063
 30
0.0
 40
1.5
  0
LINE
  5
5B
100
AcDbEntity
100
AcDbLine
  8
Hole 3.5 mm
 62
256
370
-1
  6
BYLAYER
 10
44.0710678118654826
 20
91.9289321881345245
 30
0.0
 11
44.0
 21
92.0
 31
0.0
  0
CIRCLE
  5
5C
100
AcDbEntity
100
AcDbCircle
  8
Hole 3.5 mm
 62
256
370
-1
  6
BYLAYER
 10
50.0
 20
9.0
 30
0.0
 40
1.5
  0
CIRCLE
  5
5D
100
AcDbEntity
100
AcDbCircle
  8
Hole 3.5 mm
 62
256
370
-1
  6
BYLAYER
 10
320.0
 20
9.0
 30
0.0
 40
1.5
  0
CIRCLE
  5
5E
100
AcDbEntity
100
AcDbCircle
  8
Hole 3.5 mm
 62
256
370
-1
  6
BYLAYER
 10
230.0
 20
9.0
 30
0.0
 40
1.5
  0
CIRCLE
  5
5F
100
AcDbEntity
100
AcDbCircle
  8
Hole 3.5 mm
 62
256
370
-1
  6
BYLAYER
 10
140.0
 20
9.0
 30
0.0
 40
1.5
  0
CIRCLE
  5
60
100
AcDbEntity
100
AcDbCircle
  8
Hole M3
 62
256
370
-1
  6
BYLAYER
 10
364.0
 20
44.0
 30
0.0
 40
1.5
  0
CIRCLE
  5
61
100
AcDbEntity
100
AcDbCircle
  8
Hole 3.5 mm
 62
256
370
-1
  6
BYLAYER
 10
347.5
 20
364.0
 30
0.0
 40
1.5
  0
CIRCLE
  5
62
100
AcDbEntity
100
AcDbCircle
  8
Hole M3
 62
256
370
-1
  6
BYLAYER
 10
232.0000000000001137
 20
286.4999999999986926
 30
0.0
 40
1.5
  0
LINE
  5
63
100
AcDbEntity
100
AcDbLine
  8
Hole M3
 62
256
370
-1
  6
BYLAYER
 10
3.0
 20
90.0
 30
0.0
 11
3.0
 21
90.0
 31
0.0
  0
LINE
  5
64
100
AcDbEntity
100
AcDbLine
  8
Hole M3
 62
256
370
-1
  6
BYLAYER
 10
3.0
 20
90.0
 30
0.0
 11
3.0
 21
90.0
 31
0.0
  0
CIRCLE
  5
65
100
AcDbEntity
100
AcDbCircle
  8
Hole M3
 62
256
370
-1
  6
BYLAYER
 10
199.5000000000001137
 20
109.9999999999987068
 30
0.0
 40
1.5
  0
CIRCLE
  5
66
100
AcDbEntity
100
AcDbCircle
  8
Hole M3
 62
256
370
-1
  6
BYLAYER
 10
51.2999999999999687
 20
91.0
 30
0.0
 40
1.5
  0
CIRCLE
  5
67
100
AcDbEntity
100
AcDbCircle
  8
Hole M3
 62
256
370
-1
  6
BYLAYER
 10
3.0000000000000502
 20
172.4000000000000057
 30
0.0
 40
1.5
  0
CIRCLE
  5
68
100
AcDbEntity
100
AcDbCircle
  8
Hole 3.5 mm
 62
256
370
-1
  6
BYLAYER
 10
132.4999999999998863
 20
309.4999999999986926
 30
0.0
 40
1.5
  0
CIRCLE
  5
69
100
AcDbEntity
100
AcDbCircle
  8
Hole 3.5 mm
 62
256
370
-1
  6
BYLAYER
 10
132.5000000000001137
 20
289.4999999999989768
 30
0.0
 40
1.5
  0
ARC
  5
6A
100
AcDbEntity
  8
Hole M3
 62
256
370
-1
  6
BYLAYER
100
AcDbCircle
 10
3.0
 20
90.0
 30
0.0
 40
0.0
100
AcDbArc
 50
0.0
 51
0.0
  0
ARC
  5
6B
100
AcDbEntity
  8
Hole 3.5 mm
 62
256
370
-1
  6
BYLAYER
100
AcDbCircle
 10
370.0
 20
370.0
 30
0.0
 40
0.0
100
AcDbArc
 50
0.0
 51
0.0
  0
CIRCLE
  5
6C
100
AcDbEntity
100
AcDbCircle
  8
Hole 3.5 mm
 62
256
370
-1
  6
BYLAYER
 10
362.5
 20
364.0
 30
0.0
 40
1.5
  0
CIRCLE
  5
6D
100
AcDbEntity
100
AcDbCircle
  8
Hole 3.5 mm
 62
256
370
-1
  6
BYLAYER
 10
22.4999999999999716
 20
364.0000000000003979
 30
0.0
 40
1.5
  0
CIRCLE
  5
6E
100
AcDbEntity
100
AcDbCircle
  8
Hole 3.5 mm
 62
256
370
-1
  6
BYLAYER
 10
7.4999999999999716
 20
364.0000000000005116
 30
0.0
 40
1.5
  0
CIRCLE
  5
6F
100
AcDbEntity
100
AcDbCircle
  8
Hole M3
 62
256
370
-1
  6
BYLAYER
 10
338.0
 20
44.0
 30
0.0
 40
1.5
  0
CIRCLE
  5
70
100
AcDbEntity
100
AcDbCircle
  8
Hole M3
 62
256
370
-1
  6
BYLAYER
 10
364.0
 20
6.0
 30
0.0
 40
1.5
  0
CIRCLE
  5
71
100
AcDbEntity
100
AcDbCircle
  8
Hole M3
 62
256
370
-1
  6
BYLAYER
 10
6.0000000000001137
 20
6.0000000000000897
 30
0.0
 40
1.5
  0
CIRCLE
  5
72
100
AcDbEntity
100
AcDbCircle
  8
Hole M3
 62
256
370
-1
  6
BYLAYER
 10
6.0000000000001714
 20
44.0000000000001776
 30
0.0
 40
1.5
  0
ARC
  5
73
100
AcDbEntity
  8
Hole M3
 62
256
370
-1
  6
BYLAYER
100
AcDbCircle
 10
3.0
 20
90.0
 30
0.0
 40
0.0
100
AcDbArc
 50
0.0
 51
0.0
  0
CIRCLE
  5
74
100
AcDbEntity
100
AcDbCircle
  8
Hole M3
 62
256
370
-1
  6
BYLAYER
 10
32.000000000000199
 20
44.0000000000002132
 30
0.0
 40
1.5
  0
CIRCLE
  5
75
100
AcDbEntity
100
AcDbCircle
  8
Hole 8mm 5mm deep
 62
256
370
-1
  6
BYLAYER
 10
112.4999999999999005
 20
98.9999999999988205
 30
0.0
 40
4.0
  0
CIRCLE
  5
76
100
AcDbEntity
100
AcDbCircle
  8
Hole 8mm 5mm deep
 62
256
370
-1
  6
BYLAYER
 10
112.5
 20
268.9999999999988063
 30
0.0
 40
4.0
  0
CIRCLE
  5
77
100
AcDbEntity
100
AcDbCircle
  8
0
 62
256
370
-1
  6
BYLAYER
 10
83.9999999999999574
 20
250.9999999999986926
 30
0.0
 40
6.7000000000000002
  0
CIRCLE
  5
78
100
AcDbEntity
100
AcDbCircle
  8
0
 62
256
370
-1
  6
BYLAYER
 10
83.9999999999999574
 20
116.9999999999987068
 30
0.0
 40
6.7000000000000002
  0
LINE
  5
79
100
AcDbEntity
100
AcDbLine
  8
0
 62
256
370
-1
  6
BYLAYER
 10
280.1214522315410136
 20
107.9533745908527038
 30
0.0
 11
280.1214522315410136
 21
107.9533745908527038
 31
0.0
  0
CIRCLE
  5
7A
100
AcDbEntity
100
AcDbCircle
  8
Hole 8mm 5mm deep
 62
256
370
-1
  6
BYLAYER
 10
240.0000000000005116
 20
98.9999999999987779
 30
0.0
 40
4.0
  0
CIRCLE
  5
7B
100
AcDbEntity
100
AcDbCircle
  8
Hole 8mm 5mm deep
 62
256
370
-1
  6
BYLAYER
 10
240.0000000000005116
 20
268.9999999999988063
 30
0.0
 40
4.0
  0
CIRCLE
  5
7C
100
AcDbEntity
100
AcDbCircle
  8
0
 62
256
370
-1
  6
BYLAYER
 10
268.5000000000005116
 20
250.9999999999986926
 30
0.0
 40
6.7000000000000002
  0
CIRCLE
  5
7D
100
AcDbEntity
100
AcDbCircle
  8
0
 62
256
370
-1
  6
BYLAYER
 10
268.5000000000005116
 20
116.9999999999987068
 30
0.0
 40
6.7000000000000002
  0
CIRCLE
  5
7E
100
AcDbEntity
100
AcDbCircle
  8
Hole 3.5 mm
 62
256
370
-1
  6
BYLAYER
 10
249.0000000000005116
 20
247.9999999999986926
 30
0.0
 40
1.5
  0
CIRCLE
  5
7F
100
AcDbEntity
100
AcDbCircle
  8
Hole 3.5 mm
 62
256
370
-1
  6
BYLAYER
 10
249.0000000000005116
 20
234.9999999999986926
 30
0.0
 40
1.5
  0
CIRCLE
  5
80
100
AcDbEntity
100
AcDbCircle
  8
Hole M3
 62
256
370
-1
  6
BYLAYER
 10
346.0000000000001137
 20
91.0
 30
0.0
 40
1.5
  0
CIRCLE
  5
81
100
AcDbEntity
100
AcDbCircle
  8
Hole M3
 62
256
370
-1
  6
BYLAYER
 10
204.4999999999998863
 20
286.4999999999986926
 30
0.0
 40
1.5
  0
LWPOLYLINE
  5
82
  8
0
 62
256
370
-1
  6
BYLAYER
100
AcDbEntity
100
AcDbPolyline
 90
9
 70
0
 10
122.0
 20
268.9999999999988063
 30
0.0
 42
0.4142135623730959
 10
112.4999999999999005
 20
278.4999999999988063
 30
0.0
 10
70.4999999999999432
 20
278.4999999999986926
 30
0.0
 42
0.4142135623730941
 10
60.9999999999999716
 20
268.9999999999986926
 30
0.0
 10
60.9999999999999716
 20
98.9999999999988063
 30
0.0
 42
0.414213562373095
 10
70.4999999999999716
 20
89.4999999999987921
 30
0.0
 10
112.4999999999999005
 20
89.4999999999988205
 30
0.0
 42
0.414213562373095
 10
121.9999999999999005
 20
98.9999999999988205
 30
0.0
 10
122.0
 20
268.9999999999988063
 30
0.0
  0
CIRCLE
  5
83
100
AcDbEntity
100
AcDbCircle
  8
Hole M3
 62
256
370
-1
  6
BYLAYER
 10
190.0128459439609969
 20
258.5188637071435096
 30
0.0
 40
1.5
  0
LWPOLYLINE
  5
84
  8
Mill 4.2mm Deep
 62
256
370
-1
  6
BYLAYER
100
AcDbEntity
100
AcDbPolyline
 90
5
 70
0
 10
181.2628459439609969
 20
215.1188637071435039
 30
0.0
 10
181.2628459439609969
 20
199.1188637071435039
 30
0.0
 42
0.9999999999999994
 10
187.2628459439609969
 20
199.1188637071435039
 30
0.0
 10
187.2628459439609969
 20
215.1188637071435039
 30
0.0
 42
0.9999999999999999
 10
181.2628459439609969
 20
215.1188637071435039
 30
0.0
  0
LWPOLYLINE
  5
85
  8
0
 62
256
370
-1
  6
BYLAYER
100
AcDbEntity
100
AcDbPolyline
 90
19
 70
0
 10
163.5128459439609969
 20
266.818863707143521
 30
0.0
 42
-0.414213562373095
 10
168.5128459439611106
 20
271.818863707143521
 30
0.0
 10
190.7628459439609969
 20
271.818863707143521
 30
0.0
 42
-0.414213562373095
 10
195.7628459439609969
 20
266.818863707143521
 30
0.0
 10
195.7628459439609969
 20
226.8188637071434925
 30
0.0
 10
195.7628459439609969
 20
186.8188637071434925
 30
0.0
 42
-0.414213562373095
 10
190.7628459439609969
 20
181.8188637071434925
 30
0.0
 10
168.5128459439611106
 20
181.8188637071434925
 30
0.0
 42
-0.414213562373095
 10
163.5128459439609969
 20
186.8188637071434925
 30
0.0
 10
163.5128459439609969
 20
202.8188637071434925
 30
0.0
 42
0.414213562373095
 10
156.5128459439609969
 20
209.8188637071434925
 30
0.0
 10
135.5128459439609969
 20
209.8188637071434925
 30
0.0
 42
-0.414213562373095
 10
130.5128459439609969
 20
214.8188637071434925
 30
0.0
 10
130.5128459439609969
 20
226.8188637071434925
 30
0.0
 10
130.5128459439609969
 20
238.8188637071434925
 30
0.0
 42
-0.414213562373095
 10
135.5128459439609969
 20
243.8188637071434925
 30
0.0
 10
156.5128459439609969
 20
243.8188637071434925
 30
0.0
 42
0.414213562373095
 10
163.5128459439609969
 20
250.8188637071434925
 30
0.0
 10
163.5128459439609969
 20
266.818863707143521
 30
0.0
  0
LWPOLYLINE
  5
86
  8
Mill 4.2mm Deep
 62
256
370
-1
  6
BYLAYER
100
AcDbEntity
100
AcDbPolyline
 90
5
 70
0
 10
192.7628459439609969
 20
215.1188637071435039
 30
0.0
 10
192.7628459439609969
 20
199.1188637071435039
 30
0.0
 42
0.9999999999999994
 10
198.7628459439609969
 20
199.1188637071435039
 30
0.0
 10
198.7628459439609969
 20
215.1188637071435039
 30
0.0
 42
0.9999999999999999
 10
192.7628459439609969
 20
215.1188637071435039
 30
0.0
  0
LWPOLYLINE
  5
87
  8
Mill 4.2mm Deep
 62
256
370
-1
  6
BYLAYER
100
AcDbEntity
100
AcDbPolyline
 90
9
 70
0
 10
177.2628459439609969
 20
250.9188637071434869
 30
0.0
 42
-0.4142135623730944
 10
180.2628459439609969
 20
253.9188637071434869
 30
0.0
 10
196.7628459439609969
 20
253.9188637071434869
 30
0.0
 42
-0.414213562373095
 10
199.7628459439609969
 20
250.9188637071434869
 30
0.0
 10
199.7628459439609969
 20
242.1188637071435039
 30
0.0
 42
-0.414213562373095
 10
196.7628459439609969
 20
239.1188637071435039
 30
0.0
 10
180.2628459439609969
 20
239.1188637071435039
 30
0.0
 42
-0.414213562373095
 10
177.2628459439609969
 20
242.1188637071435039
 30
0.0
 10
177.2628459439609969
 20
250.9188637071434869
 30
0.0
  0
LWPOLYLINE
  5
88
  8
Mill 3mm Deep
 62
256
370
-1
  6
BYLAYER
100
AcDbEntity
100
AcDbPolyline
 90
9
 70
0
 10
183.5128459439609969
 20
208.5188637071434812
 30
0.0
 42
-0.414213562373095
 10
186.5128459439609969
 20
211.5188637071434812
 30
0.0
 10
193.7628459439609969
 20
211.5188637071434812
 30
0.0
 42
-0.414213562373095
 10
196.7628459439609969
 20
208.5188637071434812
 30
0.0
 10
196.7628459439609969
 20
205.7188637071434982
 30
0.0
 42
-0.414213562373095
 10
193.7628459439609969
 20
202.7188637071434982
 30
0.0
 10
186.5128459439609969
 20
202.7188637071434982
 30
0.0
 42
-0.414213562373095
 10
183.5128459439609969
 20
205.7188637071434982
 30
0.0
 10
183.5128459439609969
 20
208.5188637071434812
 30
0.0
  0
LWPOLYLINE
  5
89
  8
Mill 4.2mm Deep
 62
256
370
-1
  6
BYLAYER
100
AcDbEntity
100
AcDbPolyline
 90
5
 70
0
 10
160.6999999999999034
 20
56.0
 30
0.0
 10
176.6999999999999034
 20
56.0
 30
0.0
 42
-0.9999999999999994
 10
176.6999999999999034
 20
50.0
 30
0.0
 10
160.6999999999999034
 20
50.0
 30
0.0
 42
-0.9999999999999999
 10
160.6999999999999034
 20
56.0
 30
0.0
  0
CIRCLE
  5
8A
100
AcDbEntity
100
AcDbCircle
  8
Hole 4mm and 5mm Deep
 62
256
370
-1
  6
BYLAYER
 10
161.4399999999999125
 20
92.25
 30
0.0
 40
2.0
  0
CIRCLE
  5
8B
100
AcDbEntity
100
AcDbCircle
  8
Hole 3.5 mm Counter Sunk
 62
256
370
-1
  6
BYLAYER
 10
156.6999999999999034
 20
58.75
 30
0.0
 40
1.5
  0
CIRCLE
  5
8C
100
AcDbEntity
100
AcDbCircle
  8
Hole 3.5 mm Counter Sunk
 62
256
370
-1
  6
BYLAYER
 10
180.6999999999999034
 20
58.7499999999999716
 30
0.0
 40
1.5
  0
CIRCLE
  5
8D
100
AcDbEntity
100
AcDbCircle
  8
Hole 3.5 mm Counter Sunk
 62
256
370
-1
  6
BYLAYER
 10
156.6999999999999034
 20
113.25
 30
0.0
 40
1.5
  0
LWPOLYLINE
  5
8E
  8
Mill 3mm Deep
 62
256
370
-1
  6
BYLAYER
100
AcDbEntity
100
AcDbPolyline
 90
9
 70
0
 10
167.2999999999998977
 20
65.25
 30
0.0
 42
0.414213562373095
 10
164.2999999999998977
 20
62.25
 30
0.0
 10
164.2999999999998977
 20
55.0
 30
0.0
 42
0.414213562373095
 10
167.2999999999998977
 20
52.0
 30
0.0
 10
170.0999999999998806
 20
52.0
 30
0.0
 42
0.414213562373095
 10
173.0999999999998806
 20
55.0
 30
0.0
 10
173.0999999999998806
 20
62.25
 30
0.0
 42
0.414213562373095
 10
170.0999999999998806
 20
65.25
 30
0.0
 10
167.2999999999998977
 20
65.25
 30
0.0
  0
LWPOLYLINE
  5
8F
  8
Mill 4.2mm Deep
 62
256
370
-1
  6
BYLAYER
100
AcDbEntity
100
AcDbPolyline
 90
9
 70
0
 10
179.6999999999999034
 20
77.25
 30
0.0
 42
0.414213562373095
 10
176.6999999999999034
 20
80.2499999999999716
 30
0.0
 10
160.6999999999999034
 20
80.25
 30
0.0
 42
0.414213562373095
 10
157.6999999999999034
 20
77.25
 30
0.0
 10
157.6999999999999034
 20
64.5
 30
0.0
 42
0.414213562373095
 10
160.6999999999999034
 20
61.5
 30
0.0
 10
176.6999999999999034
 20
61.5
 30
0.0
 42
0.414213562373095
 10
179.6999999999999034
 20
64.5
 30
0.0
 10
179.6999999999999034
 20
77.25
 30
0.0
  0
LWPOLYLINE
  5
90
  8
0
 62
256
370
-1
  6
BYLAYER
100
AcDbEntity
100
AcDbPolyline
 90
13
 70
0
 10
149.9999999999998863
 20
58.0
 30
0.0
 42
0.414213562373095
 10
154.9999999999998863
 20
53.0
 30
0.0
 10
188.9999999999998863
 20
53.0
 30
0.0
 42
0.414213562373095
 10
193.9999999999998863
 20
58.0
 30
0.0
 10
193.9999999999998863
 20
59.5
 30
0.0
 42
0.414213562373095
 10
188.9999999999998863
 20
64.5
 30
0.0
 10
170.9999999999998863
 20
64.5
 30
0.0
 42
-0.414213562373095
 10
165.9999999999998863
 20
69.5
 30
0.0
 10
165.9999999999998863
 20
113.25
 30
0.0
 42
0.414213562373095
 10
160.9999999999998863
 20
118.25
 30
0.0
 10
154.9999999999998863
 20
118.25
 30
0.0
 42
0.414213562373095
 10
149.9999999999998863
 20
113.25
 30
0.0
 10
149.9999999999998863
 20
58.0
 30
0.0
  0
CIRCLE
  5
91
100
AcDbEntity
100
AcDbCircle
  8
Hole 4mm and 5mm Deep
 62
256
370
-1
  6
BYLAYER
 10
132.5599999999998886
 20
92.25
 30
0.0
 40
2.0
  0
CIRCLE
  5
92
100
AcDbEntity
100
AcDbCircle
  8
Hole 3.5 mm Counter Sunk
 62
256
370
-1
  6
BYLAYER
 10
137.2999999999998977
 20
58.75
 30
0.0
 40
1.5
  0
CIRCLE
  5
93
100
AcDbEntity
100
AcDbCircle
  8
Hole 3.5 mm Counter Sunk
 62
256
370
-1
  6
BYLAYER
 10
113.2999999999998977
 20
58.7499999999999716
 30
0.0
 40
1.5
  0
CIRCLE
  5
94
100
AcDbEntity
100
AcDbCircle
  8
Hole 3.5 mm Counter Sunk
 62
256
370
-1
  6
BYLAYER
 10
137.2999999999998977
 20
113.25
 30
0.0
 40
1.5
  0
LWPOLYLINE
  5
95
  8
0
 62
256
370
-1
  6
BYLAYER
100
AcDbEntity
100
AcDbPolyline
 90
13
 70
0
 10
143.9999999999998863
 20
57.9999999999999716
 30
0.0
 42
-0.414213562373095
 10
138.9999999999998863
 20
53.0
 30
0.0
 10
104.9999999999999005
 20
53.0
 30
0.0
 42
-0.414213562373095
 10
99.9999999999998721
 20
58.0
 30
0.0
 10
99.9999999999999289
 20
59.5
 30
0.0
 42
-0.414213562373095
 10
104.9999999999999005
 20
64.5
 30
0.0
 10
122.9999999999999005
 20
64.5
 30
0.0
 42
0.414213562373095
 10
127.9999999999999005
 20
69.5
 30
0.0
 10
127.9999999999999005
 20
113.25
 30
0.0
 42
-0.414213562373095
 10
132.9999999999998863
 20
118.25
 30
0.0
 10
138.9999999999998863
 20
118.2499999999999005
 30
0.0
 42
-0.414213562373095
 10
143.9999999999998863
 20
113.25
 30
0.0
 10
143.9999999999998863
 20
57.9999999999999716
 30
0.0
  0
LWPOLYLINE
  5
96
  8
Mill 4.2mm Deep
 62
256
370
-1
  6
BYLAYER
100
AcDbEntity
100
AcDbPolyline
 90
9
 70
0
 10
129.6999999999999034
 20
80.2499999999999716
 30
0.0
 42
-0.4142135623730944
 10
132.6999999999999034
 20
77.2499999999999716
 30
0.0
 10
132.6999999999999034
 20
63.0
 30
0.0
 42
-0.414213562373095
 10
129.6999999999999034
 20
60.0
 30
0.0
 10
120.8999999999999062
 20
60.0
 30
0.0
 42
-0.414213562373095
 10
117.8999999999999062
 20
63.0
 30
0.0
 10
117.8999999999999062
 20
77.2499999999999716
 30
0.0
 42
-0.414213562373095
 10
120.8999999999999062
 20
80.2499999999999716
 30
0.0
 10
129.6999999999999034
 20
80.2499999999999716
 30
0.0
  0
CIRCLE
  5
97
100
AcDbEntity
100
AcDbCircle
  8
Hole 3.5 mm Counter Sunk
 62
256
370
-1
  6
BYLAYER
 10
172.0128459439609969
 20
187.3188637071434925
 30
0.0
 40
1.5
  0
CIRCLE
  5
98
100
AcDbEntity
100
AcDbCircle
  8
Hole 3.5 mm Counter Sunk
 62
256
370
-1
  6
BYLAYER
 10
172.0128459439609969
 20
218.3188637071434925
 30
0.0
 40
1.5
  0
CIRCLE
  5
99
100
AcDbEntity
100
AcDbCircle
  8
Hole M3
 62
256
370
-1
  6
BYLAYER
 10
135.5128459439609969
 20
226.8188637071434925
 30
0.0
 40
1.5
  0
LINE
  5
9A
100
AcDbEntity
100
AcDbLine
  8
0
 62
256
370
-1
  6
BYLAYER
 10
156.5128459439609969
 20
214.3788637071434948
 30
0.0
 11
156.5128459439609969
 21
214.3788637071434948
 31
0.0
  0
CIRCLE
  5
9B
100
AcDbEntity
100
AcDbCircle
  8
Hole 4mm and 5mm Deep
 62
256
370
-1
  6
BYLAYER
 10
156.5128459439609969
 20
214.3788637071434948
 30
0.0
 40
2.0
  0
LINE
  5
9C
100
AcDbEntity
100
AcDbLine
  8
0
 62
256
370
-1
  6
BYLAYER
 10
172.0128459439609969
 20
187.3188637071434925
 30
0.0
 11
172.0128459439609969
 21
187.3188637071434925
 31
0.0
  0
CIRCLE
  5
9D
100
AcDbEntity
100
AcDbCircle
  8
Hole 3.5 mm Counter Sunk
 62
256
370
-1
  6
BYLAYER
 10
141.0128459439609969
 20
218.3188637071434925
 30
0.0
 40
1.5
  0
CIRCLE
  5
9E
100
AcDbEntity
100
AcDbCircle
  8
Hole M3
 62
256
370
-1
  6
BYLAYER
 10
190.0128459439609969
 20
219.1188637071435039
 30
0.0
 40
1.5
  0
CIRCLE
  5
9F
100
AcDbEntity
100
AcDbCircle
  8
Hole M3
 62
256
370
-1
  6
BYLAYER
 10
190.0128459439609969
 20
195.1188637071435039
 30
0.0
 40
1.5
  0
CIRCLE
  5
A0
100
AcDbEntity
100
AcDbCircle
  8
Hole M3
 62
256
370
-1
  6
BYLAYER
 10
177.5128459439609969
 20
226.8188637071434925
 30
0.0
 40
1.5
  0
LINE
  5
A1
100
AcDbEntity
100
AcDbLine
  8
0
 62
256
370
-1
  6
BYLAYER
 10
141.0128459439609969
 20
218.3188637071434925
 30
0.0
 11
141.0128459439609969
 21
218.3188637071434925
 31
0.0
  0
CIRCLE
  5
A2
100
AcDbEntity
100
AcDbCircle
  8
Hole M3
 62
256
370
-1
  6
BYLAYER
 10
135.5128459439609969
 20
219.1188637071435039
 30
0.0
 40
1.5
  0
ARC
  5
A3
100
AcDbEntity
  8
0
 62
256
370
-1
  6
BYLAYER
100
AcDbCircle
 10
195.7628459439609969
 20
226.8188637071434925
 30
0.0
 40
0.0
100
AcDbArc
 50
0.0
 51
0.0
  0
LINE
  5
A4
100
AcDbEntity
100
AcDbLine
  8
0
 62
256
370
-1
  6
BYLAYER
 10
141.0128459439609969
 20
235.3188637071434925
 30
0.0
 11
141.0128459439609969
 21
235.3188637071434925
 31
0.0
  0
CIRCLE
  5
A5
100
AcDbEntity
100
AcDbCircle
  8
Hole M3
 62
256
370
-1
  6
BYLAYER
 10
135.5128459439609969
 20
234.5188637071435096
 30
0.0
 40
1.5
  0
CIRCLE
  5
A6
100
AcDbEntity
100
AcDbCircle
  8
Hole 3.5 mm Counter Sunk
 62
256
370
-1
  6
BYLAYER
 10
172.0128459439611106
 20
266.318863707143521
 30
0.0
 40
1.5
  0
CIRCLE
  5
A7
100
AcDbEntity
100
AcDbCircle
  8
Hole 3.5 mm Counter Sunk
 62
256
370
-1
  6
BYLAYER
 10
172.0128459439609969
 20
235.3188637071434925
 30
0.0
 40
1.5
  0
ARC
  5
A8
100
AcDbEntity
  8
0
 62
256
370
-1
  6
BYLAYER
100
AcDbCircle
 10
195.7628459439609969
 20
226.8188637071434925
 30
0.0
 40
0.0
100
AcDbArc
 50
0.0
 51
0.0
  0
LINE
  5
A9
100
AcDbEntity
100
AcDbLine
  8
0
 62
256
370
-1
  6
BYLAYER
 10
156.5128459439609969
 20
239.2588637071434903
 30
0.0
 11
156.5128459439609969
 21
239.2588637071434903
 31
0.0
  0
CIRCLE
  5
AA
100
AcDbEntity
100
AcDbCircle
  8
Hole 4mm and 5mm Deep
 62
256
370
-1
  6
BYLAYER
 10
156.5128459439609969
 20
239.2588637071434903
 30
0.0
 40
2.0
  0
LINE
  5
AB
100
AcDbEntity
100
AcDbLine
  8
0
 62
256
370
-1
  6
BYLAYER
 10
172.0128459439611106
 20
266.318863707143521
 30
0.0
 11
172.0128459439611106
 21
266.318863707143521
 31
0.0
  0
CIRCLE
  5
AC
100
AcDbEntity
100
AcDbCircle
  8
Hole 3.5 mm Counter Sunk
 62
256
370
-1
  6
BYLAYER
 10
141.0128459439609969
 20
235.3188637071434925
 30
0.0
 40
1.5
  0
CIRCLE
  5
AD
100
AcDbEntity
100
AcDbCircle
  8
Hole M3
 62
256
370
-1
  6
BYLAYER
 10
190.0128459439609969
 20
234.5188637071435096
 30
0.0
 40
1.5
  0
LINE
  5
AE
100
AcDbEntity
100
AcDbLine
  8
0
 62
256
370
-1
  6
BYLAYER
 10
118.0000000000000995
 20
28.0000000000000284
 30
0.0
 11
118.0000000000000995
 21
28.0000000000000284
 31
0.0
  0
CIRCLE
  5
AF
100
AcDbEntity
100
AcDbCircle
  8
Hole M3
 62
256
370
-1
  6
BYLAYER
 10
19.0999999999999694
 20
218.25
 30
0.0
 40
1.5
  0
LWPOLYLINE
  5
B0
  8
Mill 4.2mm Deep
 62
256
370
-1
  6
BYLAYER
100
AcDbEntity
100
AcDbPolyline
 90
9
 70
0
 10
129.6999999999999034
 20
57.0
 30
0.0
 42
-0.4142135623730944
 10
132.6999999999999034
 20
54.0
 30
0.0
 10
132.6999999999999034
 20
39.7500000000000284
 30
0.0
 42
-0.414213562373095
 10
129.6999999999999034
 20
36.7500000000000284
 30
0.0
 10
120.8999999999999062
 20
36.7500000000000284
 30
0.0
 42
-0.414213562373095
 10
117.8999999999999062
 20
39.7500000000000284
 30
0.0
 10
117.8999999999999062
 20
54.0
 30
0.0
 42
-0.414213562373095
 10
120.8999999999999062
 20
57.0
 30
0.0
 10
129.6999999999999034
 20
57.0
 30
0.0
  0
LWPOLYLINE
  5
B1
  8
Mill 3mm Deep
 62
256
370
-1
  6
BYLAYER
100
AcDbEntity
100
AcDbPolyline
 90
9
 70
0
 10
120.8999999999999062
 20
66.25
 30
0.0
 42
0.414213562373095
 10
117.8999999999999062
 20
63.25
 30
0.0
 10
117.8999999999998067
 20
54.0
 30
0.0
 42
0.414213562373095
 10
120.8999999999999062
 20
51.0
 30
0.0
 10
129.6999999999997897
 20
51.0
 30
0.0
 42
0.414213562373095
 10
132.6999999999997897
 20
54.0
 30
0.0
 10
132.6999999999997897
 20
63.25
 30
0.0
 42
0.414213562373095
 10
129.6999999999997897
 20
66.25
 30
0.0
 10
120.8999999999999062
 20
66.25
 30
0.0
  0
LWPOLYLINE
  5
B2
  8
0
 62
256
370
-1
  6
BYLAYER
100
AcDbEntity
100
AcDbPolyline
 90
7
 70
0
 10
0.0
 20
370.0
 30
0.0
 10
0.0
 20
370.0
 30
0.0
 10
370.0
 20
370.0
 30
0.0
 10
370.0
 20
0.0
 30
0.0
 10
370.0000000000001137
 20
0.0
 30
0.0
 10
0.0
 20
0.0
 30
0.0
 10
0.0
 20
370.0
 30
0.0
  0
LWPOLYLINE
  5
B3
  8
0
 62
256
370
-1
  6
BYLAYER
100
AcDbEntity
100
AcDbPolyline
 90
21
 70
0
 10
54.9999999999999716
 20
318.9999999999986926
 30
0.0
 42
-0.414213562373095
 10
65.9999999999999716
 20
329.9999999999986926
 30
0.0
 10
304.0000000000002842
 20
329.9999999999986926
 30
0.0
 42
-0.414213562373095
 10
315.0000000000002842
 20
318.9999999999988063
 30
0.0
 10
315.000000000001819
 20
55.0
 30
0.0
 42
-0.414213562373095
 10
304.000000000001819
 20
44.0
 30
0.0
 10
262.1000000000000227
 20
44.0
 30
0.0
 42
0.414213562373095
 10
257.1000000000000227
 20
38.9999999999999432
 30
0.0
 10
257.1000000000000796
 20
28.0
 30
0.0
 42
-0.9999999999999999
 10
246.9000000000000909
 20
28.0000000000001208
 30
0.0
 42
0.0039715938112304
 10
246.8837348207312914
 20
30.0476568705321689
 30
0.0
 42
0.4095681928341146
 10
243.8841133741665885
 20
33.0
 30
0.0
 10
126.1158866258335962
 20
33.0000000000000284
 30
0.0
 42
0.4095681928341147
 10
123.1162651792688933
 20
30.0476568705329292
 30
0.0
 42
0.0039715938112304
 10
123.1000000000000938
 20
28.0000000000000284
 30
0.0
 42
-0.9999999999999999
 10
112.9000000000001052
 20
28.0000000000000284
 30
0.0
 10
112.9000000000001052
 20
39.0000000000000213
 30
0.0
 42
0.414213562373095
 10
107.9000000000001052
 20
44.0000000000000213
 30
0.0
 10
65.9999999999994316
 20
44.0
 30
0.0
 42
-0.414213562373095
 10
54.9999999999994174
 20
55.0000000000000213
 30
0.0
 10
54.9999999999999716
 20
318.9999999999986926
 30
0.0
  0
LWPOLYLINE
  5
B4
  8
0
 62
256
370
-1
  6
BYLAYER
100
AcDbEntity
100
AcDbPolyline
 90
41
 70
0
 10
123.4929631039557023
 20
284.49999999999892
 30
0.0
 42
-0.4142135623730945
 10
120.4929631039557023
 20
287.4999999999989768
 30
0.0
 10
120.4929631039558018
 20
291.1999999999986812
 30
0.0
 42
-0.4142135623730935
 10
123.4929631039557023
 20
294.1999999999986812
 30
0.0
 10
144.4929631039557876
 20
294.1999999999987949
 30
0.0
 42
0.4142135623730924
 10
147.4929631039557876
 20
297.1999999999986812
 30
0.0
 10
147.4929631039559013
 20
301.7999999999988745
 30
0.0
 42
0.414213562373095
 10
144.4929631039559013
 20
304.7999999999988745
 30
0.0
 10
123.4929631039557023
 20
304.7999999999988177
 30
0.0
 42
-0.4142135623730963
 10
120.4929631039557023
 20
307.7999999999988177
 30
0.0
 10
120.4929631039559013
 20
310.99999999999892
 30
0.0
 42
0.4142135623730945
 10
117.4929631039557023
 20
313.9999999999986926
 30
0.0
 10
95.0000000000001137
 20
313.99999999999892
 30
0.0
 42
-0.9999999999999999
 10
95.0
 20
323.9999999999986926
 30
0.0
 10
304.0000000000001137
 20
323.9999999999986926
 30
0.0
 42
-0.9999999999999999
 10
304.0000000000002274
 20
313.9999999999986926
 30
0.0
 10
281.507036896044383
 20
313.9999999999985789
 30
0.0
 42
0.414213562373095
 10
278.507036896044383
 20
310.9999999999985789
 30
0.0
 10
278.507036896044383
 20
307.7999999999993861
 30
0.0
 42
-0.414213562373095
 10
275.5070368960439851
 20
304.7999999999993861
 30
0.0
 10
254.5070368960437861
 20
304.7999999999992724
 30
0.0
 42
0.414213562373093
 10
251.5070368960437861
 20
301.7999999999992156
 30
0.0
 10
251.5070368960440135
 20
297.1999999999990791
 30
0.0
 42
0.4142135623730945
 10
254.5070368960440135
 20
294.1999999999991928
 30
0.0
 10
275.5070368960443261
 20
294.1999999999991928
 30
0.0
 42
-0.414213562373095
 10
278.5070368960443261
 20
291.1999999999991928
 30
0.0
 10
278.5070368960443261
 20
287.4999999999986926
 30
0.0
 42
-0.414213562373095
 10
275.5070368960443261
 20
284.4999999999986926
 30
0.0
 10
240.500000000000199
 20
284.4999999999985789
 30
0.0
 42
0.414213562373095
 10
224.4999999999998863
 20
268.4999999999985789
 30
0.0
 10
224.4999999999998863
 20
114.9999999999987068
 30
0.0
 42
-0.414213562373095
 10
214.4999999999998863
 20
104.9999999999987068
 30
0.0
 10
184.499999999999801
 20
104.9999999999987068
 30
0.0
 42
-0.414213562373095
 10
174.5000000000001137
 20
114.9999999999987068
 30
0.0
 10
174.5
 20
139.4999999999988063
 30
0.0
 42
-0.414213562373095
 10
184.499999999999801
 20
149.4999999999988063
 30
0.0
 10
196.0000000000001137
 20
149.4999999999988063
 30
0.0
 42
0.414213562373095
 10
212.0000000000001137
 20
165.4999999999988916
 30
0.0
 10
212.0000000000001137
 20
268.4999999999986926
 30
0.0
 42
0.4142135623730941
 10
196.0000000000001137
 20
284.4999999999986926
 30
0.0
 10
123.4929631039558018
 20
284.4999999999989768
 30
0.0
  0
LWPOLYLINE
  5
B5
  8
0
 62
256
370
-1
  6
BYLAYER
100
AcDbEntity
100
AcDbPolyline
 90
9
 70
0
 10
230.5000000000005116
 20
268.9999999999988063
 30
0.0
 42
-0.4142135623730961
 10
240.0000000000005969
 20
278.4999999999988063
 30
0.0
 10
282.0000000000006253
 20
278.4999999999985789
 30
0.0
 42
-0.4142135623730939
 10
291.5000000000005116
 20
268.9999999999986926
 30
0.0
 10
291.5000000000005116
 20
98.9999999999988063
 30
0.0
 42
-0.414213562373095
 10
282.0000000000005116
 20
89.4999999999988063
 30
0.0
 10
240.0000000000005116
 20
89.4999999999987779
 30
0.0
 42
-0.414213562373095
 10
230.5000000000005969
 20
98.9999999999988063
 30
0.0
 10
230.5000000000005116
 20
268.9999999999988063
 30
0.0
  0
LWPOLYLINE
  5
B6
  8
0
 62
256
370
-1
  6
BYLAYER
100
AcDbEntity
100
AcDbPolyline
 90
9
 70
0
 10
210.3628763929228001
 20
134.799999999998704
 30
0.0
 42
-0.414213562373095
 10
214.3628763929229137
 20
130.799999999998704
 30
0.0
 10
214.3628763929229137
 20
128.1999999999987097
 30
0.0
 42
-0.414213562373095
 10
210.3628763929228001
 20
124.1999999999986954
 30
0.0
 10
187.3628763929228001
 20
124.1999999999986954
 30
0.0
 42
-0.414213562373095
 10
183.3628763929228001
 20
128.1999999999987097
 30
0.0
 10
183.3628763929228001
 20
130.799999999998704
 30
0.0
 42
-0.414213562373095
 10
187.3628763929226864
 20
134.799999999998704
 30
0.0
 10
210.3628763929229137
 20
134.799999999998704
 30
0.0
  0
LWPOLYLINE
  5
B7
  8
0
 62
256
370
-1
  6
BYLAYER
100
AcDbEntity
100
AcDbPolyline
 90
5
 70
0
 10
347.0
 20
10.0
 30
0.0
 42
-0.9999999999999999
 10
353.0
 20
9.9999999999999982
 30
0.0
 10
353.0
 20
-5.0
 30
0.0
 42
-0.9999999999999999
 10
347.0
 20
-5.0
 30
0.0
 10
347.0
 20
10.0
 30
0.0
  0
LWPOLYLINE
  5
B8
  8
0
 62
256
370
-1
  6
BYLAYER
100
AcDbEntity
100
AcDbPolyline
 90
11
 70
0
 10
23.0
 20
10.0
 30
0.0
 42
0.9999999999999999
 10
17.0
 20
10.0
 30
0.0
 10
17.0
 20
-5.0
 30
0.0
 42
0.414213562373095
 10
20.0
 20
-8.0
 30
0.0
 10
29.0
 20
-8.0
 30
0.0
 42
0.414213562373095
 10
32.0
 20
-5.0
 30
0.0
 10
32.0
 20
-1.0
 30
0.0
 42
0.414213562373095
 10
29.0
 20
2.0
 30
0.0
 10
24.0
 20
2.0
 30
0.0
 10
23.0
 20
3.0
 30
0.0
 10
23.0
 20
9.9999999999999982
 30
0.0
  0
ENDSEC
  0
SECTION
  2
OBJECTS
  0
DICTIONARY
  5
C
100
AcDbDictionary
280
0
281
1
  3
ACAD_GROUP
350
D
  3
ACAD_LAYOUT
350
1A
  3
ACAD_MLINESTYLE
350
17
  3
ACAD_PLOTSETTINGS
350
19
  3
ACAD_PLOTSTYLENAME
350
E
  3
AcDbVariableDictionary
350
B9
  3
QCAD_OBJECTS
350
BA
  0
DICTIONARY
  5
D
100
AcDbDictionary
280
0
281
1
  0
ACDBDICTIONARYWDFLT
  5
E
100
AcDbDictionary
281
1
  3
Normal
350
F
100
AcDbDictionaryWithDefault
340
F
  0
ACDBPLACEHOLDER
  5
F
  0
DICTIONARY
  5
17
100
AcDbDictionary
280
0
281
1
  3
Standard
350
18
  0
MLINESTYLE
  5
18
100
AcDbMlineStyle
  2
STANDARD
 70
0
  3

 62
256
 51
90.0
 52
90.0
 71
2
 49
0.5
 62
256
  6
BYLAYER
 49
-0.5
 62
256
  6
BYLAYER
  0
DICTIONARY
  5
19
100
AcDbDictionary
280
0
281
1
  0
DICTIONARY
  5
1A
100
AcDbDictionary
281
1
  3
Layout1
350
1E
  3
Layout2
350
26
  3
Model
350
22
  0
LAYOUT
  5
1E
100
AcDbPlotSettings
  1

  2
none_device
  4

  6

 40
0.0
 41
0.0
 42
0.0
 43
0.0
 44
0.0
 45
0.0
 46
0.0
 47
0.0
 48
0.0
 49
0.0
140
0.0
141
0.0
142
1.0
143
1.0
 70
688
 72
0
 73
0
 74
5
  7

 75
16
147
1.0
148
0.0
149
0.0
100
AcDbLayout
  1
Layout1
 70
1
 71
1
 10
0.0
 20
0.0
 11
420.0
 21
297.0
 12
0.0
 22
0.0
 32
0.0
 14
100000000000000000000.0
 24
100000000000000000000.0
 34
100000000000000000000.0
 15
-100000000000000000000.0
 25
-100000000000000000000.0
 35
-100000000000000000000.0
146
0.0
 13
0.0
 23
0.0
 33
0.0
 16
1.0
 26
0.0
 36
0.0
 17
0.0
 27
1.0
 37
0.0
 76
0
330
1B
  0
LAYOUT
  5
22
100
AcDbPlotSettings
  1

  2
none_device
  4

  6

 40
0.0
 41
0.0
 42
0.0
 43
0.0
 44
0.0
 45
0.0
 46
0.0
 47
0.0
 48
0.0
 49
0.0
140
0.0
141
0.0
142
1.0
143
1.0
 70
1712
 72
0
 73
0
 74
0
  7

 75
0
147
1.0
148
0.0
149
0.0
100
AcDbLayout
  1
Model
 70
1
 71
0
 10
0.0
 20
0.0
 11
12.0
 21
9.0
 12
0.0
 22
0.0
 32
0.0
 14
0.0
 24
0.0
 34
0.0
 15
0.0
 25
0.0
 35
0.0
146
0.0
 13
0.0
 23
0.0
 33
0.0
 16
1.0
 26
0.0
 36
0.0
 17
0.0
 27
1.0
 37
0.0
 76
0
330
1F
  0
LAYOUT
  5
26
100
AcDbPlotSettings
  1

  2
none_device
  4

  6

 40
0.0
 41
0.0
 42
0.0
 43
0.0
 44
0.0
 45
0.0
 46
0.0
 47
0.0
 48
0.0
 49
0.0
140
0.0
141
0.0
142
1.0
143
1.0
 70
688
 72
0
 73
0
 74
5
  7

 75
16
147
1.0
148
0.0
149
0.0
100
AcDbLayout
  1
Layout2
 70
1
 71
2
 10
0.0
 20
0.0
 11
12.0
 21
9.0
 12
0.0
 22
0.0
 32
0.0
 14
0.0
 24
0.0
 34
0.0
 15
0.0
 25
0.0
 35
0.0
146
0.0
 13
0.0
 23
0.0
 33
0.0
 16
1.0
 26
0.0
 36
0.0
 17
0.0
 27
1.0
 37
0.0
 76
0
330
23
  0
DICTIONARY
  5
B9
100
AcDbDictionary
281
1
  3
DIMASSOC
350
BC
  3
HIDETEXT
350
BB
  0
DICTIONARYVAR
  5
BB
100
DictionaryVariables
280
0
  1
2
  0
DICTIONARYVAR
  5
BC
100
DictionaryVariables
280
0
  1
1
  0
DICTIONARY
  5
BA
100
AcDbDictionary
281
1
  3
ColorSettings/ColorMode
350
BD
  3
Grid/DisplayGrid
350
BE
  3
Grid/DisplayGrid00
350
BF
  3
Grid/DisplayGrid01
350
C0
  3
Grid/DisplayGrid02
350
C1
  3
Grid/DisplayGrid03
350
C2
  3
Grid/GridSpacingX
350
C3
  3
Grid/GridSpacingX00
350
C4
  3
Grid/GridSpacingX01
350
C5
  3
Grid/GridSpacingX02
350
C6
  3
Grid/GridSpacingX03
350
C7
  3
Grid/GridSpacingY
350
C8
  3
Grid/GridSpacingY00
350
C9
  3
Grid/GridSpacingY01
350
CA
  3
Grid/GridSpacingY02
350
CB
  3
Grid/GridSpacingY03
350
CC
  3
Grid/IsometricGrid00
350
CD
  3
Grid/IsometricGrid01
350
CE
  3
Grid/IsometricGrid02
350
CF
  3
Grid/IsometricGrid03
350
D0
  3
Grid/IsometricProjection00
350
D1
  3
Grid/IsometricProjection01
350
D2
  3
Grid/IsometricProjection02
350
D3
  3
Grid/IsometricProjection03
350
D4
  3
Grid/MetaGridSpacingX
350
D5
  3
Grid/MetaGridSpacingX00
350
D6
  3
Grid/MetaGridSpacingX01
350
D7
  3
Grid/MetaGridSpacingX02
350
D8
  3
Grid/MetaGridSpacingX03
350
D9
  3
Grid/MetaGridSpacingY
350
DA
  3
Grid/MetaGridSpacingY00
350
DB
  3
Grid/MetaGridSpacingY01
350
DC
  3
Grid/MetaGridSpacingY02
350
DD
  3
Grid/MetaGridSpacingY03
350
DE
  3
MultiPageSettings/Columns
350
DF
  3
MultiPageSettings/GlueMarginBottom
350
E0
  3
MultiPageSettings/GlueMarginsBottom
350
E1
  3
MultiPageSettings/GlueMarginsLeft
350
E2
  3
MultiPageSettings/GlueMarginsRight
350
E3
  3
MultiPageSettings/GlueMarginsTop
350
E4
  3
MultiPageSettings/PrintCropMarks
350
E5
  3
MultiPageSettings/Rows
350
E6
  3
PageSettings/OffsetX
350
E7
  3
PageSettings/OffsetY
350
E8
  3
PageSettings/PageOrientation
350
E9
  3
PageSettings/PaperHeight
350
EA
  3
PageSettings/PaperWidth
350
EB
  3
PageSettings/Scale
350
EC
  3
PageSettings/ShowBoundingBox
350
ED
  3
PageSettings/ShowPageBorders
350
EE
  3
PageSettings/ShowPaperBorders
350
EF
  3
UnitSettings/PaperUnit
350
F0
  0
XRECORD
  5
BD
330
BA
100
AcDbXrecord
280
1
1000
BlackWhite
  0
XRECORD
  5
BE
330
BA
100
AcDbXrecord
280
1
290
1
  0
XRECORD
  5
BF
330
BA
100
AcDbXrecord
280
1
290
1
  0
XRECORD
  5
C0
330
BA
100
AcDbXrecord
280
1
290
1
  0
XRECORD
  5
C1
330
BA
100
AcDbXrecord
280
1
290
1
  0
XRECORD
  5
C2
330
BA
100
AcDbXrecord
280
1
290
1
  0
XRECORD
  5
C3
330
BA
100
AcDbXrecord
280
1
1000
auto
  0
XRECORD
  5
C4
330
BA
100
AcDbXrecord
280
1
1000
auto
  0
XRECORD
  5
C5
330
BA
100
AcDbXrecord
280
1
1000
auto
  0
XRECORD
  5
C6
330
BA
100
AcDbXrecord
280
1
1000
auto
  0
XRECORD
  5
C7
330
BA
100
AcDbXrecord
280
1
1000
auto
  0
XRECORD
  5
C8
330
BA
100
AcDbXrecord
280
1
1000
auto
  0
XRECORD
  5
C9
330
BA
100
AcDbXrecord
280
1
1000
auto
  0
XRECORD
  5
CA
330
BA
100
AcDbXrecord
280
1
1000
auto
  0
XRECORD
  5
CB
330
BA
100
AcDbXrecord
280
1
1000
auto
  0
XRECORD
  5
CC
330
BA
100
AcDbXrecord
280
1
1000
auto
  0
XRECORD
  5
CD
330
BA
100
AcDbXrecord
280
1
290
0
  0
XRECORD
  5
CE
330
BA
100
AcDbXrecord
280
1
290
0
  0
XRECORD
  5
CF
330
BA
100
AcDbXrecord
280
1
290
0
  0
XRECORD
  5
D0
330
BA
100
AcDbXrecord
280
1
290
0
  0
XRECORD
  5
D1
330
BA
100
AcDbXrecord
280
1
 90
0
  0
XRECORD
  5
D2
330
BA
100
AcDbXrecord
280
1
 90
0
  0
XRECORD
  5
D3
330
BA
100
AcDbXrecord
280
1
 90
0
  0
XRECORD
  5
D4
330
BA
100
AcDbXrecord
280
1
 90
0
  0
XRECORD
  5
D5
330
BA
100
AcDbXrecord
280
1
1000
auto
  0
XRECORD
  5
D6
330
BA
100
AcDbXrecord
280
1
1000
auto
  0
XRECORD
  5
D7
330
BA
100
AcDbXrecord
280
1
1000
auto
  0
XRECORD
  5
D8
330
BA
100
AcDbXrecord
280
1
1000
auto
  0
XRECORD
  5
D9
330
BA
100
AcDbXrecord
280
1
1000
auto
  0
XRECORD
  5
DA
330
BA
100
AcDbXrecord
280
1
1000
auto
  0
XRECORD
  5
DB
330
BA
100
AcDbXrecord
280
1
1000
auto
  0
XRECORD
  5
DC
330
BA
100
AcDbXrecord
280
1
1000
auto
  0
XRECORD
  5
DD
330
BA
100
AcDbXrecord
280
1
1000
auto
  0
XRECORD
  5
DE
330
BA
100
AcDbXrecord
280
1
1000
auto
  0
XRECORD
  5
DF
330
BA
100
AcDbXrecord
280
1
 90
1
  0
XRECORD
  5
E0
330
BA
100
AcDbXrecord
280
1
 40
10.0
  0
XRECORD
  5
E1
330
BA
100
AcDbXrecord
280
1
 40
10.0
  0
XRECORD
  5
E2
330
BA
100
AcDbXrecord
280
1
 40
10.0
  0
XRECORD
  5
E3
330
BA
100
AcDbXrecord
280
1
 40
10.0
  0
XRECORD
  5
E4
330
BA
100
AcDbXrecord
280
1
 40
10.0
  0
XRECORD
  5
E5
330
BA
100
AcDbXrecord
280
1
290
0
  0
XRECORD
  5
E6
330
BA
100
AcDbXrecord
280
1
 90
1
  0
XRECORD
  5
E7
330
BA
100
AcDbXrecord
280
1
 40
28.085451596308161
  0
XRECORD
  5
E8
330
BA
100
AcDbXrecord
280
1
 40
67.6920504140245356
  0
XRECORD
  5
E9
330
BA
100
AcDbXrecord
280
1
1000
Landscape
  0
XRECORD
  5
EA
330
BA
100
AcDbXrecord
280
1
 40
297.0
  0
XRECORD
  5
EB
330
BA
100
AcDbXrecord
280
1
 40
210.0
  0
XRECORD
  5
EC
330
BA
100
AcDbXrecord
280
1
1000
1:1
  0
XRECORD
  5
ED
330
BA
100
AcDbXrecord
280
1
290
0
  0
XRECORD
  5
EE
330
BA
100
AcDbXrecord
280
1
290
1
  0
XRECORD
  5
EF
330
BA
100
AcDbXrecord
280
1
290
1
  0
XRECORD
  5
F0
330
BA
100
AcDbXrecord
280
1
 90
4
  0
ENDSEC
  0
EOF
