<?xml version="1.0" encoding="UTF-8"?>
<!-- 2013-09-20 16:10:29 Generated by QCAD SVG Exporter -->
<svg width="370.0000000000001mm" height="370mm" viewBox="0 -370 370.0000000000001 370" version="1.1" xmlns="http://www.w3.org/2000/svg" style="stroke-linecap:round;stroke-linejoin:round;fill:none">
    <g transform="scale(1,-1)">
        <!-- Line -->
        <path d="M0,0 L0,370 " style="stroke:#000000;stroke-width:0.25;"/>
        <!-- Line -->
        <path d="M0,370 L370,370 " style="stroke:#000000;stroke-width:0.25;"/>
        <!-- Line -->
        <path d="M370,370 L370,0 " style="stroke:#000000;stroke-width:0.25;"/>
        <!-- Line -->
        <path d="M370.0000000000001,0 L0,0 " style="stroke:#000000;stroke-width:0.25;"/>
        <!-- Line -->
        <path d="M257.1,38.99999999999994 L257.1000000000001,28 " style="stroke:#000000;stroke-width:0.25;"/>
        <!-- Line -->
        <path d="M133.2514842198018,44 L236.7485157801983,44 " style="stroke:#000000;stroke-width:0.25;"/>
        <!-- Line -->
        <!-- Circle -->
        <circle cx="3" cy="90" r="1.5" style="stroke:#00ff00;stroke-width:0.25;"/>
        <!-- Circle -->
        <circle cx="266.5000000000001" cy="309.4999999999987" r="1.5" style="stroke:#ff00ff;stroke-width:0.5;"/>
        <!-- Circle -->
        <circle cx="266.5000000000002" cy="289.4999999999987" r="1.5" style="stroke:#ff00ff;stroke-width:0.5;"/>
        <!-- Circle -->
        <circle cx="199.5000000000004" cy="119.4999999999987" r="1.5" style="stroke:#ff00ff;stroke-width:0.5;"/>
        <!-- Circle -->
        <circle cx="199.5" cy="139.4999999999987" r="1.5" style="stroke:#ff00ff;stroke-width:0.5;"/>
        <!-- Circle -->
        <circle cx="304.0000000000001" cy="318.9999999999987" r="1.5" style="stroke:#00ff00;stroke-width:0.25;"/>
        <!-- Circle -->
        <circle cx="95.00000000000018" cy="318.9999999999988" r="1.5" style="stroke:#00ff00;stroke-width:0.25;"/>
        <!-- Line -->
        <path d="M44.07106781186548,91.92893218813452 L44,92 " style="stroke:#ff00ff;stroke-width:0.5;"/>
        <!-- Circle -->
        <circle cx="50" cy="9" r="1.5" style="stroke:#ff00ff;stroke-width:0.5;"/>
        <!-- Circle -->
        <circle cx="320" cy="9" r="1.5" style="stroke:#ff00ff;stroke-width:0.5;"/>
        <!-- Circle -->
        <circle cx="230" cy="9" r="1.5" style="stroke:#ff00ff;stroke-width:0.5;"/>
        <!-- Circle -->
        <circle cx="140" cy="9" r="1.5" style="stroke:#ff00ff;stroke-width:0.5;"/>
        <!-- Circle -->
        <circle cx="364" cy="44" r="1.5" style="stroke:#00ff00;stroke-width:0.25;"/>
        <!-- Circle -->
        <circle cx="347.5" cy="364" r="1.5" style="stroke:#ff00ff;stroke-width:0.5;"/>
        <!-- Circle -->
        <circle cx="232.0000000000001" cy="286.4999999999987" r="1.5" style="stroke:#00ff00;stroke-width:0.25;"/>
        <!-- Arc -->
        <path d="M183.3628763929228,128.1999999999987 A4,4 0 0,1 187.3628763929228,124.19999999999871 " style="stroke:#000000;stroke-width:0.25;"/>
        <!-- Line -->
        <path d="M187.3628763929227,134.7999999999987 L210.3628763929229,134.7999999999987 " style="stroke:#000000;stroke-width:0.25;"/>
        <!-- Arc -->
        <path d="M214.3628763929228,130.7999999999987 A4,4 0 0,1 210.3628763929228,134.7999999999987 " style="stroke:#000000;stroke-width:0.25;"/>
        <!-- Line -->
        <path d="M214.3628763929229,130.7999999999987 L214.3628763929229,128.1999999999987 " style="stroke:#000000;stroke-width:0.25;"/>
        <!-- Arc -->
        <path d="M210.3628763929229,124.19999999999871 A4,4 0 0,1 214.3628763929229,128.1999999999987 " style="stroke:#000000;stroke-width:0.25;"/>
        <!-- Line -->
        <path d="M210.3628763929228,124.1999999999987 L187.3628763929228,124.1999999999987 " style="stroke:#000000;stroke-width:0.25;"/>
        <!-- Arc -->
        <path d="M187.3628763929228,134.7999999999987 A4,4 0 0,1 183.3628763929228,130.7999999999987 " style="stroke:#000000;stroke-width:0.25;"/>
        <!-- Line -->
        <path d="M183.3628763929228,128.1999999999987 L183.3628763929229,130.7999999999987 " style="stroke:#000000;stroke-width:0.25;"/>
        <!-- Line -->
        <path d="M54.99999999999942,55.00000000000002 L54.99999999999997,318.9999999999987 " style="stroke:#000000;stroke-width:0.25;"/>
        <!-- Line -->
        <path d="M315.0000000000003,318.9999999999988 L315.0000000000018,54.99999999999994 " style="stroke:#000000;stroke-width:0.25;"/>
        <!-- Line -->
        <!-- Line -->
        <!-- Circle -->
        <circle cx="199.5000000000001" cy="109.9999999999987" r="1.5" style="stroke:#00ff00;stroke-width:0.25;"/>
        <!-- Line -->
        <path d="M65.99999999999997,329.9999999999987 L304.0000000000003,329.9999999999987 " style="stroke:#000000;stroke-width:0.25;"/>
        <!-- Arc -->
        <path d="M214.4999999999999,104.9999999999987 A10,10 0 0,1 224.4999999999999,114.9999999999987 " style="stroke:#000000;stroke-width:0.25;"/>
        <!-- Line -->
        <path d="M174.5000000000001,114.9999999999987 L174.5000000000001,139.4999999999988 " style="stroke:#000000;stroke-width:0.25;"/>
        <!-- Arc -->
        <path d="M174.4999999999998,114.9999999999987 A10,10 0 0,1 184.4999999999998,104.9999999999987 " style="stroke:#000000;stroke-width:0.25;"/>
        <!-- Line -->
        <path d="M214.4999999999999,104.9999999999987 L184.4999999999998,104.9999999999987 " style="stroke:#000000;stroke-width:0.25;"/>
        <!-- Circle -->
        <circle cx="51.29999999999997" cy="91" r="1.5" style="stroke:#00ff00;stroke-width:0.25;"/>
        <!-- Circle -->
        <circle cx="3.00000000000005" cy="172.4" r="1.5" style="stroke:#00ff00;stroke-width:0.25;"/>
        <!-- Line -->
        <path d="M17.5,13 L22.5,13 " style="stroke:#000000;stroke-width:0.25;"/>
        <!-- Line -->
        <path d="M17.5,7 L22.5,7 " style="stroke:#000000;stroke-width:0.25;"/>
        <!-- Arc -->
        <path d="M22.5,7 A3,3 0 0,1 22.5,13 " style="stroke:#000000;stroke-width:0.25;"/>
        <!-- Arc -->
        <path d="M17.5,13 A3,3 0 0,1 17.5,7 " style="stroke:#000000;stroke-width:0.25;"/>
        <!-- Line -->
        <path d="M347.5,13 L352.5,13 " style="stroke:#000000;stroke-width:0.25;"/>
        <!-- Line -->
        <path d="M347.5,7 L352.5,7 " style="stroke:#000000;stroke-width:0.25;"/>
        <!-- Arc -->
        <path d="M347.5,13 A3,3 0 0,1 347.5,7 " style="stroke:#000000;stroke-width:0.25;"/>
        <!-- Arc -->
        <path d="M352.5,7 A3,3 0 0,1 352.5,13 " style="stroke:#000000;stroke-width:0.25;"/>
        <!-- Line -->
        <path d="M275.5070368960443,284.4999999999987 L240.5000000000002,284.4999999999986 " style="stroke:#000000;stroke-width:0.25;"/>
        <!-- Line -->
        <path d="M304.0000000000002,313.9999999999987 L281.5070368960443,313.9999999999987 " style="stroke:#000000;stroke-width:0.25;"/>
        <!-- Line -->
        <path d="M304.0000000000002,323.9999999999986 L95,323.9999999999987 " style="stroke:#000000;stroke-width:0.25;"/>
        <!-- Arc -->
        <path d="M304.0000000000001,313.9999999999987 A5,5 0 0,1 304.0000000000001,323.9999999999987 " style="stroke:#000000;stroke-width:0.25;"/>
        <!-- Line -->
        <path d="M278.5070368960444,310.9999999999986 L278.5070368960444,307.7999999999994 " style="stroke:#000000;stroke-width:0.25;"/>
        <!-- Arc -->
        <path d="M281.5070368960444,313.9999999999986 A3,3 0 0,1 278.5070368960444,310.9999999999986 " style="stroke:#000000;stroke-width:0.25;"/>
        <!-- Line -->
        <path d="M278.5070368960443,291.1999999999992 L278.5070368960443,287.4999999999987 " style="stroke:#000000;stroke-width:0.25;"/>
        <!-- Arc -->
        <path d="M275.5070368960443,284.4999999999987 A3,3 0 0,1 278.5070368960443,287.4999999999987 " style="stroke:#000000;stroke-width:0.25;"/>
        <!-- Line -->
        <path d="M212.0000000000001,268.4999999999987 L212.0000000000001,165.4999999999989 " style="stroke:#000000;stroke-width:0.25;"/>
        <!-- Line -->
        <path d="M95.00000000000006,313.9999999999988 L117.4929631039557,313.9999999999987 " style="stroke:#000000;stroke-width:0.25;"/>
        <!-- Arc -->
        <path d="M95.00000000000011,323.9999999999989 A5,5 0 0,1 95.00000000000011,313.9999999999989 " style="stroke:#000000;stroke-width:0.25;"/>
        <!-- Line -->
        <path d="M147.4929631039558,297.1999999999987 L147.4929631039559,301.7999999999988 " style="stroke:#000000;stroke-width:0.25;"/>
        <!-- Line -->
        <path d="M120.4929631039557,310.9999999999988 L120.4929631039557,307.7999999999988 " style="stroke:#000000;stroke-width:0.25;"/>
        <!-- Arc -->
        <path d="M120.4929631039559,310.9999999999989 A3,3 0 0,1 117.4929631039559,313.9999999999989 " style="stroke:#000000;stroke-width:0.25;"/>
        <!-- Line -->
        <path d="M120.4929631039558,291.1999999999987 L120.4929631039557,287.499999999999 " style="stroke:#000000;stroke-width:0.25;"/>
        <!-- Arc -->
        <path d="M120.4929631039557,287.4999999999989 A3,3 0 0,1 123.4929631039557,284.4999999999989 " style="stroke:#000000;stroke-width:0.25;"/>
        <!-- Circle -->
        <circle cx="132.4999999999999" cy="309.4999999999987" r="1.5" style="stroke:#ff00ff;stroke-width:0.5;"/>
        <!-- Circle -->
        <circle cx="132.5000000000001" cy="289.499999999999" r="1.5" style="stroke:#ff00ff;stroke-width:0.5;"/>
        <!-- Line -->
        <path d="M144.4929631039559,304.7999999999989 L123.4929631039557,304.7999999999988 " style="stroke:#000000;stroke-width:0.25;"/>
        <!-- Line -->
        <path d="M123.4929631039557,294.1999999999987 L144.4929631039558,294.1999999999988 " style="stroke:#000000;stroke-width:0.25;"/>
        <!-- Line -->
        <path d="M196.0000000000001,284.4999999999987 L123.4929631039558,284.499999999999 " style="stroke:#000000;stroke-width:0.25;"/>
        <!-- Arc -->
        <path d="M240.5000000000002,284.4999999999986 A16,16 0 0,1 224.5000000000002,268.4999999999986 " style="stroke:#000000;stroke-width:0.25;"/>
        <!-- Arc -->
        <path d="M212.0000000000001,268.4999999999987 A16,16 0 0,1 196.00000000000017,284.4999999999987 " style="stroke:#000000;stroke-width:0.25;"/>
        <!-- Line -->
        <path d="M158.9999999999996,278.4999999999988 L116.9999999999997,278.4999999999987 " style="stroke:#000000;stroke-width:0.25;"/>
        <!-- Line -->
        <path d="M107.4999999999997,268.9999999999987 L107.4999999999997,98.99999999999878 " style="stroke:#000000;stroke-width:0.25;"/>
        <!-- Line -->
        <path d="M116.9999999999997,89.49999999999879 L158.9999999999996,89.49999999999882 " style="stroke:#000000;stroke-width:0.25;"/>
        <!-- Line -->
        <path d="M168.4999999999996,98.99999999999882 L168.4999999999997,268.9999999999988 " style="stroke:#000000;stroke-width:0.25;"/>
        <!-- Arc -->
        <!-- Arc -->
        <!-- Arc -->
        <!-- Arc -->
        <!-- Circle -->
        <circle cx="362.5" cy="364" r="1.5" style="stroke:#ff00ff;stroke-width:0.5;"/>
        <!-- Circle -->
        <circle cx="22.49999999999997" cy="364.0000000000004" r="1.5" style="stroke:#ff00ff;stroke-width:0.5;"/>
        <!-- Circle -->
        <circle cx="7.499999999999972" cy="364.0000000000005" r="1.5" style="stroke:#ff00ff;stroke-width:0.5;"/>
        <!-- Line -->
        <path d="M262.1,44 L304.0000000000018,44 " style="stroke:#000000;stroke-width:0.25;"/>
        <!-- Line -->
        <path d="M112.9000000000001,38.99999999999999 L112.9000000000001,28.00000000000003 " style="stroke:#000000;stroke-width:0.25;"/>
        <!-- Line -->
        <path d="M65.99999999999943,44 L107.9000000000001,44.00000000000002 " style="stroke:#000000;stroke-width:0.25;"/>
        <!-- Circle -->
        <circle cx="338" cy="44" r="1.5" style="stroke:#00ff00;stroke-width:0.25;"/>
        <!-- Circle -->
        <circle cx="364" cy="6" r="1.5" style="stroke:#00ff00;stroke-width:0.25;"/>
        <!-- Circle -->
        <circle cx="6.000000000000114" cy="6.00000000000009" r="1.5" style="stroke:#00ff00;stroke-width:0.25;"/>
        <!-- Circle -->
        <circle cx="6.000000000000171" cy="44.00000000000018" r="1.5" style="stroke:#00ff00;stroke-width:0.25;"/>
        <!-- Arc -->
        <!-- Circle -->
        <circle cx="32.0000000000002" cy="44.00000000000021" r="1.5" style="stroke:#00ff00;stroke-width:0.25;"/>
        <!-- Arc -->
        <path d="M116.99999999999967,278.4999999999987 A9.5,9.5 0 0,1 107.4999999999997,268.9999999999987 " style="stroke:#000000;stroke-width:0.25;"/>
        <!-- Arc -->
        <path d="M168.4999999999997,268.9999999999988 A9.5,9.5 0 0,1 158.99999999999966,278.4999999999988 " style="stroke:#000000;stroke-width:0.25;"/>
        <!-- Arc -->
        <path d="M158.9999999999996,89.49999999999882 A9.5,9.5 0 0,1 168.4999999999996,98.99999999999882 " style="stroke:#000000;stroke-width:0.25;"/>
        <!-- Arc -->
        <path d="M107.4999999999997,98.9999999999988 A9.5,9.5 0 0,1 116.9999999999997,89.4999999999988 " style="stroke:#000000;stroke-width:0.25;"/>
        <!-- Circle -->
        <circle cx="158.9999999999996" cy="98.99999999999882" r="4" style="stroke:#ff0000;stroke-width:0.25;"/>
        <!-- Circle -->
        <circle cx="158.9999999999997" cy="268.9999999999988" r="4" style="stroke:#ff0000;stroke-width:0.25;"/>
        <!-- Circle -->
        <circle cx="130.4999999999997" cy="250.9999999999987" r="6.7" style="stroke:#000000;stroke-width:0.25;"/>
        <!-- Circle -->
        <circle cx="130.4999999999997" cy="116.9999999999987" r="6.7" style="stroke:#000000;stroke-width:0.25;"/>
        <!-- Line -->
        <path d="M230.5000000000006,98.9999999999988 L230.5000000000005,268.9999999999988 " style="stroke:#000000;stroke-width:0.25;"/>
        <!-- Line -->
        <!-- Arc -->
        <path d="M291.5000000000005,268.9999999999986 A9.5,9.5 0 0,1 282.00000000000057,278.4999999999986 " style="stroke:#000000;stroke-width:0.25;"/>
        <!-- Arc -->
        <path d="M240.00000000000054,278.4999999999988 A9.5,9.5 0 0,1 230.5000000000005,268.9999999999988 " style="stroke:#000000;stroke-width:0.25;"/>
        <!-- Arc -->
        <path d="M230.5000000000005,98.99999999999878 A9.5,9.5 0 0,1 240.0000000000005,89.49999999999878 " style="stroke:#000000;stroke-width:0.25;"/>
        <!-- Arc -->
        <path d="M282.0000000000005,89.4999999999988 A9.5,9.5 0 0,1 291.5000000000005,98.9999999999988 " style="stroke:#000000;stroke-width:0.25;"/>
        <!-- Circle -->
        <circle cx="240.0000000000005" cy="98.99999999999878" r="4" style="stroke:#ff0000;stroke-width:0.25;"/>
        <!-- Line -->
        <path d="M240.0000000000006,278.4999999999988 L282.0000000000005,278.4999999999986 " style="stroke:#000000;stroke-width:0.25;"/>
        <!-- Circle -->
        <circle cx="240.0000000000005" cy="268.9999999999988" r="4" style="stroke:#ff0000;stroke-width:0.25;"/>
        <!-- Line -->
        <path d="M291.5000000000005,268.9999999999987 L291.5000000000005,98.99999999999878 " style="stroke:#000000;stroke-width:0.25;"/>
        <!-- Circle -->
        <circle cx="268.5000000000005" cy="250.9999999999987" r="6.7" style="stroke:#000000;stroke-width:0.25;"/>
        <!-- Line -->
        <path d="M282.0000000000005,89.4999999999988 L240.0000000000006,89.4999999999988 " style="stroke:#000000;stroke-width:0.25;"/>
        <!-- Circle -->
        <circle cx="268.5000000000005" cy="116.9999999999987" r="6.7" style="stroke:#000000;stroke-width:0.25;"/>
        <!-- Arc -->
        <path d="M147.4929631039559,301.7999999999989 A3,3 0 0,1 144.4929631039559,304.7999999999989 " style="stroke:#000000;stroke-width:0.25;"/>
        <!-- Arc -->
        <path d="M144.49296310395582,294.1999999999988 A3,3 0 0,1 147.4929631039558,297.1999999999988 " style="stroke:#000000;stroke-width:0.25;"/>
        <!-- Line -->
        <path d="M254.5070368960438,304.7999999999993 L275.507036896044,304.7999999999994 " style="stroke:#000000;stroke-width:0.25;"/>
        <!-- Line -->
        <path d="M275.5070368960441,294.1999999999992 L254.507036896044,294.1999999999992 " style="stroke:#000000;stroke-width:0.25;"/>
        <!-- Line -->
        <path d="M251.507036896044,297.1999999999991 L251.5070368960438,301.7999999999992 " style="stroke:#000000;stroke-width:0.25;"/>
        <!-- Arc -->
        <path d="M254.50703689604376,304.7999999999993 A3,3 0 0,1 251.5070368960438,301.7999999999993 " style="stroke:#000000;stroke-width:0.25;"/>
        <!-- Arc -->
        <path d="M251.507036896044,297.1999999999991 A3,3 0 0,1 254.507036896044,294.1999999999991 " style="stroke:#000000;stroke-width:0.25;"/>
        <!-- Arc -->
        <path d="M278.5070368960443,291.1999999999992 A3,3 0 0,1 275.5070368960443,294.1999999999992 " style="stroke:#000000;stroke-width:0.25;"/>
        <!-- Arc -->
        <path d="M275.5070368960444,304.7999999999994 A3,3 0 0,1 278.5070368960444,307.7999999999994 " style="stroke:#000000;stroke-width:0.25;"/>
        <!-- Arc -->
        <path d="M120.4929631039557,307.7999999999988 A3,3 0 0,1 123.49296310395572,304.7999999999988 " style="stroke:#000000;stroke-width:0.25;"/>
        <!-- Arc -->
        <path d="M123.49296310395579,294.1999999999987 A3,3 0 0,1 120.4929631039558,291.1999999999987 " style="stroke:#000000;stroke-width:0.25;"/>
        <!-- Circle -->
        <circle cx="249.0000000000005" cy="247.9999999999987" r="1.5" style="stroke:#ff00ff;stroke-width:0.5;"/>
        <!-- Circle -->
        <circle cx="249.0000000000005" cy="234.9999999999987" r="1.5" style="stroke:#ff00ff;stroke-width:0.5;"/>
        <!-- Arc -->
        <path d="M65.99999999999997,329.9999999999987 A11,11 0 0,1 54.99999999999997,318.9999999999987 " style="stroke:#000000;stroke-width:0.25;"/>
        <!-- Arc -->
        <path d="M315.0000000000003,318.9999999999987 A11,11 0 0,1 304.0000000000003,329.9999999999987 " style="stroke:#000000;stroke-width:0.25;"/>
        <!-- Arc -->
        <path d="M304.0000000000018,44 A11,11 0 0,1 315.0000000000018,55 " style="stroke:#000000;stroke-width:0.25;"/>
        <!-- Arc -->
        <path d="M54.99999999999943,55 A11,11 0 0,1 65.99999999999943,44 " style="stroke:#000000;stroke-width:0.25;"/>
        <!-- Arc -->
        <path d="M112.9000000000001,28.00000000000003 A5.1,5.1 0 0,1 123.1000000000001,28.00000000000003 " style="stroke:#000000;stroke-width:0.25;"/>
        <!-- Arc -->
        <path d="M246.90000000000012,28 A5.1,5.1 0 0,1 257.10000000000014,28 " style="stroke:#000000;stroke-width:0.25;"/>
        <!-- Arc -->
        <path d="M123.26422469245125,34.504625735912484 A128.9,128.9 0 0,1 123.10000000000011,28.000000000000014 " style="stroke:#000000;stroke-width:0.25;"/>
        <!-- Arc -->
        <path d="M246.9000000000001,28.00000000000012 A128.9,128.9 0 0,1 246.73577530754898,34.504625735912605 " style="stroke:#000000;stroke-width:0.25;"/>
        <!-- Arc -->
        <path d="M112.9000000000001,39.00000000000002 A5,5 0 0,1 107.9000000000001,44.00000000000002 " style="stroke:#000000;stroke-width:0.25;"/>
        <!-- Arc -->
        <path d="M262.1,44 A5,5 0 0,1 257.1,39 " style="stroke:#000000;stroke-width:0.25;"/>
        <!-- Circle -->
        <circle cx="269.0000000000001" cy="8" r="1.5" style="stroke:#ff00ff;stroke-width:0.5;"/>
        <!-- Circle -->
        <circle cx="269.0000000000001" cy="18" r="1.5" style="stroke:#ff00ff;stroke-width:0.5;"/>
        <!-- Circle -->
        <circle cx="101.0000000000001" cy="8.000000000000158" r="1.5" style="stroke:#ff00ff;stroke-width:0.5;"/>
        <!-- Circle -->
        <circle cx="101.0000000000001" cy="18.0000000000001" r="1.5" style="stroke:#ff00ff;stroke-width:0.5;"/>
        <!-- Circle -->
        <circle cx="346.0000000000001" cy="91" r="1.5" style="stroke:#00ff00;stroke-width:0.25;"/>
        <!-- Line -->
        <path d="M224.4999999999999,114.9999999999987 L224.4999999999999,268.4999999999986 " style="stroke:#000000;stroke-width:0.25;"/>
        <!-- Line -->
        <path d="M196.0000000000001,149.4999999999988 L184.4999999999998,149.4999999999988 " style="stroke:#000000;stroke-width:0.25;"/>
        <!-- Arc -->
        <path d="M196.0000000000001,149.4999999999988 A16,16 0 0,1 212.0000000000001,165.4999999999988 " style="stroke:#000000;stroke-width:0.25;"/>
        <!-- Arc -->
        <path d="M184.5,149.4999999999988 A10,10 0 0,1 174.5,139.4999999999988 " style="stroke:#000000;stroke-width:0.25;"/>
        <!-- Circle -->
        <circle cx="204.4999999999999" cy="286.4999999999987" r="1.5" style="stroke:#00ff00;stroke-width:0.25;"/>
        <!-- Arc -->
        <path d="M246.73577530754886,34.504625735912526 A10,10 0 0,1 236.7485157801983,44 " style="stroke:#000000;stroke-width:0.25;"/>
        <!-- Arc -->
        <path d="M133.2514842198018,44 A10,10 0 0,1 123.26422469245122,34.504625735912526 " style="stroke:#000000;stroke-width:0.25;"/>
    </g>
</svg>
