999
dxflib 3.3.4.0
  0
SECTION
  2
HEADER
  9
$ACADVER
  1
AC1015
  9
$HANDSEED
  5
FFFF
  9
$ANGBASE
 50
0.0
  9
$ATTMODE
 70
1
  9
$AUNITS
 70
0
  9
$AUPREC
 70
0
  9
$CELTSCALE
 40
1.0
  9
$CHAMFERA
 40
0.5
  9
$CHAMFERB
 40
0.5
  9
$CHAMFERC
 40
1.0
  9
$CHAMFERD
 40
0.0
  9
$CMLJUST
 70
0
  9
$CMLSCALE
 40
1.0
  9
$DIMADEC
 70
0
  9
$DIMALTD
 70
2
  9
$DIMALTF
 40
0.0393701
  9
$DIMALTRND
 40
0.0
  9
$DIMALTTD
 70
4
  9
$DIMALTTZ
 70
0
  9
$DIMALTU
 70
2
  9
$DIMALTZ
 70
0
  9
$DIMAPOST
  1
"
  9
$DIMASZ
 40
3.5
  9
$DIMATFIT
 70
3
  9
$DIMAUNIT
 70
0
  9
$DIMAZIN
 70
2
  9
$DIMCEN
 40
0.0
  9
$DIMDEC
 70
2
  9
$DIMDLE
 40
0.0
  9
$DIMDLI
 40
10.0
  9
$DIMDSEP
 70
46
  9
$DIMEXE
 40
1.0
  9
$DIMEXO
 40
1.0
  9
$DIMFRAC
 70
0
  9
$DIMGAP
 40
1.5
  9
$DIMJUST
 70
0
  9
$DIMLFAC
 40
1.0
  9
$DIMLUNIT
 70
2
  9
$DIMLWD
 70
-1
  9
$DIMLWE
 70
-1
  9
$DIMPOST
  1

  9
$DIMRND
 40
0.0
  9
$DIMSCALE
 40
1.0
  9
$DIMTAD
 70
1
  9
$DIMTDEC
 70
3
  9
$DIMTFAC
 40
0.71
  9
$DIMTM
 40
0.1
  9
$DIMTOLJ
 70
0
  9
$DIMTP
 40
0.1
  9
$DIMTSZ
 40
0.0
  9
$DIMTVP
 40
0.0
  9
$DIMTXT
 40
3.5
  9
$DIMTZIN
 70
8
  9
$DIMZIN
 70
8
  9
$DWGCODEPAGE
  3
ANSI_1252
  9
$ELEVATION
 40
0.0
  9
$EXTMAX
 10
370.0
 20
370.0
 30
0.0
  9
$EXTMIN
 10
0.0
 20
0.0
 30
0.0
  9
$FILLETRAD
 40
0.5
  9
$INSBASE
 10
0.0
 20
0.0
 30
0.0
  9
$INSUNITS
 70
4
  9
$LIMMAX
 10
12.0
 20
9.0
  9
$LIMMIN
 10
0.0
 20
0.0
  9
$LTSCALE
 40
1.0
  9
$LUNITS
 70
2
  9
$LUPREC
 70
4
  9
$MAXACTVP
 70
64
  9
$PDMODE
 70
0
  9
$PDSIZE
 40
0.0
  9
$PELEVATION
 40
0.0
  9
$PEXTMAX
 10
-100000000000000000000.0
 20
-100000000000000000000.0
 30
-100000000000000000000.0
  9
$PEXTMIN
 10
100000000000000000000.0
 20
100000000000000000000.0
 30
100000000000000000000.0
  9
$PINSBASE
 10
0.0
 20
0.0
 30
0.0
  9
$PLIMMAX
 10
277.0
 20
202.5
  9
$PLIMMIN
 10
-20.0
 20
-7.5
  9
$PLINEWID
 40
0.0
  9
$PROXYGRAPHICS
 70
1
  9
$PUCSORG
 10
0.0
 20
0.0
 30
0.0
  9
$PUCSXDIR
 10
1.0
 20
0.0
 30
0.0
  9
$PUCSYDIR
 10
0.0
 20
1.0
 30
0.0
  9
$SHADEDGE
 70
3
  9
$SHADEDIF
 70
70
  9
$SKETCHINC
 40
0.1
  9
$SPLINESEGS
 70
8
  9
$SPLINETYPE
 70
6
  9
$SURFTAB1
 70
6
  9
$SURFTAB2
 70
6
  9
$SURFTYPE
 70
6
  9
$SURFU
 70
6
  9
$SURFV
 70
6
  9
$TEXTSIZE
 40
2.5
  9
$THICKNESS
 40
0.0
  9
$TRACEWID
 40
0.05
  9
$TREEDEPTH
 70
3020
  9
$UCSORG
 10
0.0
 20
0.0
 30
0.0
  9
$UCSXDIR
 10
1.0
 20
0.0
 30
0.0
  9
$UCSYDIR
 10
0.0
 20
1.0
 30
0.0
  9
$UNITMODE
 70
0
  9
$USERI1
 70
0
  9
$USERI2
 70
0
  9
$USERI3
 70
0
  9
$USERI4
 70
0
  9
$USERI5
 70
0
  9
$USERR1
 40
0.0
  9
$USERR2
 40
0.0
  9
$USERR3
 40
0.0
  9
$USERR4
 40
0.0
  9
$USERR5
 40
0.0
  0
ENDSEC
  0
SECTION
  2
TABLES
  0
TABLE
  2
VPORT
  5
8
100
AcDbSymbolTable
 70
1
  0
VPORT
  5
30
100
AcDbSymbolTableRecord
100
AcDbViewportTableRecord
  2
*Active
 70
0
 10
0.0
 20
0.0
 11
1.0
 21
1.0
 12
286.3055555555554861
 22
148.5
 13
0.0
 23
0.0
 14
10.0
 24
10.0
 15
10.0
 25
10.0
 16
0.0
 26
0.0
 36
1.0
 17
0.0
 27
0.0
 37
0.0
 40
297.0
 41
1.92798353909465
 42
50.0
 43
0.0
 44
0.0
 50
0.0
 51
0.0
 71
0
 72
100
 73
1
 74
3
 75
1
 76
1
 77
0
 78
0
281
0
 65
1
110
0.0
120
0.0
130
0.0
111
1.0
121
0.0
131
0.0
112
0.0
122
1.0
132
0.0
 79
0
146
0.0
  0
ENDTAB
  0
TABLE
  2
LTYPE
  5
5
100
AcDbSymbolTable
 70
21
  0
LTYPE
  5
16
100
AcDbSymbolTableRecord
100
AcDbLinetypeTableRecord
  2
CONTINUOUS
 70
0
  3
Solid line
 72
65
 73
0
 40
0.0
  0
LTYPE
  5
31
100
AcDbSymbolTableRecord
100
AcDbLinetypeTableRecord
  2
CENTER2
 70
0
  3
Center (.5x) ___ _ ___ _ ___ _ ___ _ ___ _ ___
 72
65
 73
4
 40
28.5749999999999993
 49
19.0500000000000007
 74
0
 49
-3.1749999999999998
 74
0
 49
3.1749999999999998
 74
0
 49
-3.1749999999999998
 74
0
  0
LTYPE
  5
32
100
AcDbSymbolTableRecord
100
AcDbLinetypeTableRecord
  2
DIVIDEX2
 70
0
  3
Divide (2x) ________  .  .  ________  .  .  _
 72
65
 73
6
 40
63.5
 49
25.3999999999999986
 74
0
 49
-12.6999999999999993
 74
0
 49
0.0
 74
0
 49
-12.6999999999999993
 74
0
 49
0.0
 74
0
 49
-12.6999999999999993
 74
0
  0
LTYPE
  5
33
100
AcDbSymbolTableRecord
100
AcDbLinetypeTableRecord
  2
DOT2
 70
0
  3
Dot (.5x) .....................................
 72
65
 73
2
 40
3.1749999999999998
 49
0.0
 74
0
 49
-3.1749999999999998
 74
0
  0
LTYPE
  5
34
100
AcDbSymbolTableRecord
100
AcDbLinetypeTableRecord
  2
DASHDOT2
 70
0
  3
Dash dot (.5x) _._._._._._._._._._._._._._._.
 72
65
 73
4
 40
12.6999999999999993
 49
6.3499999999999996
 74
0
 49
-3.1749999999999998
 74
0
 49
0.0
 74
0
 49
-3.1749999999999998
 74
0
  0
LTYPE
  5
35
100
AcDbSymbolTableRecord
100
AcDbLinetypeTableRecord
  2
DIVIDE
 70
0
  3
Divide ____ . . ____ . . ____ . . ____ . . ____
 72
65
 73
6
 40
31.75
 49
12.6999999999999993
 74
0
 49
-6.3499999999999996
 74
0
 49
0.0
 74
0
 49
-6.3499999999999996
 74
0
 49
0.0
 74
0
 49
-6.3499999999999996
 74
0
  0
LTYPE
  5
36
100
AcDbSymbolTableRecord
100
AcDbLinetypeTableRecord
  2
DASHDOT
 70
0
  3
Dash dot __ . __ . __ . __ . __ . __ . __ . __
 72
65
 73
4
 40
25.3999999999999986
 49
12.6999999999999993
 74
0
 49
-6.3499999999999996
 74
0
 49
0.0
 74
0
 49
-6.3499999999999996
 74
0
  0
LTYPE
  5
37
100
AcDbSymbolTableRecord
100
AcDbLinetypeTableRecord
  2
BORDER
 70
0
  3
Border __ __ . __ __ . __ __ . __ __ . __ __ .
 72
65
 73
6
 40
44.4500000000000028
 49
12.6999999999999993
 74
0
 49
-6.3499999999999996
 74
0
 49
12.6999999999999993
 74
0
 49
-6.3499999999999996
 74
0
 49
0.0
 74
0
 49
-6.3499999999999996
 74
0
  0
LTYPE
  5
38
100
AcDbSymbolTableRecord
100
AcDbLinetypeTableRecord
  2
DASHDOTX2
 70
0
  3
Dash dot (2x) ____  .  ____  .  ____  .  ___
 72
65
 73
4
 40
50.7999999999999972
 49
25.3999999999999986
 74
0
 49
-12.6999999999999993
 74
0
 49
0.0
 74
0
 49
-12.6999999999999993
 74
0
  0
LTYPE
  5
39
100
AcDbSymbolTableRecord
100
AcDbLinetypeTableRecord
  2
CENTERX2
 70
0
  3
Center (2x) ________  __  ________  __  _____
 72
65
 73
4
 40
101.5999999999999943
 49
63.5
 74
0
 49
-12.6999999999999993
 74
0
 49
12.6999999999999993
 74
0
 49
-12.6999999999999993
 74
0
  0
LTYPE
  5
3A
100
AcDbSymbolTableRecord
100
AcDbLinetypeTableRecord
  2
BORDER2
 70
0
  3
Border (.5x) __.__.__.__.__.__.__.__.__.__.__.
 72
65
 73
6
 40
22.2250000000000014
 49
6.3499999999999996
 74
0
 49
-3.1749999999999998
 74
0
 49
6.3499999999999996
 74
0
 49
-3.1749999999999998
 74
0
 49
0.0
 74
0
 49
-3.1749999999999998
 74
0
  0
LTYPE
  5
3B
100
AcDbSymbolTableRecord
100
AcDbLinetypeTableRecord
  2
BORDERX2
 70
0
  3
Border (2x) ____  ____  .  ____  ____  .  ___
 72
65
 73
6
 40
88.9000000000000057
 49
25.3999999999999986
 74
0
 49
-12.6999999999999993
 74
0
 49
25.3999999999999986
 74
0
 49
-12.6999999999999993
 74
0
 49
0.0
 74
0
 49
-12.6999999999999993
 74
0
  0
LTYPE
  5
14
100
AcDbSymbolTableRecord
100
AcDbLinetypeTableRecord
  2
BYBLOCK
 70
0
  3

 72
65
 73
0
 40
0.0
  0
LTYPE
  5
15
100
AcDbSymbolTableRecord
100
AcDbLinetypeTableRecord
  2
BYLAYER
 70
0
  3

 72
65
 73
0
 40
0.0
  0
LTYPE
  5
3C
100
AcDbSymbolTableRecord
100
AcDbLinetypeTableRecord
  2
DASHED2
 70
0
  3
Dashed (.5x) _ _ _ _ _ _ _ _ _ _ _ _ _ _ _ _ _
 72
65
 73
2
 40
9.5250000000000004
 49
6.3499999999999996
 74
0
 49
-3.1749999999999998
 74
0
  0
LTYPE
  5
3D
100
AcDbSymbolTableRecord
100
AcDbLinetypeTableRecord
  2
CENTER
 70
0
  3
Center ____ _ ____ _ ____ _ ____ _ ____ _ ____
 72
65
 73
4
 40
50.7999999999999972
 49
31.75
 74
0
 49
-6.3499999999999996
 74
0
 49
6.3499999999999996
 74
0
 49
-6.3499999999999996
 74
0
  0
LTYPE
  5
3E
100
AcDbSymbolTableRecord
100
AcDbLinetypeTableRecord
  2
DIVIDE2
 70
0
  3
Divide (.5x) __..__..__..__..__..__..__..__.._
 72
65
 73
6
 40
15.875
 49
6.3499999999999996
 74
0
 49
-3.1749999999999998
 74
0
 49
0.0
 74
0
 49
-3.1749999999999998
 74
0
 49
0.0
 74
0
 49
-3.1749999999999998
 74
0
  0
LTYPE
  5
3F
100
AcDbSymbolTableRecord
100
AcDbLinetypeTableRecord
  2
DASHED
 70
0
  3
Dashed __ __ __ __ __ __ __ __ __ __ __ __ __ _
 72
65
 73
2
 40
19.0500000000000007
 49
12.6999999999999993
 74
0
 49
-6.3499999999999996
 74
0
  0
LTYPE
  5
40
100
AcDbSymbolTableRecord
100
AcDbLinetypeTableRecord
  2
DOTX2
 70
0
  3
Dot (2x) .  .  .  .  .  .  .  .  .  .  .  .  .
 72
65
 73
2
 40
12.6999999999999993
 49
0.0
 74
0
 49
-12.6999999999999993
 74
0
  0
LTYPE
  5
41
100
AcDbSymbolTableRecord
100
AcDbLinetypeTableRecord
  2
DASHEDX2
 70
0
  3
Dashed (2x) ____  ____  ____  ____  ____  ___
 72
65
 73
2
 40
38.1000000000000014
 49
25.3999999999999986
 74
0
 49
-12.6999999999999993
 74
0
  0
LTYPE
  5
42
100
AcDbSymbolTableRecord
100
AcDbLinetypeTableRecord
  2
DOT
 70
0
  3
Dot . . . . . . . . . . . . . . . . . . . . . .
 72
65
 73
2
 40
6.3499999999999996
 49
0.0
 74
0
 49
-6.3499999999999996
 74
0
  0
ENDTAB
  0
TABLE
  2
LAYER
  5
2
100
AcDbSymbolTable
 70
12
  0
LAYER
  5
43
100
AcDbSymbolTableRecord
100
AcDbLayerTableRecord
  2
Mill 3mm Deep
 70
0
 62
6
420
16711935
  6
CONTINUOUS
370
25
390
F
  0
LAYER
  5
44
100
AcDbSymbolTableRecord
100
AcDbLayerTableRecord
  2
Hole 4mm 5mm Deep
 70
0
 62
1
420
16711680
  6
CONTINUOUS
370
25
390
F
  0
LAYER
  5
45
100
AcDbSymbolTableRecord
100
AcDbLayerTableRecord
  2
Hole M3
 70
0
 62
3
420
65280
  6
CONTINUOUS
370
25
390
F
  0
LAYER
  5
46
100
AcDbSymbolTableRecord
100
AcDbLayerTableRecord
  2
Hole 3.5 mm Counter Sunk
 70
0
 62
5
420
255
  6
CONTINUOUS
370
25
390
F
  0
LAYER
  5
47
100
AcDbSymbolTableRecord
100
AcDbLayerTableRecord
  2
_Comments HOLES
 70
0
 62
7
420
16777215
  6
CONTINUOUS
370
25
390
F
  0
LAYER
  5
48
100
AcDbSymbolTableRecord
100
AcDbLayerTableRecord
  2
Mill 5mmDeep
 70
0
 62
1
420
16711680
  6
CONTINUOUS
370
25
390
F
  0
LAYER
  5
49
100
AcDbSymbolTableRecord
100
AcDbLayerTableRecord
  2
Defpoints
 70
0
 62
7
420
16777215
  6
CONTINUOUS
290
0
370
-3
390
F
  0
LAYER
  5
4A
100
AcDbSymbolTableRecord
100
AcDbLayerTableRecord
  2
Hole 8mm 5mm Deep
 70
0
 62
1
420
16711680
  6
CONTINUOUS
370
25
390
F
  0
LAYER
  5
4B
100
AcDbSymbolTableRecord
100
AcDbLayerTableRecord
  2
Hole 3.5 mm
 70
0
 62
6
420
16711935
  6
CONTINUOUS
370
50
390
F
  0
LAYER
  5
10
100
AcDbSymbolTableRecord
100
AcDbLayerTableRecord
  2
0
 70
0
 62
7
420
16777215
  6
CONTINUOUS
370
25
390
F
  0
LAYER
  5
4C
100
AcDbSymbolTableRecord
100
AcDbLayerTableRecord
  2
_Comments NAMES
 70
0
 62
7
420
16777215
  6
CONTINUOUS
370
25
390
F
  0
LAYER
  5
4D
100
AcDbSymbolTableRecord
100
AcDbLayerTableRecord
  2
Mill 4.2mm Deep
 70
0
 62
5
420
255
  6
CONTINUOUS
370
25
390
F
  0
ENDTAB
  0
TABLE
  2
STYLE
  5
3
100
AcDbSymbolTable
 70
12
  0
STYLE
  5
4E
100
AcDbSymbolTableRecord
100
AcDbTextStyleTableRecord
  2
Standard
 70
0
 40
0.0
 41
1.0
 50
0.0
 71
0
 42
2.5
  3

  4

1001
ACAD
1000
txt
1071
0
  0
STYLE
  5
4F
100
AcDbSymbolTableRecord
100
AcDbTextStyleTableRecord
  2
textstyle0
 70
0
 40
0.0
 41
1.0
 50
0.0
 71
0
 42
5.0
  3

  4

1001
ACAD
1000
Liberation Sans
1071
0
  0
STYLE
  5
50
100
AcDbSymbolTableRecord
100
AcDbTextStyleTableRecord
  2
textstyle1
 70
0
 40
0.0
 41
1.0
 50
0.0
 71
0
 42
5.0
  3

  4

1001
ACAD
1000
Liberation Sans
1071
0
  0
STYLE
  5
51
100
AcDbSymbolTableRecord
100
AcDbTextStyleTableRecord
  2
textstyle2
 70
0
 40
0.0
 41
1.0
 50
0.0
 71
0
 42
5.0
  3

  4

1001
ACAD
1000
Liberation Sans
1071
0
  0
STYLE
  5
52
100
AcDbSymbolTableRecord
100
AcDbTextStyleTableRecord
  2
textstyle3
 70
0
 40
0.0
 41
1.0
 50
0.0
 71
0
 42
5.0
  3

  4

1001
ACAD
1000
Liberation Sans
1071
0
  0
STYLE
  5
53
100
AcDbSymbolTableRecord
100
AcDbTextStyleTableRecord
  2
textstyle4
 70
0
 40
0.0
 41
1.0
 50
0.0
 71
0
 42
5.0
  3

  4

1001
ACAD
1000
Liberation Sans
1071
0
  0
STYLE
  5
54
100
AcDbSymbolTableRecord
100
AcDbTextStyleTableRecord
  2
textstyle5
 70
0
 40
0.0
 41
1.0
 50
0.0
 71
0
 42
5.0
  3

  4

1001
ACAD
1000
Liberation Sans
1071
0
  0
STYLE
  5
55
100
AcDbSymbolTableRecord
100
AcDbTextStyleTableRecord
  2
textstyle6
 70
0
 40
0.0
 41
1.0
 50
0.0
 71
0
 42
5.0
  3

  4

1001
ACAD
1000
Liberation Sans
1071
0
  0
STYLE
  5
56
100
AcDbSymbolTableRecord
100
AcDbTextStyleTableRecord
  2
textstyle7
 70
0
 40
0.0
 41
1.0
 50
0.0
 71
0
 42
5.0
  3

  4

1001
ACAD
1000
Liberation Sans
1071
0
  0
STYLE
  5
57
100
AcDbSymbolTableRecord
100
AcDbTextStyleTableRecord
  2
textstyle8
 70
0
 40
0.0
 41
1.0
 50
0.0
 71
0
 42
5.0
  3

  4

1001
ACAD
1000
Liberation Sans
1071
0
  0
STYLE
  5
58
100
AcDbSymbolTableRecord
100
AcDbTextStyleTableRecord
  2
textstyle9
 70
0
 40
0.0
 41
1.0
 50
0.0
 71
0
 42
5.0
  3

  4

1001
ACAD
1000
Liberation Sans
1071
0
  0
STYLE
  5
59
100
AcDbSymbolTableRecord
100
AcDbTextStyleTableRecord
  2
textstyle10
 70
0
 40
0.0
 41
1.0
 50
0.0
 71
0
 42
5.0
  3

  4

1001
ACAD
1000
Liberation Sans
1071
0
  0
ENDTAB
  0
TABLE
  2
VIEW
  5
6
100
AcDbSymbolTable
 70
0
  0
ENDTAB
  0
TABLE
  2
UCS
  5
7
100
AcDbSymbolTable
 70
0
  0
ENDTAB
  0
TABLE
  2
APPID
  5
9
100
AcDbSymbolTable
 70
1
  0
APPID
  5
12
100
AcDbSymbolTableRecord
100
AcDbRegAppTableRecord
  2
ACAD
 70
0
  0
APPID
  5
5A
100
AcDbSymbolTableRecord
100
AcDbRegAppTableRecord
  2
QCAD
 70
0
  0
ENDTAB
  0
TABLE
  2
DIMSTYLE
  5
A
100
AcDbSymbolTable
 70
1
100
AcDbDimStyleTable
 71
0
  0
DIMSTYLE
105
27
100
AcDbSymbolTableRecord
100
AcDbDimStyleTableRecord
  2
Standard
 41
3.5
 42
1.0
 43
3.75
 44
1.0
 70
0
 73
0
 74
0
 77
1
 78
8
140
3.5
141
2.5
143
0.03937007874016
147
1.5
171
3
172
1
271
2
272
2
274
3
278
44
283
0
284
8
340
4E
  0
ENDTAB
  0
TABLE
  2
BLOCK_RECORD
  5
1
100
AcDbSymbolTable
 70
1
  0
BLOCK_RECORD
  5
1F
100
AcDbSymbolTableRecord
100
AcDbBlockTableRecord
  2
*Model_Space
340
22
  0
BLOCK_RECORD
  5
1B
100
AcDbSymbolTableRecord
100
AcDbBlockTableRecord
  2
*Paper_Space
340
1E
  0
BLOCK_RECORD
  5
23
100
AcDbSymbolTableRecord
100
AcDbBlockTableRecord
  2
*Paper_Space0
340
26
  0
BLOCK_RECORD
  5
5B
100
AcDbSymbolTableRecord
100
AcDbBlockTableRecord
  2
GOPR3348
340
0
  0
BLOCK_RECORD
  5
5C
100
AcDbSymbolTableRecord
100
AcDbBlockTableRecord
  2
GENAXEH
340
0
  0
ENDTAB
  0
ENDSEC
  0
SECTION
  2
BLOCKS
  0
BLOCK
  5
20
100
AcDbEntity
  8
0
100
AcDbBlockBegin
  2
*Model_Space
 70
0
 10
0.0
 20
0.0
 30
0.0
  3
*Model_Space
  1

  0
ENDBLK
  5
21
100
AcDbEntity
  8
0
100
AcDbBlockEnd
  0
BLOCK
  5
1C
100
AcDbEntity
 67
1
  8
0
100
AcDbBlockBegin
  2
*Paper_Space
 70
0
 10
0.0
 20
0.0
 30
0.0
  3
*Paper_Space
  1

  0
ENDBLK
  5
1D
100
AcDbEntity
 67
1
  8
0
100
AcDbBlockEnd
  0
BLOCK
  5
24
100
AcDbEntity
  8
0
100
AcDbBlockBegin
  2
*Paper_Space0
 70
0
 10
0.0
 20
0.0
 30
0.0
  3
*Paper_Space0
  1

  0
ENDBLK
  5
25
100
AcDbEntity
  8
0
100
AcDbBlockEnd
  0
BLOCK
  5
5D
100
AcDbEntity
  8
0
100
AcDbBlockBegin
  2
GOPR3348
 70
0
 10
0.0
 20
0.0
 30
0.0
  3
GOPR3348
  1

  0
ENDBLK
  5
5E
100
AcDbEntity
  8
0
100
AcDbBlockEnd
  0
BLOCK
  5
5F
100
AcDbEntity
  8
0
100
AcDbBlockBegin
  2
GENAXEH
 70
0
 10
0.0
 20
0.0
 30
0.0
  3
GENAXEH
  1

  0
LINE
  5
60
100
AcDbEntity
100
AcDbLine
  8
0
 62
256
370
-1
  6
BYLAYER
 10
-1.0
 20
0.0
 30
0.0
 11
1.0
 21
0.0
 31
0.0
  0
ENDBLK
  5
61
100
AcDbEntity
  8
0
100
AcDbBlockEnd
  0
ENDSEC
  0
SECTION
  2
ENTITIES
  0
LEADER
  5
62
  8
_Comments HOLES
 62
256
370
-1
  6
BYLAYER
100
AcDbEntity
100
AcDbLeader
  3
Standard
 71
1
 72
0
 73
3
 74
0
 75
0
 40
1.0
 41
10.0
 76
2
 10
151.6337348207314903
 20
59.1999999999999531
 10
158.11949709605625
 20
49.1270357875042265
  0
LEADER
  5
63
  8
_Comments HOLES
 62
256
370
-1
  6
BYLAYER
100
AcDbEntity
100
AcDbLeader
  3
Standard
 71
1
 72
0
 73
3
 74
0
 75
0
 40
1.0
 41
10.0
 76
2
 10
147.7500000000001137
 20
216.299999999998704
 10
151.7050600714769928
 20
204.39071015377138
  0
LINE
  5
64
100
AcDbEntity
100
AcDbLine
  8
0
 62
256
370
-1
  6
BYLAYER
 10
76.3785477684594696
 20
99.9533745908527749
 30
0.0
 11
76.3785477684594696
 21
99.9533745908527749
 31
0.0
  0
CIRCLE
  5
65
100
AcDbEntity
100
AcDbCircle
  8
Hole M3
 62
256
370
-1
  6
BYLAYER
 10
366.9999999999998863
 20
89.9999999999999432
 30
0.0
 40
1.5
  0
CIRCLE
  5
66
100
AcDbEntity
100
AcDbCircle
  8
Hole 3.5 mm
 62
256
370
-1
  6
BYLAYER
 10
262.5000000000001137
 20
305.4999999999986926
 30
0.0
 40
1.5
  0
CIRCLE
  5
67
100
AcDbEntity
100
AcDbCircle
  8
Hole 3.5 mm
 62
256
370
-1
  6
BYLAYER
 10
262.5000000000002274
 20
285.4999999999986926
 30
0.0
 40
1.5
  0
CIRCLE
  5
68
100
AcDbEntity
100
AcDbCircle
  8
Hole 3.5 mm
 62
256
370
-1
  6
BYLAYER
 10
195.5000000000003979
 20
115.4999999999987068
 30
0.0
 40
1.5
  0
CIRCLE
  5
69
100
AcDbEntity
100
AcDbCircle
  8
Hole 3.5 mm
 62
256
370
-1
  6
BYLAYER
 10
195.5
 20
135.4999999999986926
 30
0.0
 40
1.5
  0
CIRCLE
  5
6A
100
AcDbEntity
100
AcDbCircle
  8
Hole M3
 62
256
370
-1
  6
BYLAYER
 10
300.0000000000001137
 20
314.9999999999986926
 30
0.0
 40
1.5
  0
CIRCLE
  5
6B
100
AcDbEntity
100
AcDbCircle
  8
Hole M3
 62
256
370
-1
  6
BYLAYER
 10
91.0000000000001847
 20
314.9999999999988063
 30
0.0
 40
1.5
  0
LINE
  5
6C
100
AcDbEntity
100
AcDbLine
  8
Hole 3.5 mm
 62
256
370
-1
  6
BYLAYER
 10
325.9289321881345813
 20
91.9289321881345245
 30
0.0
 11
326.0000000000001137
 21
92.0000000000000568
 31
0.0
  0
CIRCLE
  5
6D
100
AcDbEntity
100
AcDbCircle
  8
Hole 3.5 mm
 62
256
370
-1
  6
BYLAYER
 10
319.9999999999997726
 20
8.9999999999999432
 30
0.0
 40
1.5
  0
CIRCLE
  5
6E
100
AcDbEntity
100
AcDbCircle
  8
Hole 3.5 mm
 62
256
370
-1
  6
BYLAYER
 10
50.0000000000001066
 20
8.9999999999999432
 30
0.0
 40
1.5
  0
CIRCLE
  5
6F
100
AcDbEntity
100
AcDbCircle
  8
Hole 3.5 mm
 62
256
370
-1
  6
BYLAYER
 10
139.9999999999998863
 20
9.0000000000000568
 30
0.0
 40
1.5
  0
CIRCLE
  5
70
100
AcDbEntity
100
AcDbCircle
  8
Hole 3.5 mm
 62
256
370
-1
  6
BYLAYER
 10
229.9999999999998863
 20
9.0
 30
0.0
 40
1.5
  0
CIRCLE
  5
71
100
AcDbEntity
100
AcDbCircle
  8
Hole 3.5 mm Counter Sunk
 62
256
370
-1
  6
BYLAYER
 10
5.999999999999801
 20
44.0000000000000568
 30
0.0
 40
1.5
  0
CIRCLE
  5
72
100
AcDbEntity
100
AcDbCircle
  8
Hole 3.5 mm Counter Sunk
 62
256
370
-1
  6
BYLAYER
 10
22.5000000000000284
 20
363.9999999999998863
 30
0.0
 40
1.5
  0
CIRCLE
  5
73
100
AcDbEntity
100
AcDbCircle
  8
Hole M3
 62
256
370
-1
  6
BYLAYER
 10
197.9929631039560149
 20
284.4999999999986926
 30
0.0
 40
1.5
  0
LINE
  5
74
100
AcDbEntity
100
AcDbLine
  8
Hole M3
 62
256
370
-1
  6
BYLAYER
 10
366.9999999999998863
 20
89.9999999999999432
 30
0.0
 11
366.9999999999998863
 21
89.9999999999999432
 31
0.0
  0
LINE
  5
75
100
AcDbEntity
100
AcDbLine
  8
Hole M3
 62
256
370
-1
  6
BYLAYER
 10
366.9999999999998863
 20
89.9999999999999432
 30
0.0
 11
366.9999999999998863
 21
89.9999999999999432
 31
0.0
  0
CIRCLE
  5
76
100
AcDbEntity
100
AcDbCircle
  8
Hole M3
 62
256
370
-1
  6
BYLAYER
 10
195.5000000000001137
 20
105.9999999999987068
 30
0.0
 40
1.5
  0
CIRCLE
  5
77
100
AcDbEntity
100
AcDbCircle
  8
Hole M3
 62
256
370
-1
  6
BYLAYER
 10
318.6999999999999886
 20
91.0
 30
0.0
 40
1.5
  0
CIRCLE
  5
78
100
AcDbEntity
100
AcDbCircle
  8
Hole M3
 62
256
370
-1
  6
BYLAYER
 10
366.9999999999997726
 20
172.399999999999892
 30
0.0
 40
1.5
  0
CIRCLE
  5
79
100
AcDbEntity
100
AcDbCircle
  8
Hole 3.5 mm
 62
256
370
-1
  6
BYLAYER
 10
128.4999999999998863
 20
305.4999999999986926
 30
0.0
 40
1.5
  0
CIRCLE
  5
7A
100
AcDbEntity
100
AcDbCircle
  8
Hole 3.5 mm
 62
256
370
-1
  6
BYLAYER
 10
128.5000000000001137
 20
285.4999999999989768
 30
0.0
 40
1.5
  0
ARC
  5
7B
100
AcDbEntity
  8
Hole M3
 62
256
370
-1
  6
BYLAYER
100
AcDbCircle
 10
366.9999999999998863
 20
89.9999999999999432
 30
0.0
 40
0.0
100
AcDbArc
 50
0.0
 51
0.0
  0
CIRCLE
  5
7C
100
AcDbEntity
100
AcDbCircle
  8
Hole 3.5 mm Counter Sunk
 62
256
370
-1
  6
BYLAYER
 10
7.4999999999999716
 20
364.0
 30
0.0
 40
1.5
  0
CIRCLE
  5
7D
100
AcDbEntity
100
AcDbCircle
  8
Hole 3.5 mm Counter Sunk
 62
256
370
-1
  6
BYLAYER
 10
347.5
 20
364.0000000000003979
 30
0.0
 40
1.5
  0
CIRCLE
  5
7E
100
AcDbEntity
100
AcDbCircle
  8
Hole 3.5 mm Counter Sunk
 62
256
370
-1
  6
BYLAYER
 10
362.5
 20
364.0000000000005116
 30
0.0
 40
1.5
  0
CIRCLE
  5
7F
100
AcDbEntity
100
AcDbCircle
  8
Hole 3.5 mm Counter Sunk
 62
256
370
-1
  6
BYLAYER
 10
31.999999999999801
 20
44.0000000000001066
 30
0.0
 40
1.5
  0
CIRCLE
  5
80
100
AcDbEntity
100
AcDbCircle
  8
Hole 3.5 mm Counter Sunk
 62
256
370
-1
  6
BYLAYER
 10
5.9999999999998579
 20
6.0000000000000568
 30
0.0
 40
1.5
  0
CIRCLE
  5
81
100
AcDbEntity
100
AcDbCircle
  8
Hole 3.5 mm Counter Sunk
 62
256
370
-1
  6
BYLAYER
 10
363.9999999999998863
 20
6.0000000000001137
 30
0.0
 40
1.5
  0
CIRCLE
  5
82
100
AcDbEntity
100
AcDbCircle
  8
Hole 3.5 mm Counter Sunk
 62
256
370
-1
  6
BYLAYER
 10
364.0
 20
44.0000000000002274
 30
0.0
 40
1.5
  0
ARC
  5
83
100
AcDbEntity
  8
Hole M3
 62
256
370
-1
  6
BYLAYER
100
AcDbCircle
 10
366.9999999999998863
 20
89.9999999999999432
 30
0.0
 40
0.0
100
AcDbArc
 50
0.0
 51
0.0
  0
CIRCLE
  5
84
100
AcDbEntity
100
AcDbCircle
  8
Hole 3.5 mm Counter Sunk
 62
256
370
-1
  6
BYLAYER
 10
338.0
 20
44.0000000000002274
 30
0.0
 40
1.5
  0
CIRCLE
  5
85
100
AcDbEntity
100
AcDbCircle
  8
Hole 8mm 5mm Deep
 62
256
370
-1
  6
BYLAYER
 10
116.5
 20
260.9999999999989768
 30
0.0
 40
4.0
  0
CIRCLE
  5
86
100
AcDbEntity
100
AcDbCircle
  8
0
 62
256
370
-1
  6
BYLAYER
 10
87.9999999999999574
 20
242.9999999999988916
 30
0.0
 40
6.7000000000000002
  0
CIRCLE
  5
87
100
AcDbEntity
100
AcDbCircle
  8
0
 62
256
370
-1
  6
BYLAYER
 10
87.9999999999999574
 20
108.9999999999989058
 30
0.0
 40
6.7000000000000002
  0
LINE
  5
88
100
AcDbEntity
100
AcDbLine
  8
0
 62
256
370
-1
  6
BYLAYER
 10
293.6214522315410136
 20
97.9533745908527038
 30
0.0
 11
293.6214522315410136
 21
97.9533745908527038
 31
0.0
  0
CIRCLE
  5
89
100
AcDbEntity
100
AcDbCircle
  8
Hole 8mm 5mm Deep
 62
256
370
-1
  6
BYLAYER
 10
253.5000000000005116
 20
88.9999999999987779
 30
0.0
 40
4.0
  0
CIRCLE
  5
8A
100
AcDbEntity
100
AcDbCircle
  8
Hole 8mm 5mm Deep
 62
256
370
-1
  6
BYLAYER
 10
253.5000000000005116
 20
258.9999999999988063
 30
0.0
 40
4.0
  0
CIRCLE
  5
8B
100
AcDbEntity
100
AcDbCircle
  8
0
 62
256
370
-1
  6
BYLAYER
 10
282.0000000000005116
 20
240.9999999999986926
 30
0.0
 40
6.7000000000000002
  0
CIRCLE
  5
8C
100
AcDbEntity
100
AcDbCircle
  8
0
 62
256
370
-1
  6
BYLAYER
 10
282.0000000000005116
 20
106.9999999999987068
 30
0.0
 40
6.7000000000000002
  0
CIRCLE
  5
8D
100
AcDbEntity
100
AcDbCircle
  8
Hole M3
 62
256
370
-1
  6
BYLAYER
 10
23.9999999999998899
 20
91.0
 30
0.0
 40
1.5
  0
CIRCLE
  5
8E
100
AcDbEntity
100
AcDbCircle
  8
Hole M3
 62
256
370
-1
  6
BYLAYER
 10
170.4929631039557876
 20
284.4999999999986926
 30
0.0
 40
1.5
  0
LWPOLYLINE
  5
8F
  8
0
 62
256
370
-1
  6
BYLAYER
100
AcDbEntity
100
AcDbPolyline
 90
9
 70
0
 10
126.0
 20
260.9999999999989768
 30
0.0
 42
0.4142135623730959
 10
116.4999999999999005
 20
270.4999999999989768
 30
0.0
 10
74.4999999999999432
 20
270.49999999999892
 30
0.0
 42
0.4142135623730941
 10
64.9999999999999716
 20
260.99999999999892
 30
0.0
 10
64.9999999999999716
 20
90.9999999999989768
 30
0.0
 42
0.414213562373095
 10
74.4999999999999716
 20
81.4999999999989626
 30
0.0
 10
116.4999999999999005
 20
81.499999999998991
 30
0.0
 42
0.414213562373095
 10
125.9999999999999005
 20
90.999999999998991
 30
0.0
 10
126.0
 20
260.9999999999989768
 30
0.0
  0
CIRCLE
  5
90
100
AcDbEntity
100
AcDbCircle
  8
Hole M3
 62
256
370
-1
  6
BYLAYER
 10
206.2500000000001137
 20
257.1999999999986812
 30
0.0
 40
1.5
  0
LWPOLYLINE
  5
91
  8
Mill 4.2mm Deep
 62
256
370
-1
  6
BYLAYER
100
AcDbEntity
100
AcDbPolyline
 90
5
 70
0
 10
196.5000000000001137
 20
213.799999999998704
 30
0.0
 10
196.5000000000001137
 20
197.799999999998704
 30
0.0
 42
0.9999999999999994
 10
203.5000000000001137
 20
197.799999999998704
 30
0.0
 10
203.5000000000001137
 20
213.799999999998704
 30
0.0
 42
0.9999999999999999
 10
196.5000000000001137
 20
213.799999999998704
 30
0.0
  0
LWPOLYLINE
  5
92
  8
Mill 4.2mm Deep
 62
256
370
-1
  6
BYLAYER
100
AcDbEntity
100
AcDbPolyline
 90
5
 70
0
 10
209.0000000000001137
 20
213.799999999998704
 30
0.0
 10
209.0000000000001137
 20
197.799999999998704
 30
0.0
 42
0.9999999999999994
 10
216.0000000000001137
 20
197.799999999998704
 30
0.0
 10
216.0000000000001137
 20
213.799999999998704
 30
0.0
 42
0.9999999999999999
 10
209.0000000000001137
 20
213.799999999998704
 30
0.0
  0
LWPOLYLINE
  5
93
  8
Mill 4.2mm Deep
 62
256
370
-1
  6
BYLAYER
100
AcDbEntity
100
AcDbPolyline
 90
9
 70
0
 10
193.5000000000001137
 20
249.0999999999986869
 30
0.0
 42
-0.4142135623730944
 10
196.5000000000001137
 20
252.0999999999986869
 30
0.0
 10
213.0000000000001137
 20
252.0999999999986869
 30
0.0
 42
-0.414213562373095
 10
216.0000000000001137
 20
249.0999999999986869
 30
0.0
 10
216.0000000000001137
 20
241.299999999998704
 30
0.0
 42
-0.414213562373095
 10
213.0000000000001137
 20
238.299999999998704
 30
0.0
 10
196.5000000000001137
 20
238.299999999998704
 30
0.0
 42
-0.414213562373095
 10
193.5000000000001137
 20
241.299999999998704
 30
0.0
 10
193.5000000000001137
 20
249.0999999999986869
 30
0.0
  0
LWPOLYLINE
  5
94
  8
Mill 3mm Deep
 62
256
370
-1
  6
BYLAYER
100
AcDbEntity
100
AcDbPolyline
 90
9
 70
0
 10
199.7500000000001137
 20
207.1999999999987097
 30
0.0
 42
-0.414213562373095
 10
202.7500000000001137
 20
210.1999999999987097
 30
0.0
 10
210.0000000000001137
 20
210.1999999999987097
 30
0.0
 42
-0.414213562373095
 10
213.0000000000001137
 20
207.1999999999987097
 30
0.0
 10
213.0000000000001137
 20
204.3999999999986983
 30
0.0
 42
-0.414213562373095
 10
210.0000000000001137
 20
201.3999999999986983
 30
0.0
 10
202.7500000000001137
 20
201.3999999999986983
 30
0.0
 42
-0.414213562373095
 10
199.7500000000001137
 20
204.3999999999986983
 30
0.0
 10
199.7500000000001137
 20
207.1999999999987097
 30
0.0
  0
LWPOLYLINE
  5
95
  8
Mill 4.2mm Deep
 62
256
370
-1
  6
BYLAYER
100
AcDbEntity
100
AcDbPolyline
 90
5
 70
0
 10
154.3837348207314903
 20
64.7000000000000597
 30
0.0
 10
154.3837348207314903
 20
80.6999999999999886
 30
0.0
 42
-0.9999999999999994
 10
161.3837348207314903
 20
80.6999999999999886
 30
0.0
 10
161.3837348207314903
 20
64.7000000000000455
 30
0.0
 42
-0.9999999999999999
 10
154.3837348207314903
 20
64.7000000000000597
 30
0.0
  0
CIRCLE
  5
96
100
AcDbEntity
100
AcDbCircle
  8
Hole 4mm 5mm Deep
 62
256
370
-1
  6
BYLAYER
 10
114.1337348207315046
 20
65.5000000000000568
 30
0.0
 40
2.0
  0
CIRCLE
  5
97
100
AcDbEntity
100
AcDbCircle
  8
Hole 3.5 mm Counter Sunk
 62
256
370
-1
  6
BYLAYER
 10
151.6337348207314903
 20
60.6999999999999531
 30
0.0
 40
1.5
  0
CIRCLE
  5
98
100
AcDbEntity
100
AcDbCircle
  8
Hole 3.5 mm Counter Sunk
 62
256
370
-1
  6
BYLAYER
 10
151.6337348207314903
 20
84.7000000000000171
 30
0.0
 40
1.5
  0
CIRCLE
  5
99
100
AcDbEntity
100
AcDbCircle
  8
Hole 3.5 mm Counter Sunk
 62
256
370
-1
  6
BYLAYER
 10
93.1337348207314761
 20
60.7000000000000526
 30
0.0
 40
1.5
  0
LWPOLYLINE
  5
9A
  8
Mill 3mm Deep
 62
256
370
-1
  6
BYLAYER
100
AcDbEntity
100
AcDbPolyline
 90
9
 70
0
 10
145.1337348207314903
 20
71.3000000000000114
 30
0.0
 42
0.414213562373095
 10
148.1337348207314903
 20
68.3000000000000114
 30
0.0
 10
155.3837348207314903
 20
68.2999999999999829
 30
0.0
 42
0.414213562373095
 10
158.3837348207314903
 20
71.3000000000000114
 30
0.0
 10
158.3837348207314903
 20
74.0999999999999943
 30
0.0
 42
0.414213562373095
 10
155.3837348207314903
 20
77.0999999999999943
 30
0.0
 10
148.1337348207314903
 20
77.0999999999999659
 30
0.0
 42
0.414213562373095
 10
145.1337348207314903
 20
74.1000000000000512
 30
0.0
 10
145.1337348207314903
 20
71.3000000000000114
 30
0.0
  0
LWPOLYLINE
  5
9B
  8
Mill 4.2mm Deep
 62
256
370
-1
  6
BYLAYER
100
AcDbEntity
100
AcDbPolyline
 90
9
 70
0
 10
129.1337348207314903
 20
83.7000000000000455
 30
0.0
 42
0.414213562373095
 10
126.1337348207315046
 20
80.7000000000000171
 30
0.0
 10
126.1337348207315046
 20
64.7000000000000739
 30
0.0
 42
0.414213562373095
 10
129.1337348207314903
 20
61.6999999999998892
 30
0.0
 10
145.8837348207314903
 20
61.7000000000004079
 30
0.0
 42
0.414213562373095
 10
148.8837348207314903
 20
64.7000000000000171
 30
0.0
 10
148.8837348207314903
 20
80.7000000000000455
 30
0.0
 42
0.414213562373095
 10
145.8837348207314903
 20
83.7000000000000455
 30
0.0
 10
129.1337348207314903
 20
83.7000000000000455
 30
0.0
  0
LWPOLYLINE
  5
9C
  8
0
 62
256
370
-1
  6
BYLAYER
100
AcDbEntity
100
AcDbPolyline
 90
13
 70
0
 10
152.3837348207314903
 20
54.0000000000000071
 30
0.0
 42
0.414213562373095
 10
157.3837348207314903
 20
58.9999999999999929
 30
0.0
 10
157.3837348207314903
 20
93.0
 30
0.0
 42
0.414213562373095
 10
152.3837348207314903
 20
98.0000000000000284
 30
0.0
 10
150.8837348207314903
 20
98.0
 30
0.0
 42
0.414213562373095
 10
145.8837348207314903
 20
92.9999999999999716
 30
0.0
 10
145.8837348207314903
 20
75.0
 30
0.0
 42
-0.414213562373095
 10
140.8837348207314903
 20
70.0
 30
0.0
 10
93.1337348207314761
 20
70.0000000000000284
 30
0.0
 42
0.414213562373095
 10
88.1337348207314761
 20
65.0000000000000284
 30
0.0
 10
88.1337348207314761
 20
59.0000000000000284
 30
0.0
 42
0.414213562373095
 10
93.1337348207314761
 20
54.0000000000000284
 30
0.0
 10
152.3837348207314903
 20
54.0000000000000071
 30
0.0
  0
CIRCLE
  5
9D
100
AcDbEntity
100
AcDbCircle
  8
Hole 4mm 5mm Deep
 62
256
370
-1
  6
BYLAYER
 10
220.8837348207314051
 20
54.5000000000000071
 30
0.0
 40
2.0
  0
CIRCLE
  5
9E
100
AcDbEntity
100
AcDbCircle
  8
Hole 3.5 mm Counter Sunk
 62
256
370
-1
  6
BYLAYER
 10
183.3837348207314051
 20
49.6999999999999886
 30
0.0
 40
1.5
  0
CIRCLE
  5
9F
100
AcDbEntity
100
AcDbCircle
  8
Hole 3.5 mm Counter Sunk
 62
256
370
-1
  6
BYLAYER
 10
183.3837348207314051
 20
73.7000000000000028
 30
0.0
 40
1.5
  0
CIRCLE
  5
A0
100
AcDbEntity
100
AcDbCircle
  8
Hole 3.5 mm Counter Sunk
 62
256
370
-1
  6
BYLAYER
 10
241.8837348207314051
 20
49.6999999999999886
 30
0.0
 40
1.5
  0
LWPOLYLINE
  5
A1
  8
0
 62
256
370
-1
  6
BYLAYER
100
AcDbEntity
100
AcDbPolyline
 90
13
 70
0
 10
182.6337348207314051
 20
42.9999999999999929
 30
0.0
 42
-0.414213562373095
 10
177.6337348207314051
 20
48.0000000000000426
 30
0.0
 10
177.6337348207314051
 20
81.9999999999999858
 30
0.0
 42
-0.414213562373095
 10
182.6337348207314051
 20
87.0000000000000142
 30
0.0
 10
184.1337348207314051
 20
86.9999999999999574
 30
0.0
 42
-0.414213562373095
 10
189.1337348207314051
 20
82.0000000000000142
 30
0.0
 10
189.1337348207314051
 20
63.9999999999999929
 30
0.0
 42
0.414213562373095
 10
194.1337348207314051
 20
59.0000000000000071
 30
0.0
 10
241.8837348207314051
 20
59.0000000000000071
 30
0.0
 42
-0.414213562373095
 10
246.8837348207314051
 20
54.0
 30
0.0
 10
246.8837348207312914
 20
48.0
 30
0.0
 42
-0.414213562373095
 10
241.8837348207314051
 20
43.0
 30
0.0
 10
182.6337348207314051
 20
42.9999999999999929
 30
0.0
  0
LWPOLYLINE
  5
A2
  8
Mill 4.2mm Deep
 62
256
370
-1
  6
BYLAYER
100
AcDbEntity
100
AcDbPolyline
 90
9
 70
0
 10
208.8837348207314051
 20
57.7999999999999972
 30
0.0
 42
-0.4142135623730944
 10
205.8837348207314051
 20
54.7999999999999687
 30
0.0
 10
187.6337348207314051
 20
54.7999999999999972
 30
0.0
 42
-0.414213562373095
 10
184.6337348207314051
 20
57.7999999999999972
 30
0.0
 10
184.6337348207314051
 20
65.5999999999999517
 30
0.0
 42
-0.414213562373095
 10
187.6337348207314051
 20
68.5999999999999801
 30
0.0
 10
205.8837348207314051
 20
68.5999999999999517
 30
0.0
 42
-0.414213562373095
 10
208.8837348207314051
 20
65.5999999999999801
 30
0.0
 10
208.8837348207314051
 20
57.7999999999999972
 30
0.0
  0
CIRCLE
  5
A3
100
AcDbEntity
100
AcDbCircle
  8
Hole 3.5 mm Counter Sunk
 62
256
370
-1
  6
BYLAYER
 10
184.2500000000001137
 20
185.9999999999986926
 30
0.0
 40
1.5
  0
CIRCLE
  5
A4
100
AcDbEntity
100
AcDbCircle
  8
Hole 3.5 mm Counter Sunk
 62
256
370
-1
  6
BYLAYER
 10
184.2500000000001137
 20
216.9999999999986926
 30
0.0
 40
1.5
  0
CIRCLE
  5
A5
100
AcDbEntity
100
AcDbCircle
  8
Hole M3
 62
256
370
-1
  6
BYLAYER
 10
147.7500000000001137
 20
225.4999999999986926
 30
0.0
 40
1.5
  0
LINE
  5
A6
100
AcDbEntity
100
AcDbLine
  8
0
 62
256
370
-1
  6
BYLAYER
 10
168.7500000000001137
 20
213.0599999999986949
 30
0.0
 11
168.7500000000001137
 21
213.0599999999986949
 31
0.0
  0
CIRCLE
  5
A7
100
AcDbEntity
100
AcDbCircle
  8
Hole 4mm 5mm Deep
 62
256
370
-1
  6
BYLAYER
 10
168.7500000000001137
 20
212.9999999999986926
 30
0.0
 40
2.0
  0
LINE
  5
A8
100
AcDbEntity
100
AcDbLine
  8
0
 62
256
370
-1
  6
BYLAYER
 10
184.2500000000001137
 20
185.9999999999986926
 30
0.0
 11
184.2500000000001137
 21
185.9999999999986926
 31
0.0
  0
CIRCLE
  5
A9
100
AcDbEntity
100
AcDbCircle
  8
Hole 3.5 mm Counter Sunk
 62
256
370
-1
  6
BYLAYER
 10
153.2500000000001137
 20
216.9999999999986926
 30
0.0
 40
1.5
  0
CIRCLE
  5
AA
100
AcDbEntity
100
AcDbCircle
  8
Hole M3
 62
256
370
-1
  6
BYLAYER
 10
206.2500000000001137
 20
217.799999999998704
 30
0.0
 40
1.5
  0
CIRCLE
  5
AB
100
AcDbEntity
100
AcDbCircle
  8
Hole M3
 62
256
370
-1
  6
BYLAYER
 10
206.2500000000001137
 20
193.799999999998704
 30
0.0
 40
1.5
  0
CIRCLE
  5
AC
100
AcDbEntity
100
AcDbCircle
  8
Hole M3
 62
256
370
-1
  6
BYLAYER
 10
189.7500000000001137
 20
225.4999999999986926
 30
0.0
 40
1.5
  0
LINE
  5
AD
100
AcDbEntity
100
AcDbLine
  8
0
 62
256
370
-1
  6
BYLAYER
 10
153.2500000000001137
 20
216.9999999999986926
 30
0.0
 11
153.2500000000001137
 21
216.9999999999986926
 31
0.0
  0
CIRCLE
  5
AE
100
AcDbEntity
100
AcDbCircle
  8
Hole M3
 62
256
370
-1
  6
BYLAYER
 10
147.7500000000001137
 20
217.799999999998704
 30
0.0
 40
1.5
  0
ARC
  5
AF
100
AcDbEntity
  8
0
 62
256
370
-1
  6
BYLAYER
100
AcDbCircle
 10
212.0000000000001137
 20
225.4999999999986926
 30
0.0
 40
0.0
100
AcDbArc
 50
0.0
 51
0.0
  0
LINE
  5
B0
100
AcDbEntity
100
AcDbLine
  8
0
 62
256
370
-1
  6
BYLAYER
 10
153.2500000000001137
 20
233.9999999999986926
 30
0.0
 11
153.2500000000001137
 21
233.9999999999986926
 31
0.0
  0
CIRCLE
  5
B1
100
AcDbEntity
100
AcDbCircle
  8
Hole M3
 62
256
370
-1
  6
BYLAYER
 10
147.7500000000001137
 20
233.1999999999987097
 30
0.0
 40
1.5
  0
CIRCLE
  5
B2
100
AcDbEntity
100
AcDbCircle
  8
Hole 3.5 mm Counter Sunk
 62
256
370
-1
  6
BYLAYER
 10
184.250000000000199
 20
264.9999999999986926
 30
0.0
 40
1.5
  0
CIRCLE
  5
B3
100
AcDbEntity
100
AcDbCircle
  8
Hole 3.5 mm Counter Sunk
 62
256
370
-1
  6
BYLAYER
 10
184.2500000000001137
 20
233.9999999999986926
 30
0.0
 40
1.5
  0
LINE
  5
B4
100
AcDbEntity
100
AcDbLine
  8
0
 62
256
370
-1
  6
BYLAYER
 10
168.7500000000001137
 20
237.9399999999986903
 30
0.0
 11
168.7500000000001137
 21
237.9399999999986903
 31
0.0
  0
CIRCLE
  5
B5
100
AcDbEntity
100
AcDbCircle
  8
Hole 4mm 5mm Deep
 62
256
370
-1
  6
BYLAYER
 10
168.7500000000001137
 20
237.9999999999986926
 30
0.0
 40
2.0
  0
LINE
  5
B6
100
AcDbEntity
100
AcDbLine
  8
0
 62
256
370
-1
  6
BYLAYER
 10
184.250000000000199
 20
264.9999999999986926
 30
0.0
 11
184.250000000000199
 21
264.9999999999986926
 31
0.0
  0
CIRCLE
  5
B7
100
AcDbEntity
100
AcDbCircle
  8
Mill 4.2mm Deep
 62
256
370
-1
  6
BYLAYER
 10
153.2500000000001137
 20
233.9999999999986926
 30
0.0
 40
1.5
  0
CIRCLE
  5
B8
100
AcDbEntity
100
AcDbCircle
  8
Hole M3
 62
256
370
-1
  6
BYLAYER
 10
206.2500000000001137
 20
233.1999999999987097
 30
0.0
 40
1.5
  0
LINE
  5
B9
100
AcDbEntity
100
AcDbLine
  8
0
 62
256
370
-1
  6
BYLAYER
 10
251.9999999999996874
 20
27.9999999999999396
 30
0.0
 11
251.9999999999996874
 21
27.9999999999999396
 31
0.0
  0
CIRCLE
  5
BA
100
AcDbEntity
100
AcDbCircle
  8
Hole M3
 62
256
370
-1
  6
BYLAYER
 10
350.8999999999999773
 20
218.2499999999998863
 30
0.0
 40
1.5
  0
LWPOLYLINE
  5
BB
  8
Mill 4.2mm Deep
 62
256
370
-1
  6
BYLAYER
100
AcDbEntity
100
AcDbPolyline
 90
9
 70
0
 10
181.6337348207314051
 20
57.7999999999999972
 30
0.0
 42
-0.4142135623730944
 10
178.6337348207314051
 20
54.7999999999999972
 30
0.0
 10
174.3837348207314903
 20
54.7999999999999687
 30
0.0
 42
-0.414213562373095
 10
171.3837348207314903
 20
57.7999999999999687
 30
0.0
 10
171.3837348207314903
 20
65.5999999999999801
 30
0.0
 42
-0.414213562373095
 10
174.3837348207314903
 20
68.5999999999999517
 30
0.0
 10
178.6337348207314051
 20
68.5999999999999801
 30
0.0
 42
-0.414213562373095
 10
181.6337348207314051
 20
65.5999999999999801
 30
0.0
 10
181.6337348207314051
 20
57.7999999999999972
 30
0.0
  0
LWPOLYLINE
  5
BC
  8
Mill 3mm Deep
 62
256
370
-1
  6
BYLAYER
100
AcDbEntity
100
AcDbPolyline
 90
9
 70
0
 10
190.8837348207314051
 20
65.5999999999999801
 30
0.0
 42
0.414213562373095
 10
187.8837348207314051
 20
68.6000000000000085
 30
0.0
 10
178.6337348207314051
 20
68.6000000000000938
 30
0.0
 42
0.414213562373095
 10
175.6337348207314051
 20
65.5999999999999801
 30
0.0
 10
175.6337348207314051
 20
57.8000000000001108
 30
0.0
 42
0.414213562373095
 10
178.6337348207314051
 20
54.8000000000001108
 30
0.0
 10
187.8837348207314051
 20
54.8000000000001108
 30
0.0
 42
0.414213562373095
 10
190.8837348207314051
 20
57.8000000000000824
 30
0.0
 10
190.8837348207314051
 20
65.5999999999999801
 30
0.0
  0
LWPOLYLINE
  5
BD
  8
0
 62
256
370
-1
  6
BYLAYER
100
AcDbEntity
100
AcDbPolyline
 90
21
 70
0
 10
314.9999999999998863
 20
318.9999999999985789
 30
0.0
 42
0.414213562373095
 10
304.0000000000001137
 20
329.9999999999986926
 30
0.0
 10
65.9999999999997584
 20
329.9999999999985789
 30
0.0
 42
0.414213562373095
 10
54.9999999999997371
 20
318.9999999999988063
 30
0.0
 10
54.9999999999983231
 20
54.9999999999999432
 30
0.0
 42
0.414213562373095
 10
65.99999999999811
 20
44.0000000000000568
 30
0.0
 10
107.9000000000000057
 20
44.0
 30
0.0
 42
-0.414213562373095
 10
112.8999999999998067
 20
38.9999999999999432
 30
0.0
 10
112.8999999999998067
 20
28.0
 30
0.0
 42
0.9999999999999999
 10
123.0999999999997954
 20
28.0000000000001101
 30
0.0
 42
-0.0039715938112304
 10
123.1162651792686944
 20
30.0476568705321903
 30
0.0
 42
-0.4095681928341146
 10
126.1158866258331983
 20
33.0
 30
0.0
 10
243.8841133741661906
 20
33.0
 30
0.0
 42
-0.4095681928341147
 10
246.8837348207310924
 20
30.0476568705328795
 30
0.0
 42
-0.0039715938112304
 10
246.899999999999693
 20
27.9999999999999396
 30
0.0
 42
0.9999999999999999
 10
257.0999999999996817
 20
28.0
 30
0.0
 10
257.0999999999996248
 20
38.9999999999999432
 30
0.0
 42
-0.414213562373095
 10
262.0999999999997954
 20
44.0
 30
0.0
 10
304.0000000000006253
 20
44.0
 30
0.0
 42
0.414213562373095
 10
315.0000000000003979
 20
54.9999999999999432
 30
0.0
 10
314.9999999999998863
 20
318.9999999999985789
 30
0.0
  0
LWPOLYLINE
  5
BE
  8
0
 62
256
370
-1
  6
BYLAYER
100
AcDbEntity
100
AcDbPolyline
 90
9
 70
0
 10
206.3628763929228001
 20
130.799999999998704
 30
0.0
 42
-0.414213562373095
 10
210.3628763929229137
 20
126.799999999998704
 30
0.0
 10
210.3628763929229137
 20
124.1999999999986954
 30
0.0
 42
-0.414213562373095
 10
206.3628763929228001
 20
120.1999999999986954
 30
0.0
 10
183.3628763929228001
 20
120.1999999999986954
 30
0.0
 42
-0.414213562373095
 10
179.3628763929228001
 20
124.1999999999986954
 30
0.0
 10
179.3628763929228001
 20
126.799999999998704
 30
0.0
 42
-0.414213562373095
 10
183.3628763929226864
 20
130.799999999998704
 30
0.0
 10
206.3628763929229137
 20
130.799999999998704
 30
0.0
  0
LINE
  5
BF
100
AcDbEntity
100
AcDbLine
  8
Hole M3
 62
256
370
-1
  6
BYLAYER
 10
184.2500000000001137
 20
233.9999999999986926
 30
0.0
 11
184.2500000000001137
 21
233.9999999999986926
 31
0.0
  0
LWPOLYLINE
  5
C0
  8
0
 62
256
370
-1
  6
BYLAYER
100
AcDbEntity
100
AcDbPolyline
 90
20
 70
0
 10
178.750000000000199
 20
180.4999999999986926
 30
0.0
 42
-0.4142135623730984
 10
173.7500000000001137
 20
185.4999999999986926
 30
0.0
 10
173.7500000000001137
 20
201.4999999999986926
 30
0.0
 42
0.414213562373095
 10
168.7500000000001137
 20
206.4999999999986926
 30
0.0
 10
147.7500000000001137
 20
206.4999999999986926
 30
0.0
 42
-0.414213562373095
 10
142.7500000000001137
 20
211.4999999999986926
 30
0.0
 10
142.7500000000001137
 20
225.4999999999986926
 30
0.0
 10
142.7500000000001137
 20
239.4999999999986926
 30
0.0
 42
-0.414213562373095
 10
147.7500000000001137
 20
244.4999999999986926
 30
0.0
 10
168.7500000000001137
 20
244.4999999999986926
 30
0.0
 42
0.414213562373095
 10
173.7500000000001137
 20
249.4999999999986926
 30
0.0
 10
173.7500000000001137
 20
265.4999999999986926
 30
0.0
 42
-0.4142135623730984
 10
178.750000000000199
 20
270.4999999999986926
 30
0.0
 10
207.0000000000001137
 20
270.4999999999986926
 30
0.0
 42
-0.414213562373095
 10
212.0000000000001137
 20
265.4999999999986926
 30
0.0
 10
212.0000000000001137
 20
225.4999999999986926
 30
0.0
 10
212.0000000000001137
 20
225.4999999999986926
 30
0.0
 10
212.0000000000001137
 20
185.4999999999986926
 30
0.0
 42
-0.414213562373095
 10
207.0000000000001137
 20
180.4999999999986926
 30
0.0
 10
178.750000000000199
 20
180.4999999999986926
 30
0.0
  0
LINE
  5
C1
100
AcDbEntity
100
AcDbLine
  8
Hole 8mm 5mm Deep
 62
256
370
-1
  6
BYLAYER
 10
113.9999999999999005
 20
94.999999999998991
 30
0.0
 11
118.9999999999999005
 21
94.999999999998991
 31
0.0
  0
LINE
  5
C2
100
AcDbEntity
100
AcDbLine
  8
Hole 8mm 5mm Deep
 62
256
370
-1
  6
BYLAYER
 10
113.9999999999999005
 20
86.999999999998991
 30
0.0
 11
118.9999999999999005
 21
86.999999999998991
 31
0.0
  0
ARC
  5
C3
100
AcDbEntity
  8
Hole 8mm 5mm Deep
 62
256
370
-1
  6
BYLAYER
100
AcDbCircle
 10
118.9999999999999005
 20
90.999999999998991
 30
0.0
 40
4.0
100
AcDbArc
 50
270.0
 51
90.0
  0
ARC
  5
C4
100
AcDbEntity
  8
Hole 8mm 5mm Deep
 62
256
370
-1
  6
BYLAYER
100
AcDbCircle
 10
113.9999999999999005
 20
90.999999999998991
 30
0.0
 40
4.0
100
AcDbArc
 50
90.0
 51
270.0
  0
LWPOLYLINE
  5
C5
  8
0
 62
256
370
-1
  6
BYLAYER
100
AcDbEntity
100
AcDbPolyline
 90
9
 70
0
 10
268.5000000000005116
 20
181.9999999999986926
 30
0.0
 42
0.414213562373095
 10
271.5000000000005116
 20
178.9999999999986926
 30
0.0
 10
292.5000000000005116
 20
178.9999999999986926
 30
0.0
 42
0.414213562373095
 10
295.5000000000005116
 20
181.9999999999986926
 30
0.0
 10
295.5000000000005116
 20
223.9999999999986926
 30
0.0
 42
0.414213562373095
 10
292.5000000000005116
 20
226.9999999999986926
 30
0.0
 10
271.5000000000005116
 20
226.9999999999986926
 30
0.0
 42
0.414213562373095
 10
268.5000000000005116
 20
223.9999999999986926
 30
0.0
 10
268.5000000000005116
 20
181.9999999999986926
 30
0.0
  0
LWPOLYLINE
  5
C6
  8
Mill 5mmDeep
 62
256
370
-1
  6
BYLAYER
100
AcDbEntity
100
AcDbPolyline
 90
9
 70
0
 10
267.5000000000005116
 20
181.9999999999986926
 30
0.0
 42
0.414213562373095
 10
270.5000000000005116
 20
178.9999999999986926
 30
0.0
 10
293.5000000000005116
 20
178.9999999999986926
 30
0.0
 42
0.414213562373095
 10
296.5000000000005116
 20
181.9999999999986926
 30
0.0
 10
296.5000000000005116
 20
223.9999999999986926
 30
0.0
 42
0.414213562373095
 10
293.5000000000005116
 20
226.9999999999986926
 30
0.0
 10
270.5000000000005116
 20
226.9999999999986926
 30
0.0
 42
0.414213562373095
 10
267.5000000000005116
 20
223.9999999999986926
 30
0.0
 10
267.5000000000005116
 20
181.9999999999986926
 30
0.0
  0
LWPOLYLINE
  5
C7
  8
0
 62
256
370
-1
  6
BYLAYER
100
AcDbEntity
100
AcDbPolyline
 90
37
 70
0
 10
170.5
 20
135.4999999999988063
 30
0.0
 10
170.5000000000001137
 20
110.9999999999985931
 30
0.0
 42
0.4142135623730909
 10
180.499999999999801
 20
100.9999999999987068
 30
0.0
 10
224.4999999999998863
 20
100.9999999999987068
 30
0.0
 42
0.414213562373095
 10
234.4999999999998863
 20
110.9999999999987068
 30
0.0
 10
234.4999999999998863
 20
264.4999999999984084
 30
0.0
 42
-0.4142135623730976
 10
250.5
 20
280.4999999999985789
 30
0.0
 10
271.5070368960443261
 20
280.4999999999986926
 30
0.0
 42
0.414213562373095
 10
274.5070368960443261
 20
283.4999999999986926
 30
0.0
 10
274.5070368960443261
 20
287.1999999999991928
 30
0.0
 42
0.414213562373095
 10
271.5070368960443261
 20
290.1999999999991928
 30
0.0
 10
250.5070368960438998
 20
290.1999999999991928
 30
0.0
 42
-0.414213562373095
 10
245.5070368960438998
 20
295.1999999999990791
 30
0.0
 10
245.5070368960438998
 20
295.7999999999992724
 30
0.0
 42
-0.4142135623730933
 10
250.5070368960437861
 20
300.7999999999992724
 30
0.0
 10
284.6010309552303283
 20
300.7999999999993861
 30
0.0
 42
0.1316524975873959
 10
286.1010309552303283
 20
301.2019237886461269
 30
0.0
 10
302.5000000000002274
 20
310.6698729810764803
 30
0.0
 42
0.767326987978963
 10
300.0000000000001137
 20
319.9999999999986926
 30
0.0
 10
91.0
 20
319.9999999999986926
 30
0.0
 42
0.7673269879789568
 10
88.5000000000001847
 20
310.6698729810768214
 30
0.0
 10
104.8989690447719028
 20
301.201923788645388
 30
0.0
 42
0.1316524975873971
 10
106.3989690447719028
 20
300.7999999999988177
 30
0.0
 10
140.4929631039557876
 20
300.7999999999988745
 30
0.0
 42
-0.4142135623730968
 10
145.4929631039559013
 20
295.7999999999988745
 30
0.0
 10
145.4929631039559013
 20
295.1999999999987949
 30
0.0
 42
-0.4142135623730932
 10
140.4929631039557876
 20
290.1999999999987949
 30
0.0
 10
119.4929631039557023
 20
290.1999999999986812
 30
0.0
 42
0.4142135623730881
 10
116.4929631039558018
 20
287.1999999999986812
 30
0.0
 10
116.4929631039557023
 20
283.4999999999989768
 30
0.0
 42
0.4142135623730921
 10
119.4929631039558018
 20
280.4999999999989768
 30
0.0
 10
206.0000000000001137
 20
280.4999999999986926
 30
0.0
 42
-0.4142135623730945
 10
222.0000000000001137
 20
264.4999999999986926
 30
0.0
 10
222.0000000000001137
 20
161.4999999999988916
 30
0.0
 42
-0.4142135623730938
 10
206.0000000000001137
 20
145.4999999999988063
 30
0.0
 10
180.499999999999801
 20
145.4999999999988063
 30
0.0
 42
0.4142135623730925
 10
170.5
 20
135.4999999999988916
 30
0.0
  0
LWPOLYLINE
  5
C8
  8
0
 62
256
370
-1
  6
BYLAYER
100
AcDbEntity
100
AcDbPolyline
 90
9
 70
0
 10
244.0000000000005116
 20
258.9999999999988063
 30
0.0
 42
-0.4142135623730968
 10
253.5000000000005969
 20
268.4999999999988063
 30
0.0
 10
295.5000000000006253
 20
268.4999999999985789
 30
0.0
 42
-0.414213562373095
 10
305.0000000000005116
 20
258.9999999999986926
 30
0.0
 10
305.0000000000005116
 20
88.9999999999988063
 30
0.0
 42
-0.414213562373095
 10
295.5000000000005116
 20
79.4999999999988063
 30
0.0
 10
253.5000000000005116
 20
79.4999999999987779
 30
0.0
 42
-0.4142135623730932
 10
244.0000000000005969
 20
88.9999999999988063
 30
0.0
 10
244.0000000000005116
 20
258.9999999999988063
 30
0.0
  0
ARC
  5
C9
100
AcDbEntity
  8
0
 62
256
370
-1
  6
BYLAYER
100
AcDbCircle
 10
358.0
 20
0.0
 30
0.0
 40
0.0
100
AcDbArc
 50
0.0
 51
0.0
  0
ARC
  5
CA
100
AcDbEntity
  8
0
 62
256
370
-1
  6
BYLAYER
100
AcDbCircle
 10
338.9999999999997726
 20
-0.0000000000000568
 30
0.0
 40
0.0
100
AcDbArc
 50
0.0
 51
0.0
  0
ARC
  5
CB
100
AcDbEntity
  8
0
 62
256
370
-1
  6
BYLAYER
100
AcDbCircle
 10
31.0000000000000888
 20
0.0
 30
0.0
 40
0.0
100
AcDbArc
 50
0.0
 51
0.0
  0
ARC
  5
CC
100
AcDbEntity
  8
0
 62
256
370
-1
  6
BYLAYER
100
AcDbCircle
 10
11.9999999999998597
 20
0.0000000000000568
 30
0.0
 40
0.0
100
AcDbArc
 50
0.0
 51
0.0
  0
CIRCLE
  5
CD
100
AcDbEntity
100
AcDbCircle
  8
Hole M3
 62
256
370
-1
  6
BYLAYER
 10
23.9999999999997407
 20
131.0000000000001137
 30
0.0
 40
1.5
  0
LWPOLYLINE
  5
CE
  8
0
 62
256
370
-1
  6
BYLAYER
100
AcDbEntity
100
AcDbPolyline
 90
20
 70
0
 10
370.0
 20
370.0000000000001137
 30
0.0
 10
370.0
 20
370.0000000000001137
 30
0.0
 10
-0.0000000000000284
 20
370.0000000000001137
 30
0.0
 10
-0.0000000000000284
 20
370.0000000000001137
 30
0.0
 10
0.0000000000000284
 20
0.0
 30
0.0
 10
-0.0000000000003979
 20
0.0000000000001137
 30
0.0
 10
11.9999999999998597
 20
0.0000000000000568
 30
0.0
 10
12.0
 20
20.0
 30
0.0
 42
-0.414213562373095
 10
16.9999999999999716
 20
25.0
 30
0.0
 10
25.9999999999999396
 20
25.0
 30
0.0
 42
-0.414213562373095
 10
30.9999999999997691
 20
20.0000000000001101
 30
0.0
 10
31.0000000000000888
 20
0.0
 30
0.0
 10
338.9999999999997726
 20
-0.0000000000000568
 30
0.0
 10
339.0000000000001137
 20
20.0
 30
0.0
 42
-0.4142135623730915
 10
343.9999999999998863
 20
24.9999999999999396
 30
0.0
 10
352.9999999999998863
 20
24.9999999999998899
 30
0.0
 42
-0.414213562373095
 10
357.9999999999997726
 20
19.9999999999999396
 30
0.0
 10
358.0
 20
0.0
 30
0.0
 10
369.9999999999997726
 20
-0.0000000000000568
 30
0.0
 10
370.0
 20
370.0000000000001137
 30
0.0
  0
MTEXT
  5
CF
100
AcDbEntity
100
AcDbMText
  8
_Comments NAMES
 62
256
370
-1
  6
BYLAYER
 10
100.0
 20
180.0
 30
0.0
 40
5.0
 41
0.0
 71
8
 72
1
  1
FRONT PLATE
  7
textstyle0
 50
0.0
 73
1
 44
1.0
  0
MTEXT
  5
D0
100
AcDbEntity
100
AcDbMText
  8
_Comments NAMES
 62
256
370
-1
  6
BYLAYER
 10
280.0
 20
150.0
 30
0.0
 40
5.0
 41
0.0
 71
8
 72
1
  1
BACK PLATE
  7
textstyle1
 50
0.0
 73
1
 44
1.0
  0
MTEXT
  5
D1
100
AcDbEntity
100
AcDbMText
  8
_Comments NAMES
 62
256
370
-1
  6
BYLAYER
 10
130.0
 20
350.0
 30
0.0
 40
5.0
 41
0.0
 71
8
 72
1
  1
XZ-PLATE
  7
textstyle2
 50
0.0
 73
1
 44
1.0
  0
MTEXT
  5
D2
100
AcDbEntity
100
AcDbMText
  8
_Comments NAMES
 62
256
370
-1
  6
BYLAYER
 10
184.2500000000001137
 20
218.4999999999986926
 30
0.0
 40
5.0
 41
0.0
 71
8
 72
1
  1
EXTRUDER \PBASE PLATE
  7
textstyle3
 50
0.0
 73
1
 44
1.0
  0
MTEXT
  5
D3
100
AcDbEntity
100
AcDbMText
  8
_Comments NAMES
 62
256
370
-1
  6
BYLAYER
 10
110.0
 20
60.0
 30
0.0
 40
5.0
 41
0.0
 71
8
 72
1
  1
EXTRUDER FRONT LEFT
  7
textstyle4
 50
0.0
 73
1
 44
1.0
  0
MTEXT
  5
D4
100
AcDbEntity
100
AcDbMText
  8
_Comments NAMES
 62
256
370
-1
  6
BYLAYER
 10
198.3649032667595975
 20
295.3429789428867025
 30
0.0
 40
5.0
 41
0.0
 71
8
 72
1
  1
Y-CARRIAGE\P
  7
textstyle5
 50
0.0
 73
1
 44
1.0
  0
LEADER
  5
D5
  8
_Comments HOLES
 62
256
370
-1
  6
BYLAYER
100
AcDbEntity
100
AcDbLeader
  3
Standard
 71
1
 72
0
 73
3
 74
0
 75
0
 40
1.0
 41
10.0
 76
2
 10
113.9999999999999005
 20
94.999999999998991
 10
108.9371359468016749
 20
106.0955227123663747
  0
LEADER
  5
D6
  8
_Comments HOLES
 62
256
370
-1
  6
BYLAYER
100
AcDbEntity
100
AcDbLeader
  3
Standard
 71
1
 72
0
 73
3
 74
0
 75
0
 40
1.0
 41
10.0
 76
2
 10
257.5000000000005116
 20
258.9999999999988063
 10
270.0
 20
260.0
  0
LEADER
  5
D7
  8
_Comments HOLES
 62
256
370
-1
  6
BYLAYER
100
AcDbEntity
100
AcDbLeader
  3
Standard
 71
1
 72
0
 73
3
 74
0
 75
0
 40
1.0
 41
10.0
 76
2
 10
257.5000000000005116
 20
88.9999999999987779
 10
270.0
 20
89.9999999999999716
  0
MTEXT
  5
D8
100
AcDbEntity
100
AcDbMText
  8
_Comments NAMES
 62
256
370
-1
  6
BYLAYER
 10
233.4281745035698918
 20
48.1082489680946068
 30
0.0
 40
5.0
 41
0.0
 71
8
 72
1
  1
EXTRUDER FRONT RIGHT
  7
textstyle6
 50
0.0
 73
1
 44
1.0
  0
LEADER
  5
D9
  8
_Comments HOLES
 62
256
370
-1
  6
BYLAYER
100
AcDbEntity
100
AcDbLeader
  3
Standard
 71
1
 72
0
 73
3
 74
0
 75
0
 40
1.0
 41
10.0
 76
2
 10
116.1139843606032827
 20
257.0186695783759205
 10
120.0690444320801618
 20
245.1093797321485965
  0
LEADER
  5
DA
  8
_Comments HOLES
 62
256
370
-1
  6
BYLAYER
100
AcDbEntity
100
AcDbLeader
  3
Standard
 71
1
 72
0
 73
3
 74
0
 75
0
 40
1.0
 41
10.0
 76
2
 10
153.1337348207314903
 20
84.7000000000000171
 10
165.1270102941030586
 20
94.4163340489549938
  0
LEADER
  5
DB
  8
_Comments HOLES
 62
256
370
-1
  6
BYLAYER
100
AcDbEntity
100
AcDbLeader
  3
Standard
 71
1
 72
0
 73
3
 74
0
 75
0
 40
1.0
 41
10.0
 76
2
 10
93.1337348207314761
 20
59.2000000000000526
 10
91.5481217146114119
 20
48.3484232099434763
  0
LEADER
  5
DC
  8
_Comments HOLES
 62
256
370
-1
  6
BYLAYER
100
AcDbEntity
100
AcDbLeader
  3
Standard
 71
1
 72
0
 73
3
 74
0
 75
0
 40
1.0
 41
10.0
 76
2
 10
184.250000000000199
 20
263.4999999999986926
 10
181.4710252898606768
 20
252.8464875480572118
  0
LEADER
  5
DD
  8
_Comments HOLES
 62
256
370
-1
  6
BYLAYER
100
AcDbEntity
100
AcDbLeader
  3
Standard
 71
1
 72
0
 73
3
 74
0
 75
0
 40
1.0
 41
10.0
 76
2
 10
184.2500000000001137
 20
235.4999999999986926
 10
189.2571510654682356
 20
247.2404769896197649
  0
LEADER
  5
DE
  8
_Comments HOLES
 62
256
370
-1
  6
BYLAYER
100
AcDbEntity
100
AcDbLeader
  3
Standard
 71
1
 72
0
 73
3
 74
0
 75
0
 40
1.0
 41
10.0
 76
2
 10
153.8465104832554005
 20
235.3762903920913629
 10
158.8912605405986938
 20
242.724524039767374
  0
LEADER
  5
DF
  8
_Comments HOLES
 62
256
370
-1
  6
BYLAYER
100
AcDbEntity
100
AcDbLeader
  3
Standard
 71
1
 72
0
 73
3
 74
0
 75
0
 40
1.0
 41
10.0
 76
2
 10
206.2500000000001137
 20
231.6999999999987097
 10
210.2050600714769928
 20
219.7907101537713856
  0
LEADER
  5
E0
  8
_Comments HOLES
 62
256
370
-1
  6
BYLAYER
100
AcDbEntity
100
AcDbLeader
  3
Standard
 71
1
 72
0
 73
3
 74
0
 75
0
 40
1.0
 41
10.0
 76
2
 10
206.2500000000001137
 20
258.6999999999986812
 10
202.4935648840012163
 20
266.7057914286386904
  0
LEADER
  5
E1
  8
_Comments HOLES
 62
256
370
-1
  6
BYLAYER
100
AcDbEntity
100
AcDbLeader
  3
Standard
 71
1
 72
0
 73
3
 74
0
 75
0
 40
1.0
 41
10.0
 76
2
 10
147.7500000000001137
 20
234.6999999999987097
 10
141.4503388032377131
 20
245.060361772449653
  0
LEADER
  5
E2
  8
_Comments HOLES
 62
256
370
-1
  6
BYLAYER
100
AcDbEntity
100
AcDbLeader
  3
Standard
 71
1
 72
0
 73
3
 74
0
 75
0
 40
1.0
 41
10.0
 76
2
 10
153.2500000000001137
 20
215.4999999999986926
 10
157.2050600714769928
 20
203.5907101537713686
  0
LEADER
  5
E3
  8
_Comments HOLES
 62
256
370
-1
  6
BYLAYER
100
AcDbEntity
100
AcDbLeader
  3
Standard
 71
1
 72
0
 73
3
 74
0
 75
0
 40
1.0
 41
10.0
 76
2
 10
184.2500000000001137
 20
215.4999999999986926
 10
188.2050600714769928
 20
203.5907101537713686
  0
LEADER
  5
E4
  8
_Comments HOLES
 62
256
370
-1
  6
BYLAYER
100
AcDbEntity
100
AcDbLeader
  3
Standard
 71
1
 72
0
 73
3
 74
0
 75
0
 40
1.0
 41
10.0
 76
2
 10
184.2500000000001137
 20
184.4999999999986926
 10
188.2050600714769928
 20
172.5907101537713686
  0
LEADER
  5
E5
  8
_Comments HOLES
 62
256
370
-1
  6
BYLAYER
100
AcDbEntity
100
AcDbLeader
  3
Standard
 71
1
 72
0
 73
3
 74
0
 75
0
 40
1.0
 41
10.0
 76
2
 10
206.2500000000001137
 20
192.299999999998704
 10
210.2050600714769928
 20
180.39071015377138
  0
LEADER
  5
E6
  8
_Comments HOLES
 62
256
370
-1
  6
BYLAYER
100
AcDbEntity
100
AcDbLeader
  3
Standard
 71
1
 72
0
 73
3
 74
0
 75
0
 40
1.0
 41
10.0
 76
2
 10
206.2500000000001137
 20
219.299999999998704
 10
202.3378423684889924
 20
227.4637175195765053
  0
LEADER
  5
E7
  8
_Comments HOLES
 62
256
370
-1
  6
BYLAYER
100
AcDbEntity
100
AcDbLeader
  3
Standard
 71
1
 72
0
 73
3
 74
0
 75
0
 40
1.0
 41
10.0
 76
2
 10
170.7500000000001137
 20
237.9999999999986926
 10
180.9646513150312899
 20
244.5556325032091252
  0
LEADER
  5
E8
  8
_Comments HOLES
 62
256
370
-1
  6
BYLAYER
100
AcDbEntity
100
AcDbLeader
  3
Standard
 71
1
 72
0
 73
3
 74
0
 75
0
 40
1.0
 41
10.0
 76
2
 10
170.7500000000001137
 20
212.9999999999986926
 10
180.8565106792589745
 20
208.0040976121624112
  0
LEADER
  5
E9
  8
_Comments HOLES
 62
256
370
-1
  6
BYLAYER
100
AcDbEntity
100
AcDbLeader
  3
Standard
 71
1
 72
0
 73
3
 74
0
 75
0
 40
1.0
 41
10.0
 76
2
 10
114.1337348207315046
 20
63.5000000000000568
 10
112.5481217146114403
 20
52.6484232099434806
  0
LEADER
  5
EA
  8
_Comments HOLES
 62
256
370
-1
  6
BYLAYER
100
AcDbEntity
100
AcDbLeader
  3
Standard
 71
1
 72
0
 73
3
 74
0
 75
0
 40
1.0
 41
10.0
 76
2
 10
220.8837348207314051
 20
52.5000000000000071
 10
219.2981217146113408
 20
41.6484232099434308
  0
LEADER
  5
EB
  8
_Comments HOLES
 62
256
370
-1
  6
BYLAYER
100
AcDbEntity
100
AcDbLeader
  3
Standard
 71
1
 72
0
 73
3
 74
0
 75
0
 40
1.0
 41
10.0
 76
2
 10
241.8837348207314051
 20
48.1999999999999886
 10
248.3694970960561648
 20
38.127035787504262
  0
LEADER
  5
EC
  8
_Comments HOLES
 62
256
370
-1
  6
BYLAYER
100
AcDbEntity
100
AcDbLeader
  3
Standard
 71
1
 72
0
 73
3
 74
0
 75
0
 40
1.0
 41
10.0
 76
2
 10
183.3837348207314051
 20
48.1999999999999886
 10
181.7981217146113408
 20
37.3484232099434124
  0
LEADER
  5
ED
  8
_Comments HOLES
 62
256
370
-1
  6
BYLAYER
100
AcDbEntity
100
AcDbLeader
  3
Standard
 71
1
 72
0
 73
3
 74
0
 75
0
 40
1.0
 41
10.0
 76
2
 10
184.8837348207314051
 20
73.7000000000000028
 10
196.8770102941029734
 20
83.4163340489549796
  0
MTEXT
  5
EE
100
AcDbEntity
100
AcDbMText
  8
_Comments HOLES
 62
256
370
-1
  6
BYLAYER
 10
-200.0
 20
300.0
 30
0.0
 40
5.0
 41
0.0
 71
1
 72
1
  1
HOLES WITH AN ARROW       \PSHOULD BE AS ACCURATE AS POSSIBLE
  7
textstyle7
 50
0.0
 73
2
 44
1.0
  0
LEADER
  5
EF
  8
_Comments HOLES
 62
256
370
-1
  6
BYLAYER
100
AcDbEntity
100
AcDbLeader
  3
Standard
 71
1
 72
0
 73
3
 74
0
 75
0
 40
1.0
 41
10.0
 76
2
 10
-89.9999999999999858
 20
310.0
 10
-95.0628640531982114
 20
321.0955227123673694
  0
MTEXT
  5
F0
100
AcDbEntity
100
AcDbMText
  8
_Comments HOLES
 62
256
370
-1
  6
BYLAYER
 10
-200.0
 20
270.0
 30
0.0
 40
5.0
 41
0.0
 71
1
 72
1
  1
COUNTER SUNK HOLES 1MM DEEP
  7
textstyle8
 50
0.0
 73
2
 44
1.0
  0
MTEXT
  5
F1
100
AcDbEntity
100
AcDbMText
  8
_Comments HOLES
 62
256
370
-1
  6
BYLAYER
 10
-200.0
 20
240.0
 30
0.0
 40
5.0
 41
0.0
 71
1
 72
1
  1
COUNTER SUNK HOLES OF EXTRUDER \PFRONT ARE MADE FROM THE OTHER SIDE
  7
textstyle9
 50
0.0
 73
2
 44
1.0
  0
LINE
  5
F2
100
AcDbEntity
100
AcDbLine
  8
_Comments HOLES
 62
256
370
-1
  6
BYLAYER
 10
-52.0
 20
280.0
 30
0.0
 11
-27.0
 21
280.0
 31
0.0
  0
LINE
  5
F3
100
AcDbEntity
100
AcDbLine
  8
_Comments HOLES
 62
256
370
-1
  6
BYLAYER
 10
-50.0
 20
268.0
 30
0.0
 11
-29.0
 21
268.0
 31
0.0
  0
LINE
  5
F4
100
AcDbEntity
100
AcDbLine
  8
_Comments HOLES
 62
1
420
16711680
370
-1
  6
CENTER
 10
-40.0
 20
290.0
 30
0.0
 11
-40.0
 21
260.0
 31
0.0
  0
LINE
  5
F5
100
AcDbEntity
100
AcDbLine
  8
_Comments HOLES
 62
256
370
-1
  6
BYLAYER
 10
-46.2999999999999972
 20
278.0
 30
0.0
 11
-33.7000000000000028
 21
278.0
 31
0.0
  0
LINE
  5
F6
100
AcDbEntity
100
AcDbLine
  8
_Comments HOLES
 62
256
370
-1
  6
BYLAYER
 10
-33.7000000000000028
 20
280.0
 30
0.0
 11
-33.7000000000000028
 21
278.0
 31
0.0
  0
LINE
  5
F7
100
AcDbEntity
100
AcDbLine
  8
_Comments HOLES
 62
256
370
-1
  6
BYLAYER
 10
-46.2999999999999972
 20
280.0
 30
0.0
 11
-46.2999999999999972
 21
278.0
 31
0.0
  0
LINE
  5
F8
100
AcDbEntity
100
AcDbLine
  8
_Comments HOLES
 62
256
370
-1
  6
BYLAYER
 10
-36.5
 20
275.1999999999999318
 30
0.0
 11
-36.5
 21
268.0
 31
0.0
  0
LINE
  5
F9
100
AcDbEntity
100
AcDbLine
  8
_Comments HOLES
 62
256
370
-1
  6
BYLAYER
 10
-43.5
 20
275.1999999999999886
 30
0.0
 11
-43.5
 21
268.0
 31
0.0
  0
LINE
  5
FA
100
AcDbEntity
100
AcDbLine
  8
_Comments HOLES
 62
256
370
-1
  6
BYLAYER
 10
-43.5000000000000213
 20
275.1999999999999886
 30
0.0
 11
-36.4999999999999929
 21
275.1999999999999886
 31
0.0
  0
LINE
  5
FB
100
AcDbEntity
100
AcDbLine
  8
_Comments HOLES
 62
256
370
-1
  6
BYLAYER
 10
-46.2999999999999972
 20
278.0
 30
0.0
 11
-43.5
 21
275.1999999999999886
 31
0.0
  0
LINE
  5
FC
100
AcDbEntity
100
AcDbLine
  8
_Comments HOLES
 62
256
370
-1
  6
BYLAYER
 10
-36.5
 20
275.1999999999999886
 30
0.0
 11
-33.7000000000000028
 21
278.0
 31
0.0
  0
ARC
  5
FD
100
AcDbEntity
  8
_Comments HOLES
 62
256
370
-1
  6
BYLAYER
100
AcDbCircle
 10
-46.3000000000000043
 20
278.0
 30
0.0
 40
0.0
100
AcDbArc
 50
0.0
 51
0.0
  0
ARC
  5
FE
100
AcDbEntity
  8
_Comments HOLES
 62
256
370
-1
  6
BYLAYER
100
AcDbCircle
 10
-43.5000000000000213
 20
275.1999999999999886
 30
0.0
 40
0.0
100
AcDbArc
 50
0.0
 51
0.0
  0
ARC
  5
FF
100
AcDbEntity
  8
_Comments HOLES
 62
256
370
-1
  6
BYLAYER
100
AcDbCircle
 10
-36.4999999999999929
 20
275.2000000000000455
 30
0.0
 40
0.0
100
AcDbArc
 50
0.0
 51
0.0
  0
ARC
  5
100
100
AcDbEntity
  8
_Comments HOLES
 62
256
370
-1
  6
BYLAYER
100
AcDbCircle
 10
-33.6999999999999957
 20
278.0
 30
0.0
 40
0.0
100
AcDbArc
 50
0.0
 51
0.0
  0
ARC
  5
101
100
AcDbEntity
  8
_Comments HOLES
 62
256
370
-1
  6
BYLAYER
100
AcDbCircle
 10
-43.5
 20
275.1999999999999886
 30
0.0
 40
0.0
100
AcDbArc
 50
0.0
 51
0.0
  0
ARC
  5
102
100
AcDbEntity
  8
_Comments HOLES
 62
256
370
-1
  6
BYLAYER
100
AcDbCircle
 10
-36.5
 20
275.1999999999999318
 30
0.0
 40
0.0
100
AcDbArc
 50
0.0
 51
0.0
  0
ARC
  5
103
100
AcDbEntity
  8
_Comments HOLES
 62
256
370
-1
  6
BYLAYER
100
AcDbCircle
 10
-46.2999999999999972
 20
278.0
 30
0.0
 40
0.0
100
AcDbArc
 50
0.0
 51
0.0
  0
ARC
  5
104
100
AcDbEntity
  8
_Comments HOLES
 62
256
370
-1
  6
BYLAYER
100
AcDbCircle
 10
-33.7000000000000028
 20
278.0
 30
0.0
 40
0.0
100
AcDbArc
 50
0.0
 51
0.0
  0
DIMENSION
  5
105
100
AcDbEntity
  8
_Comments HOLES
 62
256
370
-1
  6
BYLAYER
100
AcDbDimension
 10
-33.7000000000000028
 20
278.0
 30
0.0
 11
-40.0000000000000213
 21
306.5
 31
0.0
 70
2
 71
8
 72
2
 41
1.0
 42
0.0
  1

  3
Standard
100
AcDb2LineAngularDimension
 13
-46.2999999999999972
 23
278.0
 33
0.0
 14
-43.5
 24
275.1999999999999886
 34
0.0
 15
-36.5
 25
275.1999999999999886
 35
0.0
 16
-31.8342591270155424
 26
302.1749598194201099
 36
0.0
  0
DIMENSION
  5
106
100
AcDbEntity
  8
_Comments HOLES
 62
256
370
-1
  6
BYLAYER
100
AcDbDimension
 10
-46.2999999999999972
 20
291.5859316669425425
 30
0.0
 11
-40.0
 21
294.8359316669425425
 31
0.0
 70
1
 71
8
 72
2
 41
1.0
 42
0.0
  1
6,3
  3
Standard
100
AcDbAlignedDimension
 13
-46.2999999999999972
 23
280.0
 33
0.0
 14
-33.7000000000000028
 24
280.0
 34
0.0
1001
ACAD
1000
DSTYLE
1002
{
1070
144
1040
1
1002
}
  0
DIMENSION
  5
107
100
AcDbEntity
  8
_Comments HOLES
 62
256
370
-1
  6
BYLAYER
100
AcDbDimension
 10
-61.0723689887968817
 20
275.5497367907069588
 30
0.0
 11
-64.3223689887968817
 21
279.0
 31
0.0
 70
0
 71
8
 72
2
 41
1.0
 42
0.0
  1
1
  3
Standard
100
AcDbAlignedDimension
 13
-52.0
 23
280.0
 33
0.0
 14
-46.3000000000000043
 24
278.0
 34
0.0
 50
90.0
100
AcDbRotatedDimension
1001
ACAD
1000
DSTYLE
1002
{
1070
144
1040
1
1002
}
  0
DIMENSION
  5
108
100
AcDbEntity
  8
_Comments HOLES
 62
256
370
-1
  6
BYLAYER
100
AcDbDimension
 10
-43.4999999999999929
 20
254.917180325741441
 30
0.0
 11
-30.3333333333333357
 21
258.1671803257414695
 31
0.0
 70
1
 71
8
 72
2
 41
1.0
 42
0.0
  1
3,5
  3
Standard
100
AcDbAlignedDimension
 13
-43.4999999999999929
 23
268.0
 33
0.0
 14
-36.5
 24
268.0
 34
0.0
1001
ACAD
1000
DSTYLE
1002
{
1070
144
1040
1
1002
}
  0
MTEXT
  5
109
100
AcDbEntity
100
AcDbMText
  8
_Comments HOLES
 62
256
370
-1
  6
BYLAYER
 10
-200.0
 20
210.0
 30
0.0
 40
5.0
 41
0.0
 71
1
 72
1
  1
BREAK SHARP EDGES 0.2MM X 45%%d
  7
textstyle10
 50
0.0
 73
2
 44
1.0
  0
ENDSEC
  0
SECTION
  2
OBJECTS
  0
DICTIONARY
  5
C
100
AcDbDictionary
280
0
281
1
  3
ACAD_GROUP
350
D
  3
ACAD_LAYOUT
350
1A
  3
ACAD_MLINESTYLE
350
17
  3
ACAD_PLOTSETTINGS
350
19
  3
ACAD_PLOTSTYLENAME
350
E
  3
AcDbVariableDictionary
350
10A
  3
QCAD_OBJECTS
350
10B
  0
DICTIONARY
  5
D
100
AcDbDictionary
280
0
281
1
  0
ACDBDICTIONARYWDFLT
  5
E
100
AcDbDictionary
281
1
  3
Normal
350
F
100
AcDbDictionaryWithDefault
340
F
  0
ACDBPLACEHOLDER
  5
F
  0
DICTIONARY
  5
17
100
AcDbDictionary
280
0
281
1
  3
Standard
350
18
  0
MLINESTYLE
  5
18
100
AcDbMlineStyle
  2
STANDARD
 70
0
  3

 62
256
 51
90.0
 52
90.0
 71
2
 49
0.5
 62
256
  6
BYLAYER
 49
-0.5
 62
256
  6
BYLAYER
  0
DICTIONARY
  5
19
100
AcDbDictionary
280
0
281
1
  0
DICTIONARY
  5
1A
100
AcDbDictionary
281
1
  3
Layout1
350
1E
  3
Layout2
350
26
  3
Model
350
22
  0
LAYOUT
  5
1E
100
AcDbPlotSettings
  1

  2
none_device
  4

  6

 40
0.0
 41
0.0
 42
0.0
 43
0.0
 44
0.0
 45
0.0
 46
0.0
 47
0.0
 48
0.0
 49
0.0
140
0.0
141
0.0
142
1.0
143
1.0
 70
688
 72
0
 73
0
 74
5
  7

 75
16
147
1.0
148
0.0
149
0.0
100
AcDbLayout
  1
Layout1
 70
1
 71
1
 10
0.0
 20
0.0
 11
420.0
 21
297.0
 12
0.0
 22
0.0
 32
0.0
 14
100000000000000000000.0
 24
100000000000000000000.0
 34
100000000000000000000.0
 15
-100000000000000000000.0
 25
-100000000000000000000.0
 35
-100000000000000000000.0
146
0.0
 13
0.0
 23
0.0
 33
0.0
 16
1.0
 26
0.0
 36
0.0
 17
0.0
 27
1.0
 37
0.0
 76
0
330
1B
  0
LAYOUT
  5
22
100
AcDbPlotSettings
  1

  2
none_device
  4

  6

 40
0.0
 41
0.0
 42
0.0
 43
0.0
 44
0.0
 45
0.0
 46
0.0
 47
0.0
 48
0.0
 49
0.0
140
0.0
141
0.0
142
1.0
143
1.0
 70
1712
 72
0
 73
0
 74
0
  7

 75
0
147
1.0
148
0.0
149
0.0
100
AcDbLayout
  1
Model
 70
1
 71
0
 10
0.0
 20
0.0
 11
12.0
 21
9.0
 12
0.0
 22
0.0
 32
0.0
 14
0.0
 24
0.0
 34
0.0
 15
0.0
 25
0.0
 35
0.0
146
0.0
 13
0.0
 23
0.0
 33
0.0
 16
1.0
 26
0.0
 36
0.0
 17
0.0
 27
1.0
 37
0.0
 76
0
330
1F
  0
LAYOUT
  5
26
100
AcDbPlotSettings
  1

  2
none_device
  4

  6

 40
0.0
 41
0.0
 42
0.0
 43
0.0
 44
0.0
 45
0.0
 46
0.0
 47
0.0
 48
0.0
 49
0.0
140
0.0
141
0.0
142
1.0
143
1.0
 70
688
 72
0
 73
0
 74
5
  7

 75
16
147
1.0
148
0.0
149
0.0
100
AcDbLayout
  1
Layout2
 70
1
 71
2
 10
0.0
 20
0.0
 11
12.0
 21
9.0
 12
0.0
 22
0.0
 32
0.0
 14
0.0
 24
0.0
 34
0.0
 15
0.0
 25
0.0
 35
0.0
146
0.0
 13
0.0
 23
0.0
 33
0.0
 16
1.0
 26
0.0
 36
0.0
 17
0.0
 27
1.0
 37
0.0
 76
0
330
23
  0
DICTIONARY
  5
10A
100
AcDbDictionary
281
1
  3
DIMASSOC
350
10D
  3
HIDETEXT
350
10C
  0
DICTIONARYVAR
  5
10C
100
DictionaryVariables
280
0
  1
2
  0
DICTIONARYVAR
  5
10D
100
DictionaryVariables
280
0
  1
1
  0
DICTIONARY
  5
10B
100
AcDbDictionary
281
1
  3
ColorSettings/ColorMode
350
10E
  3
Grid/DisplayGrid
350
10F
  3
Grid/DisplayGrid00
350
110
  3
Grid/DisplayGrid01
350
111
  3
Grid/DisplayGrid02
350
112
  3
Grid/DisplayGrid03
350
113
  3
Grid/GridSpacingX
350
114
  3
Grid/GridSpacingX00
350
115
  3
Grid/GridSpacingX01
350
116
  3
Grid/GridSpacingX02
350
117
  3
Grid/GridSpacingX03
350
118
  3
Grid/GridSpacingY
350
119
  3
Grid/GridSpacingY00
350
11A
  3
Grid/GridSpacingY01
350
11B
  3
Grid/GridSpacingY02
350
11C
  3
Grid/GridSpacingY03
350
11D
  3
Grid/IsometricGrid00
350
11E
  3
Grid/IsometricGrid01
350
11F
  3
Grid/IsometricGrid02
350
120
  3
Grid/IsometricGrid03
350
121
  3
Grid/IsometricProjection00
350
122
  3
Grid/IsometricProjection01
350
123
  3
Grid/IsometricProjection02
350
124
  3
Grid/IsometricProjection03
350
125
  3
Grid/MetaGridSpacingX
350
126
  3
Grid/MetaGridSpacingX00
350
127
  3
Grid/MetaGridSpacingX01
350
128
  3
Grid/MetaGridSpacingX02
350
129
  3
Grid/MetaGridSpacingX03
350
12A
  3
Grid/MetaGridSpacingY
350
12B
  3
Grid/MetaGridSpacingY00
350
12C
  3
Grid/MetaGridSpacingY01
350
12D
  3
Grid/MetaGridSpacingY02
350
12E
  3
Grid/MetaGridSpacingY03
350
12F
  3
MultiPageSettings/Columns
350
130
  3
MultiPageSettings/GlueMarginBottom
350
131
  3
MultiPageSettings/GlueMarginsBottom
350
132
  3
MultiPageSettings/GlueMarginsLeft
350
133
  3
MultiPageSettings/GlueMarginsRight
350
134
  3
MultiPageSettings/GlueMarginsTop
350
135
  3
MultiPageSettings/PrintCropMarks
350
136
  3
MultiPageSettings/Rows
350
137
  3
PageSettings/OffsetX
350
138
  3
PageSettings/OffsetY
350
139
  3
PageSettings/PageOrientation
350
13A
  3
PageSettings/PaperHeight
350
13B
  3
PageSettings/PaperWidth
350
13C
  3
PageSettings/Scale
350
13D
  3
PageSettings/ShowBoundingBox
350
13E
  3
PageSettings/ShowPageBorders
350
13F
  3
PageSettings/ShowPaperBorders
350
140
  3
UnitSettings/PaperUnit
350
141
  0
XRECORD
  5
10E
330
10B
100
AcDbXrecord
280
1
1000
BlackWhite
  0
XRECORD
  5
10F
330
10B
100
AcDbXrecord
280
1
290
1
  0
XRECORD
  5
110
330
10B
100
AcDbXrecord
280
1
290
1
  0
XRECORD
  5
111
330
10B
100
AcDbXrecord
280
1
290
1
  0
XRECORD
  5
112
330
10B
100
AcDbXrecord
280
1
290
1
  0
XRECORD
  5
113
330
10B
100
AcDbXrecord
280
1
290
1
  0
XRECORD
  5
114
330
10B
100
AcDbXrecord
280
1
1000
auto
  0
XRECORD
  5
115
330
10B
100
AcDbXrecord
280
1
1000
auto
  0
XRECORD
  5
116
330
10B
100
AcDbXrecord
280
1
1000
auto
  0
XRECORD
  5
117
330
10B
100
AcDbXrecord
280
1
1000
auto
  0
XRECORD
  5
118
330
10B
100
AcDbXrecord
280
1
1000
auto
  0
XRECORD
  5
119
330
10B
100
AcDbXrecord
280
1
1000
auto
  0
XRECORD
  5
11A
330
10B
100
AcDbXrecord
280
1
1000
auto
  0
XRECORD
  5
11B
330
10B
100
AcDbXrecord
280
1
1000
auto
  0
XRECORD
  5
11C
330
10B
100
AcDbXrecord
280
1
1000
auto
  0
XRECORD
  5
11D
330
10B
100
AcDbXrecord
280
1
1000
auto
  0
XRECORD
  5
11E
330
10B
100
AcDbXrecord
280
1
290
0
  0
XRECORD
  5
11F
330
10B
100
AcDbXrecord
280
1
290
0
  0
XRECORD
  5
120
330
10B
100
AcDbXrecord
280
1
290
0
  0
XRECORD
  5
121
330
10B
100
AcDbXrecord
280
1
290
0
  0
XRECORD
  5
122
330
10B
100
AcDbXrecord
280
1
 90
0
  0
XRECORD
  5
123
330
10B
100
AcDbXrecord
280
1
 90
0
  0
XRECORD
  5
124
330
10B
100
AcDbXrecord
280
1
 90
0
  0
XRECORD
  5
125
330
10B
100
AcDbXrecord
280
1
 90
0
  0
XRECORD
  5
126
330
10B
100
AcDbXrecord
280
1
1000
auto
  0
XRECORD
  5
127
330
10B
100
AcDbXrecord
280
1
1000
auto
  0
XRECORD
  5
128
330
10B
100
AcDbXrecord
280
1
1000
auto
  0
XRECORD
  5
129
330
10B
100
AcDbXrecord
280
1
1000
auto
  0
XRECORD
  5
12A
330
10B
100
AcDbXrecord
280
1
1000
auto
  0
XRECORD
  5
12B
330
10B
100
AcDbXrecord
280
1
1000
auto
  0
XRECORD
  5
12C
330
10B
100
AcDbXrecord
280
1
1000
auto
  0
XRECORD
  5
12D
330
10B
100
AcDbXrecord
280
1
1000
auto
  0
XRECORD
  5
12E
330
10B
100
AcDbXrecord
280
1
1000
auto
  0
XRECORD
  5
12F
330
10B
100
AcDbXrecord
280
1
1000
auto
  0
XRECORD
  5
130
330
10B
100
AcDbXrecord
280
1
 90
1
  0
XRECORD
  5
131
330
10B
100
AcDbXrecord
280
1
 40
10.0
  0
XRECORD
  5
132
330
10B
100
AcDbXrecord
280
1
 40
10.0
  0
XRECORD
  5
133
330
10B
100
AcDbXrecord
280
1
 40
10.0
  0
XRECORD
  5
134
330
10B
100
AcDbXrecord
280
1
 40
10.0
  0
XRECORD
  5
135
330
10B
100
AcDbXrecord
280
1
 40
10.0
  0
XRECORD
  5
136
330
10B
100
AcDbXrecord
280
1
290
0
  0
XRECORD
  5
137
330
10B
100
AcDbXrecord
280
1
 90
1
  0
XRECORD
  5
138
330
10B
100
AcDbXrecord
280
1
 40
28.085451596308161
  0
XRECORD
  5
139
330
10B
100
AcDbXrecord
280
1
 40
67.6920504140245356
  0
XRECORD
  5
13A
330
10B
100
AcDbXrecord
280
1
1000
Landscape
  0
XRECORD
  5
13B
330
10B
100
AcDbXrecord
280
1
 40
297.0
  0
XRECORD
  5
13C
330
10B
100
AcDbXrecord
280
1
 40
210.0
  0
XRECORD
  5
13D
330
10B
100
AcDbXrecord
280
1
1000
1:1
  0
XRECORD
  5
13E
330
10B
100
AcDbXrecord
280
1
290
0
  0
XRECORD
  5
13F
330
10B
100
AcDbXrecord
280
1
290
1
  0
XRECORD
  5
140
330
10B
100
AcDbXrecord
280
1
290
1
  0
XRECORD
  5
141
330
10B
100
AcDbXrecord
280
1
 90
4
  0
ENDSEC
  0
EOF
